<?xml version="1.0" encoding="UTF-8"?>
<svg xmlns="http://www.w3.org/2000/svg" xmlns:xlink="http://www.w3.org/1999/xlink" width="306pt" height="229pt" viewBox="0 0 306 229" version="1.1">
<defs>
<clipPath id="clip1">
  <path d="M 63 9 L 66 9 L 66 182.25 L 63 182.25 Z M 63 9 "/>
</clipPath>
<clipPath id="clip2">
  <path d="M 119 9 L 121 9 L 121 182.25 L 119 182.25 Z M 119 9 "/>
</clipPath>
<clipPath id="clip3">
  <path d="M 174 9 L 177 9 L 177 182.25 L 174 182.25 Z M 174 9 "/>
</clipPath>
<clipPath id="clip4">
  <path d="M 230 9 L 232 9 L 232 182.25 L 230 182.25 Z M 230 9 "/>
</clipPath>
<clipPath id="clip5">
  <path d="M 285 9 L 288 9 L 288 182.25 L 285 182.25 Z M 285 9 "/>
</clipPath>
<clipPath id="clip6">
  <path d="M 53.273438 151 L 297.398438 151 L 297.398438 153 L 53.273438 153 Z M 53.273438 151 "/>
</clipPath>
<clipPath id="clip7">
  <path d="M 53.273438 94 L 297.398438 94 L 297.398438 97 L 53.273438 97 Z M 53.273438 94 "/>
</clipPath>
<clipPath id="clip8">
  <path d="M 53.273438 38 L 297.398438 38 L 297.398438 40 L 53.273438 40 Z M 53.273438 38 "/>
</clipPath>
</defs>
<g id="surface1">
<rect x="0" y="0" width="306" height="229" style="fill:rgb(100%,100%,100%);fill-opacity:1;stroke:none;"/>
<path style=" stroke:none;fill-rule:nonzero;fill:rgb(100%,100%,100%);fill-opacity:1;" d="M 53.273438 182.25 L 297.402344 182.25 L 297.402344 9 L 53.273438 9 Z M 53.273438 182.25 "/>
<g clip-path="url(#clip1)" clip-rule="nonzero">
<path style="fill:none;stroke-width:0.8;stroke-linecap:square;stroke-linejoin:round;stroke:rgb(69.019608%,69.019608%,69.019608%);stroke-opacity:1;stroke-miterlimit:4;" d="M 51.496875 145.8 L 51.496875 7.2 " transform="matrix(1.25,0,0,1.25,0,0.000000000000014211)"/>
</g>
<path style="fill:none;stroke-width:0.8;stroke-linecap:butt;stroke-linejoin:round;stroke:rgb(0%,0%,0%);stroke-opacity:1;stroke-miterlimit:4;" d="M -0.00071 0 L -0.00071 3.5 " transform="matrix(1.25,0,0,1.25,64.371981,182.25)"/>
<path style=" stroke:none;fill-rule:nonzero;fill:rgb(0%,0%,0%);fill-opacity:1;" d="M 52.503906 196.0625 L 60.328125 196.0625 L 60.328125 197.097656 L 52.503906 197.097656 Z M 52.503906 196.0625 "/>
<path style=" stroke:none;fill-rule:nonzero;fill:rgb(0%,0%,0%);fill-opacity:1;" d="M 63.207031 199.460938 L 65.21875 199.460938 L 65.21875 192.507812 L 63.027344 192.949219 L 63.027344 191.824219 L 65.207031 191.386719 L 66.441406 191.386719 L 66.441406 199.460938 L 68.453125 199.460938 L 68.453125 200.5 L 63.207031 200.5 Z M 63.207031 199.460938 "/>
<path style=" stroke:none;fill-rule:nonzero;fill:rgb(0%,0%,0%);fill-opacity:1;" d="M 73.582031 192.199219 C 72.945312 192.199219 72.46875 192.511719 72.148438 193.136719 C 71.828125 193.757812 71.671875 194.699219 71.671875 195.953125 C 71.671875 197.199219 71.828125 198.136719 72.148438 198.761719 C 72.46875 199.386719 72.945312 199.699219 73.582031 199.699219 C 74.21875 199.699219 74.699219 199.386719 75.019531 198.761719 C 75.339844 198.136719 75.5 197.199219 75.5 195.953125 C 75.5 194.699219 75.339844 193.757812 75.019531 193.136719 C 74.699219 192.511719 74.21875 192.199219 73.582031 192.199219 Z M 73.582031 191.222656 C 74.601562 191.222656 75.382812 191.625 75.921875 192.433594 C 76.460938 193.242188 76.730469 194.414062 76.730469 195.953125 C 76.730469 197.484375 76.460938 198.65625 75.921875 199.464844 C 75.382812 200.273438 74.601562 200.675781 73.582031 200.675781 C 72.558594 200.675781 71.78125 200.273438 71.242188 199.464844 C 70.703125 198.65625 70.433594 197.484375 70.433594 195.953125 C 70.433594 194.414062 70.703125 193.242188 71.242188 192.433594 C 71.78125 191.625 72.558594 191.222656 73.582031 191.222656 Z M 73.582031 191.222656 "/>
<g clip-path="url(#clip2)" clip-rule="nonzero">
<path style="fill:none;stroke-width:0.8;stroke-linecap:square;stroke-linejoin:round;stroke:rgb(69.019608%,69.019608%,69.019608%);stroke-opacity:1;stroke-miterlimit:4;" d="M 95.884375 145.8 L 95.884375 7.2 " transform="matrix(1.25,0,0,1.25,0,0.000000000000014211)"/>
</g>
<path style="fill:none;stroke-width:0.8;stroke-linecap:butt;stroke-linejoin:round;stroke:rgb(0%,0%,0%);stroke-opacity:1;stroke-miterlimit:4;" d="M 0.000426 0 L 0.000426 3.5 " transform="matrix(1.25,0,0,1.25,119.854936,182.25)"/>
<path style=" stroke:none;fill-rule:nonzero;fill:rgb(0%,0%,0%);fill-opacity:1;" d="M 111.964844 196.0625 L 119.789062 196.0625 L 119.789062 197.097656 L 111.964844 197.097656 Z M 111.964844 196.0625 "/>
<path style=" stroke:none;fill-rule:nonzero;fill:rgb(0%,0%,0%);fill-opacity:1;" d="M 122.464844 191.386719 L 127.304688 191.386719 L 127.304688 192.425781 L 123.59375 192.425781 L 123.59375 194.65625 C 123.773438 194.59375 123.949219 194.550781 124.128906 194.519531 C 124.308594 194.488281 124.488281 194.476562 124.667969 194.476562 C 125.683594 194.476562 126.488281 194.753906 127.082031 195.3125 C 127.679688 195.867188 127.976562 196.621094 127.976562 197.574219 C 127.976562 198.554688 127.671875 199.316406 127.058594 199.863281 C 126.449219 200.40625 125.589844 200.675781 124.476562 200.675781 C 124.09375 200.675781 123.707031 200.644531 123.308594 200.578125 C 122.914062 200.511719 122.503906 200.414062 122.078125 200.285156 L 122.078125 199.046875 C 122.445312 199.246094 122.824219 199.394531 123.214844 199.492188 C 123.605469 199.589844 124.019531 199.636719 124.453125 199.636719 C 125.15625 199.636719 125.714844 199.453125 126.125 199.082031 C 126.535156 198.710938 126.742188 198.210938 126.742188 197.574219 C 126.742188 196.941406 126.535156 196.4375 126.125 196.070312 C 125.714844 195.699219 125.15625 195.511719 124.453125 195.511719 C 124.125 195.511719 123.792969 195.546875 123.464844 195.621094 C 123.140625 195.695312 122.804688 195.808594 122.464844 195.964844 Z M 122.464844 191.386719 "/>
<g clip-path="url(#clip3)" clip-rule="nonzero">
<path style="fill:none;stroke-width:0.8;stroke-linecap:square;stroke-linejoin:round;stroke:rgb(69.019608%,69.019608%,69.019608%);stroke-opacity:1;stroke-miterlimit:4;" d="M 140.26875 145.8 L 140.26875 7.2 " transform="matrix(1.25,0,0,1.25,0,0.000000000000014211)"/>
</g>
<path style="fill:none;stroke-width:0.8;stroke-linecap:butt;stroke-linejoin:round;stroke:rgb(0%,0%,0%);stroke-opacity:1;stroke-miterlimit:4;" d="M -0.001562 0 L -0.001562 3.5 " transform="matrix(1.25,0,0,1.25,175.33789,182.25)"/>
<path style=" stroke:none;fill-rule:nonzero;fill:rgb(0%,0%,0%);fill-opacity:1;" d="M 175.332031 192.199219 C 174.699219 192.199219 174.222656 192.511719 173.902344 193.136719 C 173.582031 193.757812 173.421875 194.699219 173.421875 195.953125 C 173.421875 197.199219 173.582031 198.136719 173.902344 198.761719 C 174.222656 199.386719 174.699219 199.699219 175.332031 199.699219 C 175.972656 199.699219 176.453125 199.386719 176.769531 198.761719 C 177.089844 198.136719 177.25 197.199219 177.25 195.953125 C 177.25 194.699219 177.089844 193.757812 176.769531 193.136719 C 176.453125 192.511719 175.972656 192.199219 175.332031 192.199219 Z M 175.332031 191.222656 C 176.355469 191.222656 177.136719 191.625 177.675781 192.433594 C 178.214844 193.242188 178.484375 194.414062 178.484375 195.953125 C 178.484375 197.484375 178.214844 198.65625 177.675781 199.464844 C 177.136719 200.273438 176.355469 200.675781 175.332031 200.675781 C 174.3125 200.675781 173.53125 200.273438 172.992188 199.464844 C 172.453125 198.65625 172.183594 197.484375 172.183594 195.953125 C 172.183594 194.414062 172.453125 193.242188 172.992188 192.433594 C 173.53125 191.625 174.3125 191.222656 175.332031 191.222656 Z M 175.332031 191.222656 "/>
<g clip-path="url(#clip4)" clip-rule="nonzero">
<path style="fill:none;stroke-width:0.8;stroke-linecap:square;stroke-linejoin:round;stroke:rgb(69.019608%,69.019608%,69.019608%);stroke-opacity:1;stroke-miterlimit:4;" d="M 184.65625 145.8 L 184.65625 7.2 " transform="matrix(1.25,0,0,1.25,0,0.000000000000014211)"/>
</g>
<path style="fill:none;stroke-width:0.8;stroke-linecap:butt;stroke-linejoin:round;stroke:rgb(0%,0%,0%);stroke-opacity:1;stroke-miterlimit:4;" d="M -0.000426 0 L -0.000426 3.5 " transform="matrix(1.25,0,0,1.25,230.820845,182.25)"/>
<path style=" stroke:none;fill-rule:nonzero;fill:rgb(0%,0%,0%);fill-opacity:1;" d="M 228.195312 191.386719 L 233.035156 191.386719 L 233.035156 192.425781 L 229.324219 192.425781 L 229.324219 194.65625 C 229.5 194.59375 229.679688 194.550781 229.859375 194.519531 C 230.039062 194.488281 230.21875 194.476562 230.398438 194.476562 C 231.414062 194.476562 232.21875 194.753906 232.8125 195.3125 C 233.40625 195.867188 233.707031 196.621094 233.707031 197.574219 C 233.707031 198.554688 233.398438 199.316406 232.789062 199.863281 C 232.179688 200.40625 231.316406 200.675781 230.207031 200.675781 C 229.824219 200.675781 229.433594 200.644531 229.039062 200.578125 C 228.640625 200.511719 228.230469 200.414062 227.808594 200.285156 L 227.808594 199.046875 C 228.175781 199.246094 228.554688 199.394531 228.945312 199.492188 C 229.335938 199.589844 229.746094 199.636719 230.183594 199.636719 C 230.886719 199.636719 231.445312 199.453125 231.855469 199.082031 C 232.265625 198.710938 232.472656 198.210938 232.472656 197.574219 C 232.472656 196.941406 232.265625 196.4375 231.855469 196.070312 C 231.445312 195.699219 230.886719 195.511719 230.183594 195.511719 C 229.851562 195.511719 229.523438 195.546875 229.195312 195.621094 C 228.867188 195.695312 228.535156 195.808594 228.195312 195.964844 Z M 228.195312 191.386719 "/>
<g clip-path="url(#clip5)" clip-rule="nonzero">
<path style="fill:none;stroke-width:0.8;stroke-linecap:square;stroke-linejoin:round;stroke:rgb(69.019608%,69.019608%,69.019608%);stroke-opacity:1;stroke-miterlimit:4;" d="M 229.04375 145.8 L 229.04375 7.2 " transform="matrix(1.25,0,0,1.25,0,0.000000000000014211)"/>
</g>
<path style="fill:none;stroke-width:0.8;stroke-linecap:butt;stroke-linejoin:round;stroke:rgb(0%,0%,0%);stroke-opacity:1;stroke-miterlimit:4;" d="M 0.00071 0 L 0.00071 3.5 " transform="matrix(1.25,0,0,1.25,286.3038,182.25)"/>
<path style=" stroke:none;fill-rule:nonzero;fill:rgb(0%,0%,0%);fill-opacity:1;" d="M 279.902344 199.460938 L 281.914062 199.460938 L 281.914062 192.507812 L 279.722656 192.949219 L 279.722656 191.824219 L 281.902344 191.386719 L 283.136719 191.386719 L 283.136719 199.460938 L 285.148438 199.460938 L 285.148438 200.5 L 279.902344 200.5 Z M 279.902344 199.460938 "/>
<path style=" stroke:none;fill-rule:nonzero;fill:rgb(0%,0%,0%);fill-opacity:1;" d="M 290.277344 192.199219 C 289.640625 192.199219 289.164062 192.511719 288.84375 193.136719 C 288.527344 193.757812 288.367188 194.699219 288.367188 195.953125 C 288.367188 197.199219 288.527344 198.136719 288.84375 198.761719 C 289.164062 199.386719 289.640625 199.699219 290.277344 199.699219 C 290.914062 199.699219 291.394531 199.386719 291.714844 198.761719 C 292.035156 198.136719 292.195312 197.199219 292.195312 195.953125 C 292.195312 194.699219 292.035156 193.757812 291.714844 193.136719 C 291.394531 192.511719 290.914062 192.199219 290.277344 192.199219 Z M 290.277344 191.222656 C 291.296875 191.222656 292.078125 191.625 292.617188 192.433594 C 293.15625 193.242188 293.425781 194.414062 293.425781 195.953125 C 293.425781 197.484375 293.15625 198.65625 292.617188 199.464844 C 292.078125 200.273438 291.296875 200.675781 290.277344 200.675781 C 289.253906 200.675781 288.476562 200.273438 287.9375 199.464844 C 287.398438 198.65625 287.128906 197.484375 287.128906 195.953125 C 287.128906 194.414062 287.398438 193.242188 287.9375 192.433594 C 288.476562 191.625 289.253906 191.222656 290.277344 191.222656 Z M 290.277344 191.222656 "/>
<path style=" stroke:none;fill-rule:nonzero;fill:rgb(0%,0%,0%);fill-opacity:1;" d="M 178.5 210.761719 L 176.027344 214.085938 L 178.625 217.597656 L 177.300781 217.597656 L 175.3125 214.910156 L 173.324219 217.597656 L 171.996094 217.597656 L 174.652344 214.019531 L 172.222656 210.761719 L 173.546875 210.761719 L 175.359375 213.195312 L 177.171875 210.761719 Z M 178.5 210.761719 "/>
<g clip-path="url(#clip6)" clip-rule="nonzero">
<path style="fill:none;stroke-width:0.8;stroke-linecap:square;stroke-linejoin:round;stroke:rgb(69.019608%,69.019608%,69.019608%);stroke-opacity:1;stroke-miterlimit:4;" d="M 42.61875 121.640625 L 237.921875 121.640625 " transform="matrix(1.25,0,0,1.25,0,0.000000000000014211)"/>
</g>
<path style="fill:none;stroke-width:0.8;stroke-linecap:butt;stroke-linejoin:round;stroke:rgb(0%,0%,0%);stroke-opacity:1;stroke-miterlimit:4;" d="M -0.001562 -0.000342 L -3.501562 -0.000342 " transform="matrix(1.25,0,0,1.25,53.27539,152.051209)"/>
<path style=" stroke:none;fill-rule:nonzero;fill:rgb(0%,0%,0%);fill-opacity:1;" d="M 27.421875 152.363281 L 35.246094 152.363281 L 35.246094 153.398438 L 27.421875 153.398438 Z M 27.421875 152.363281 "/>
<path style=" stroke:none;fill-rule:nonzero;fill:rgb(0%,0%,0%);fill-opacity:1;" d="M 37.921875 147.6875 L 42.761719 147.6875 L 42.761719 148.726562 L 39.050781 148.726562 L 39.050781 150.957031 C 39.226562 150.898438 39.40625 150.851562 39.585938 150.820312 C 39.765625 150.792969 39.945312 150.777344 40.125 150.777344 C 41.140625 150.777344 41.945312 151.054688 42.539062 151.613281 C 43.136719 152.171875 43.433594 152.925781 43.433594 153.875 C 43.433594 154.855469 43.128906 155.621094 42.515625 156.164062 C 41.90625 156.707031 41.046875 156.976562 39.933594 156.976562 C 39.550781 156.976562 39.160156 156.945312 38.765625 156.878906 C 38.367188 156.816406 37.960938 156.71875 37.535156 156.585938 L 37.535156 155.347656 C 37.902344 155.546875 38.28125 155.695312 38.671875 155.792969 C 39.0625 155.890625 39.472656 155.9375 39.910156 155.9375 C 40.613281 155.9375 41.171875 155.753906 41.582031 155.382812 C 41.992188 155.015625 42.199219 154.511719 42.199219 153.875 C 42.199219 153.242188 41.992188 152.742188 41.582031 152.371094 C 41.171875 152 40.613281 151.8125 39.910156 151.8125 C 39.578125 151.8125 39.25 151.851562 38.921875 151.921875 C 38.597656 151.996094 38.261719 152.109375 37.921875 152.265625 Z M 37.921875 147.6875 "/>
<g clip-path="url(#clip7)" clip-rule="nonzero">
<path style="fill:none;stroke-width:0.8;stroke-linecap:square;stroke-linejoin:round;stroke:rgb(69.019608%,69.019608%,69.019608%);stroke-opacity:1;stroke-miterlimit:4;" d="M 42.61875 76.5 L 237.921875 76.5 " transform="matrix(1.25,0,0,1.25,0,0.000000000000014211)"/>
</g>
<path style="fill:none;stroke-width:0.8;stroke-linecap:butt;stroke-linejoin:round;stroke:rgb(0%,0%,0%);stroke-opacity:1;stroke-miterlimit:4;" d="M -0.001562 0 L -3.501562 0 " transform="matrix(1.25,0,0,1.25,53.27539,95.625)"/>
<path style=" stroke:none;fill-rule:nonzero;fill:rgb(0%,0%,0%);fill-opacity:1;" d="M 40.542969 92.074219 C 39.910156 92.074219 39.433594 92.386719 39.113281 93.011719 C 38.792969 93.632812 38.632812 94.574219 38.632812 95.828125 C 38.632812 97.074219 38.792969 98.011719 39.113281 98.636719 C 39.433594 99.261719 39.910156 99.574219 40.542969 99.574219 C 41.183594 99.574219 41.664062 99.261719 41.980469 98.636719 C 42.300781 98.011719 42.460938 97.074219 42.460938 95.828125 C 42.460938 94.574219 42.300781 93.632812 41.980469 93.011719 C 41.664062 92.386719 41.183594 92.074219 40.542969 92.074219 Z M 40.542969 91.097656 C 41.566406 91.097656 42.347656 91.5 42.886719 92.308594 C 43.425781 93.117188 43.695312 94.289062 43.695312 95.828125 C 43.695312 97.359375 43.425781 98.53125 42.886719 99.339844 C 42.347656 100.148438 41.566406 100.550781 40.542969 100.550781 C 39.523438 100.550781 38.742188 100.148438 38.203125 99.339844 C 37.664062 98.53125 37.394531 97.359375 37.394531 95.828125 C 37.394531 94.289062 37.664062 93.117188 38.203125 92.308594 C 38.742188 91.5 39.523438 91.097656 40.542969 91.097656 Z M 40.542969 91.097656 "/>
<g clip-path="url(#clip8)" clip-rule="nonzero">
<path style="fill:none;stroke-width:0.8;stroke-linecap:square;stroke-linejoin:round;stroke:rgb(69.019608%,69.019608%,69.019608%);stroke-opacity:1;stroke-miterlimit:4;" d="M 42.61875 31.359375 L 237.921875 31.359375 " transform="matrix(1.25,0,0,1.25,0,0.000000000000014211)"/>
</g>
<path style="fill:none;stroke-width:0.8;stroke-linecap:butt;stroke-linejoin:round;stroke:rgb(0%,0%,0%);stroke-opacity:1;stroke-miterlimit:4;" d="M -0.001562 0.000342 L -3.501562 0.000342 " transform="matrix(1.25,0,0,1.25,53.27539,39.198791)"/>
<path style=" stroke:none;fill-rule:nonzero;fill:rgb(0%,0%,0%);fill-opacity:1;" d="M 37.921875 34.835938 L 42.761719 34.835938 L 42.761719 35.875 L 39.050781 35.875 L 39.050781 38.105469 C 39.230469 38.042969 39.40625 38 39.585938 37.96875 C 39.765625 37.9375 39.945312 37.925781 40.125 37.925781 C 41.140625 37.925781 41.945312 38.203125 42.539062 38.761719 C 43.136719 39.316406 43.433594 40.070312 43.433594 41.023438 C 43.433594 42.003906 43.128906 42.765625 42.515625 43.3125 C 41.90625 43.855469 41.046875 44.125 39.933594 44.125 C 39.550781 44.125 39.164062 44.09375 38.765625 44.027344 C 38.371094 43.960938 37.960938 43.863281 37.535156 43.734375 L 37.535156 42.496094 C 37.902344 42.695312 38.28125 42.84375 38.671875 42.941406 C 39.0625 43.039062 39.476562 43.085938 39.910156 43.085938 C 40.613281 43.085938 41.171875 42.902344 41.582031 42.53125 C 41.992188 42.160156 42.199219 41.660156 42.199219 41.023438 C 42.199219 40.390625 41.992188 39.886719 41.582031 39.519531 C 41.171875 39.148438 40.613281 38.960938 39.910156 38.960938 C 39.582031 38.960938 39.25 38.996094 38.921875 39.070312 C 38.597656 39.144531 38.261719 39.257812 37.921875 39.414062 Z M 37.921875 34.835938 "/>
<path style=" stroke:none;fill-rule:nonzero;fill:rgb(0%,0%,0%);fill-opacity:1;" d="M 9 101.761719 L 9.933594 101.761719 L 9.933594 102.835938 C 9.933594 103.238281 10.015625 103.519531 10.179688 103.675781 C 10.34375 103.832031 10.636719 103.910156 11.058594 103.910156 L 11.660156 103.910156 L 11.660156 102.0625 L 12.535156 102.0625 L 12.535156 103.910156 L 18.496094 103.910156 L 18.496094 105.039062 L 12.535156 105.039062 L 12.535156 106.113281 L 11.660156 106.113281 L 11.660156 105.039062 L 11.183594 105.039062 C 10.425781 105.039062 9.871094 104.863281 9.523438 104.507812 C 9.175781 104.15625 9 103.59375 9 102.824219 Z M 9 101.761719 "/>
<path style=" stroke:none;fill-rule:nonzero;fill:rgb(0%,0%,0%);fill-opacity:1;" d="M 9.011719 98.125 C 9.949219 98.671875 10.875 99.074219 11.789062 99.339844 C 12.707031 99.605469 13.632812 99.738281 14.574219 99.738281 C 15.511719 99.738281 16.441406 99.605469 17.363281 99.335938 C 18.285156 99.070312 19.214844 98.667969 20.144531 98.125 L 20.144531 99.101562 C 19.1875 99.710938 18.25 100.167969 17.324219 100.472656 C 16.402344 100.773438 15.484375 100.925781 14.574219 100.925781 C 13.667969 100.925781 12.753906 100.777344 11.832031 100.476562 C 10.914062 100.171875 9.972656 99.714844 9.011719 99.101562 Z M 9.011719 98.125 "/>
<path style=" stroke:none;fill-rule:nonzero;fill:rgb(0%,0%,0%);fill-opacity:1;" d="M 11.660156 90.261719 L 14.988281 92.734375 L 18.496094 90.136719 L 18.496094 91.460938 L 15.8125 93.449219 L 18.496094 95.4375 L 18.496094 96.765625 L 14.921875 94.109375 L 11.660156 96.539062 L 11.660156 95.214844 L 14.097656 93.402344 L 11.660156 91.589844 Z M 11.660156 90.261719 "/>
<path style=" stroke:none;fill-rule:nonzero;fill:rgb(0%,0%,0%);fill-opacity:1;" d="M 9.011719 88.726562 L 9.011719 87.75 C 9.972656 87.140625 10.914062 86.683594 11.832031 86.378906 C 12.753906 86.074219 13.667969 85.925781 14.574219 85.925781 C 15.484375 85.925781 16.402344 86.074219 17.324219 86.378906 C 18.25 86.683594 19.1875 87.140625 20.144531 87.75 L 20.144531 88.726562 C 19.214844 88.183594 18.285156 87.78125 17.363281 87.515625 C 16.441406 87.246094 15.511719 87.113281 14.574219 87.113281 C 13.632812 87.113281 12.707031 87.246094 11.789062 87.515625 C 10.875 87.78125 9.949219 88.183594 9.011719 88.726562 Z M 9.011719 88.726562 "/>
<path style="fill:none;stroke-width:1.5;stroke-linecap:square;stroke-linejoin:round;stroke:rgb(12.156863%,46.666667%,70.588235%);stroke-opacity:1;stroke-miterlimit:4;" d="M 51.496875 76.5 L 54.515625 62.5875 L 57.090625 51.753125 L 59.309375 43.325 L 61.35 36.40625 L 63.215625 30.8375 L 64.990625 26.23125 L 66.5875 22.6875 L 68.096875 19.871875 L 69.51875 17.696875 L 70.7625 16.16875 L 72.003125 14.990625 L 73.159375 14.20625 L 74.221875 13.740625 L 75.2875 13.521875 L 76.353125 13.540625 L 77.41875 13.790625 L 78.484375 14.2625 L 79.6375 15.01875 L 80.88125 16.10625 L 82.2125 17.559375 L 83.721875 19.55 L 85.409375 22.165625 L 87.271875 25.48125 L 89.403125 29.725 L 91.978125 35.365625 L 95.528125 43.725 L 103.1625 61.840625 L 106.003125 67.940625 L 108.4 72.590625 L 110.53125 76.2625 L 112.484375 79.203125 L 114.259375 81.496875 L 115.946875 83.328125 L 117.54375 84.7375 L 119.053125 85.778125 L 120.475 86.503125 L 121.89375 86.98125 L 123.315625 87.21875 L 124.734375 87.225 L 126.15625 87.009375 L 127.665625 86.55625 L 129.2625 85.8375 L 131.0375 84.784375 L 132.990625 83.35625 L 135.3 81.38125 L 138.31875 78.475 L 145.953125 70.98125 L 148.259375 69.09375 L 150.2125 67.765625 L 151.9875 66.815625 L 153.5875 66.203125 L 155.096875 65.85625 L 156.515625 65.75 L 157.9375 65.871875 L 159.35625 66.228125 L 160.778125 66.828125 L 162.196875 67.675 L 163.70625 68.85 L 165.215625 70.30625 L 166.8125 72.153125 L 168.5875 74.55625 L 170.453125 77.465625 L 172.49375 81.065625 L 174.803125 85.60625 L 177.465625 91.359375 L 180.840625 99.20625 L 190.071875 120.996875 L 192.55625 126.153125 L 194.6875 130.08125 L 196.553125 133.0625 L 198.15 135.221875 L 199.659375 136.89375 L 200.990625 138.046875 L 202.234375 138.83125 L 203.3875 139.29375 L 204.453125 139.4875 L 205.51875 139.446875 L 206.584375 139.165625 L 207.65 138.640625 L 208.715625 137.8625 L 209.86875 136.734375 L 211.1125 135.18125 L 212.44375 133.128125 L 213.8625 130.490625 L 215.371875 127.190625 L 216.96875 123.1375 L 218.65625 118.259375 L 220.521875 112.175 L 222.5625 104.725 L 224.78125 95.775 L 227.35625 84.41875 L 228.953125 76.925 " transform="matrix(1.25,0,0,1.25,0,0.000000000000014211)"/>
<path style="fill:none;stroke-width:1.5;stroke-linecap:square;stroke-linejoin:round;stroke:rgb(100%,49.803922%,5.490196%);stroke-opacity:1;stroke-miterlimit:4;" d="M 229.04375 76.5 L 145.378125 71.496875 L 129.559375 85.678125 L 120.034375 86.30625 L 128.34375 86.278125 L 120.68125 86.5875 L 127.6125 86.575 L 121.14375 86.75625 L 127.096875 86.753125 L 121.5 86.871875 L 126.703125 86.871875 " transform="matrix(1.25,0,0,1.25,0,0.000000000000014211)"/>
<path style="fill-rule:nonzero;fill:rgb(100%,49.803922%,5.490196%);fill-opacity:1;stroke-width:1;stroke-linecap:butt;stroke-linejoin:round;stroke:rgb(100%,49.803922%,5.490196%);stroke-opacity:1;stroke-miterlimit:4;" d="M 0.00071 3.000001 C 0.79446 3.000001 1.560085 2.684376 2.122585 2.121876 C 2.685085 1.559376 3.00071 0.796876 3.00071 0.000001 C 3.00071 -0.796874 2.685085 -1.559374 2.122585 -2.121874 C 1.560085 -2.684374 0.79446 -2.999999 0.00071 -2.999999 C -0.796165 -2.999999 -1.558665 -2.684374 -2.121165 -2.121874 C -2.683665 -1.559374 -2.99929 -0.796874 -2.99929 0.000001 C -2.99929 0.796876 -2.683665 1.559376 -2.121165 2.121876 C -1.558665 2.684376 -0.796165 3.000001 0.00071 3.000001 Z M 0.00071 3.000001 " transform="matrix(1.25,0,0,1.25,286.3038,95.624999)"/>
<path style="fill-rule:nonzero;fill:rgb(100%,49.803922%,5.490196%);fill-opacity:1;stroke-width:1;stroke-linecap:butt;stroke-linejoin:round;stroke:rgb(100%,49.803922%,5.490196%);stroke-opacity:1;stroke-miterlimit:4;" d="M 0.00141 3.000464 C 0.79516 3.000464 1.55766 2.684839 2.12016 2.122339 C 2.68266 1.559839 3.00141 0.794214 3.00141 0.000464 C 3.00141 -0.796411 2.68266 -1.558911 2.12016 -2.121411 C 1.55766 -2.683911 0.79516 -2.999536 0.00141 -2.999536 C -0.795465 -2.999536 -1.557965 -2.683911 -2.120465 -2.121411 C -2.682965 -1.558911 -2.99859 -0.796411 -2.99859 0.000464 C -2.99859 0.794214 -2.682965 1.559839 -2.120465 2.122339 C -1.557965 2.684839 -0.795465 3.000464 0.00141 3.000464 Z M 0.00141 3.000464 " transform="matrix(1.25,0,0,1.25,181.720894,89.370514)"/>
<path style="fill-rule:nonzero;fill:rgb(100%,49.803922%,5.490196%);fill-opacity:1;stroke-width:1;stroke-linecap:butt;stroke-linejoin:round;stroke:rgb(100%,49.803922%,5.490196%);stroke-opacity:1;stroke-miterlimit:4;" d="M 0.000271 2.998766 C 0.797146 2.998766 1.559646 2.683141 2.122146 2.120641 C 2.684646 1.558141 3.000271 0.795641 3.000271 -0.001234 C 3.000271 -0.794984 2.684646 -1.557484 2.122146 -2.119984 C 1.559646 -2.682484 0.797146 -3.001234 0.000271 -3.001234 C -0.796604 -3.001234 -1.559104 -2.682484 -2.121604 -2.119984 C -2.684104 -1.557484 -2.999729 -0.794984 -2.999729 -0.001234 C -2.999729 0.795641 -2.684104 1.558141 -2.121604 2.120641 C -1.559104 2.683141 -0.796604 2.998766 0.000271 2.998766 Z M 0.000271 2.998766 " transform="matrix(1.25,0,0,1.25,161.94888,107.099199)"/>
<path style="fill-rule:nonzero;fill:rgb(100%,49.803922%,5.490196%);fill-opacity:1;stroke-width:1;stroke-linecap:butt;stroke-linejoin:round;stroke:rgb(100%,49.803922%,5.490196%);stroke-opacity:1;stroke-miterlimit:4;" d="M 0.000678 3.001532 C 0.794428 3.001532 1.560053 2.682782 2.122553 2.120282 C 2.685053 1.557782 3.000678 0.795282 3.000678 0.001532 C 3.000678 -0.795343 2.685053 -1.557843 2.122553 -2.120343 C 1.560053 -2.682843 0.794428 -2.998468 0.000678 -2.998468 C -0.796197 -2.998468 -1.558697 -2.682843 -2.121197 -2.120343 C -2.683697 -1.557843 -2.999322 -0.795343 -2.999322 0.001532 C -2.999322 0.795282 -2.683697 1.557782 -2.121197 2.120282 C -1.558697 2.682782 -0.796197 3.001532 0.000678 3.001532 Z M 0.000678 3.001532 " transform="matrix(1.25,0,0,1.25,150.042121,107.880897)"/>
<path style="fill-rule:nonzero;fill:rgb(100%,49.803922%,5.490196%);fill-opacity:1;stroke-width:1;stroke-linecap:butt;stroke-linejoin:round;stroke:rgb(100%,49.803922%,5.490196%);stroke-opacity:1;stroke-miterlimit:4;" d="M -0.000696 2.999851 C 0.796179 2.999851 1.558679 2.684226 2.121179 2.121726 C 2.683679 1.559226 2.999304 0.796726 2.999304 -0.000149 C 2.999304 -0.797024 2.683679 -1.559524 2.121179 -2.122024 C 1.558679 -2.684524 0.796179 -3.000149 -0.000696 -3.000149 C -0.794446 -3.000149 -1.560071 -2.684524 -2.122571 -2.122024 C -2.685071 -1.559524 -3.000696 -0.797024 -3.000696 -0.000149 C -3.000696 0.796726 -2.685071 1.559226 -2.122571 2.121726 C -1.560071 2.684226 -0.794446 2.999851 -0.000696 2.999851 Z M -0.000696 2.999851 " transform="matrix(1.25,0,0,1.25,160.430557,107.847842)"/>
<path style="fill-rule:nonzero;fill:rgb(100%,49.803922%,5.490196%);fill-opacity:1;stroke-width:1;stroke-linecap:butt;stroke-linejoin:round;stroke:rgb(100%,49.803922%,5.490196%);stroke-opacity:1;stroke-miterlimit:4;" d="M 0.001034 3.000554 C 0.794784 3.000554 1.557284 2.684929 2.119784 2.122429 C 2.685409 1.559929 3.001034 0.794304 3.001034 0.000554 C 3.001034 -0.796321 2.685409 -1.558821 2.119784 -2.121321 C 1.557284 -2.683821 0.794784 -2.999446 0.001034 -2.999446 C -0.795841 -2.999446 -1.558341 -2.683821 -2.120841 -2.121321 C -2.683341 -1.558821 -2.998966 -0.796321 -2.998966 0.000554 C -2.998966 0.794304 -2.683341 1.559929 -2.120841 2.122429 C -1.558341 2.684929 -0.795841 3.000554 0.001034 3.000554 Z M 0.001034 3.000554 " transform="matrix(1.25,0,0,1.25,150.85027,108.233682)"/>
<path style="fill-rule:nonzero;fill:rgb(100%,49.803922%,5.490196%);fill-opacity:1;stroke-width:1;stroke-linecap:butt;stroke-linejoin:round;stroke:rgb(100%,49.803922%,5.490196%);stroke-opacity:1;stroke-miterlimit:4;" d="M -0.000699 3.000518 C 0.796176 3.000518 1.558676 2.684893 2.121176 2.122393 C 2.683676 1.559893 2.999301 0.794268 2.999301 0.000518 C 2.999301 -0.796357 2.683676 -1.558857 2.121176 -2.121357 C 1.558676 -2.683857 0.796176 -2.999482 -0.000699 -2.999482 C -0.794449 -2.999482 -1.560074 -2.683857 -2.122574 -2.121357 C -2.685074 -1.558857 -3.000699 -0.796357 -3.000699 0.000518 C -3.000699 0.794268 -2.685074 1.559893 -2.122574 2.122393 C -1.560074 2.684893 -0.794449 3.000518 -0.000699 3.000518 Z M -0.000699 3.000518 " transform="matrix(1.25,0,0,1.25,159.516499,108.218103)"/>
<path style="fill-rule:nonzero;fill:rgb(100%,49.803922%,5.490196%);fill-opacity:1;stroke-width:1;stroke-linecap:butt;stroke-linejoin:round;stroke:rgb(100%,49.803922%,5.490196%);stroke-opacity:1;stroke-miterlimit:4;" d="M 0.000715 2.99849 C 0.794465 2.99849 1.56009 2.682865 2.12259 2.120365 C 2.68509 1.557865 3.000715 0.795365 3.000715 -0.00151 C 3.000715 -0.79526 2.68509 -1.55776 2.12259 -2.12026 C 1.56009 -2.68276 0.794465 -3.00151 0.000715 -3.00151 C -0.79616 -3.00151 -1.55866 -2.68276 -2.12116 -2.12026 C -2.68366 -1.55776 -2.999285 -0.79526 -2.999285 -0.00151 C -2.999285 0.795365 -2.68366 1.557865 -2.12116 2.120365 C -1.55866 2.682865 -0.79616 2.99849 0.000715 2.99849 Z M 0.000715 2.99849 " transform="matrix(1.25,0,0,1.25,151.428794,108.4472)"/>
<path style="fill-rule:nonzero;fill:rgb(100%,49.803922%,5.490196%);fill-opacity:1;stroke-width:1;stroke-linecap:butt;stroke-linejoin:round;stroke:rgb(100%,49.803922%,5.490196%);stroke-opacity:1;stroke-miterlimit:4;" d="M -0.000672 3.000368 C 0.796203 3.000368 1.558703 2.684743 2.121203 2.122243 C 2.683703 1.559743 2.999328 0.794118 2.999328 0.000368 C 2.999328 -0.796507 2.683703 -1.559007 2.121203 -2.121507 C 1.558703 -2.684007 0.796203 -2.999632 -0.000672 -2.999632 C -0.794422 -2.999632 -1.560047 -2.684007 -2.122547 -2.121507 C -2.685047 -1.559007 -3.000672 -0.796507 -3.000672 0.000368 C -3.000672 0.794118 -2.685047 1.559743 -2.122547 2.122243 C -1.560047 2.684743 -0.794422 3.000368 -0.000672 3.000368 Z M -0.000672 3.000368 " transform="matrix(1.25,0,0,1.25,158.871934,108.440946)"/>
<path style="fill-rule:nonzero;fill:rgb(100%,49.803922%,5.490196%);fill-opacity:1;stroke-width:1;stroke-linecap:butt;stroke-linejoin:round;stroke:rgb(100%,49.803922%,5.490196%);stroke-opacity:1;stroke-miterlimit:4;" d="M -0.000614 2.999849 C 0.796261 2.999849 1.558761 2.684224 2.121261 2.121724 C 2.683761 1.559224 2.999386 0.796724 2.999386 -0.000151 C 2.999386 -0.797026 2.683761 -1.559526 2.121261 -2.122026 C 1.558761 -2.684526 0.796261 -3.000151 -0.000614 -3.000151 C -0.794364 -3.000151 -1.559989 -2.684526 -2.122489 -2.122026 C -2.684989 -1.559526 -3.000614 -0.797026 -3.000614 -0.000151 C -3.000614 0.796724 -2.684989 1.559224 -2.122489 2.121724 C -1.559989 2.684224 -0.794364 2.999849 -0.000614 2.999849 Z M -0.000614 2.999849 " transform="matrix(1.25,0,0,1.25,151.875767,108.590033)"/>
<path style="fill-rule:nonzero;fill:rgb(100%,49.803922%,5.490196%);fill-opacity:1;stroke-width:1;stroke-linecap:butt;stroke-linejoin:round;stroke:rgb(100%,49.803922%,5.490196%);stroke-opacity:1;stroke-miterlimit:4;" d="M -0.001249 3.000726 C 0.795626 3.000726 1.558126 2.685101 2.120626 2.122601 C 2.683126 1.560101 2.998751 0.794476 2.998751 0.000726 C 2.998751 -0.796149 2.683126 -1.558649 2.120626 -2.121149 C 1.558126 -2.683649 0.795626 -2.999274 -0.001249 -2.999274 C -0.794999 -2.999274 -1.557499 -2.683649 -2.119999 -2.121149 C -2.682499 -1.558649 -3.001249 -0.796149 -3.001249 0.000726 C -3.001249 0.794476 -2.682499 1.560101 -2.119999 2.122601 C -1.557499 2.685101 -0.794999 3.000726 -0.001249 3.000726 Z M -0.001249 3.000726 " transform="matrix(1.25,0,0,1.25,158.380467,108.588936)"/>
<path style="fill:none;stroke-width:0.8;stroke-linecap:square;stroke-linejoin:miter;stroke:rgb(0%,0%,0%);stroke-opacity:1;stroke-miterlimit:4;" d="M 42.61875 145.8 L 42.61875 7.2 " transform="matrix(1.25,0,0,1.25,0,0.000000000000014211)"/>
<path style="fill:none;stroke-width:0.8;stroke-linecap:square;stroke-linejoin:miter;stroke:rgb(0%,0%,0%);stroke-opacity:1;stroke-miterlimit:4;" d="M 237.921875 145.8 L 237.921875 7.2 " transform="matrix(1.25,0,0,1.25,0,0.000000000000014211)"/>
<path style="fill:none;stroke-width:0.8;stroke-linecap:square;stroke-linejoin:miter;stroke:rgb(0%,0%,0%);stroke-opacity:1;stroke-miterlimit:4;" d="M 42.61875 145.8 L 237.921875 145.8 " transform="matrix(1.25,0,0,1.25,0,0.000000000000014211)"/>
<path style="fill:none;stroke-width:0.8;stroke-linecap:square;stroke-linejoin:miter;stroke:rgb(0%,0%,0%);stroke-opacity:1;stroke-miterlimit:4;" d="M 42.61875 7.2 L 237.921875 7.2 " transform="matrix(1.25,0,0,1.25,0,0.000000000000014211)"/>
</g>
</svg>
