<?xml version="1.0" encoding="UTF-8"?>
<svg xmlns="http://www.w3.org/2000/svg" xmlns:xlink="http://www.w3.org/1999/xlink" width="1344" height="576" viewBox="0 0 1008 432">
	<defs>
		<path id="c1" d="M0 3a3 3 0 100-6 3 3 0 000 6z"/>
		<path id="c2" d="M0 2.2a2.2 2.2 0 100-4.4 2.2 2.2 0 000 4.4z"/>
		<path id="d" stroke="#000" stroke-width=".8" d="M0 0v3.5"/>
		<path id="e" stroke="#000" stroke-width=".8" d="M0 0h-3.5"/>
		<linearGradient id="g" x1="769.7" x2="700.3" y1="350.9" y2="207.1" gradientUnits="userSpaceOnUse">
			<stop offset="0" stop-color="#008066"/>
			<stop offset="1" stop-color="#ff6"/>
		</linearGradient>
		<clipPath id="a">
			<rect width="355.1" height="332.6" x="126" y="51.8"/>
		</clipPath>
	</defs>
	<path fill="#b9dbed" d="M126 384.5h355V51.8H126z"/>
	<ellipse cx="307" cy="222" fill="#cc723f" rx="105" ry="98"/>
	<g fill="#8000ff" fill-opacity=".5" stroke="#8000ff" stroke-opacity=".5" clip-path="url(#a)">
		<use x="450.5" y="118.9" xlink:href="#c1"/>
		<use x="290.5" y="354.8" xlink:href="#c1"/>
		<use x="320.1" y="84.9" xlink:href="#c1"/>
		<use x="200.5" y="184" xlink:href="#c1"/>
		<use x="464.4" y="290" xlink:href="#c1"/>
		<use x="331.6" y="371.4" xlink:href="#c1"/>
		<use x="287.6" y="317" xlink:href="#c1"/>
		<use x="237.2" y="93.8" xlink:href="#c1"/>
		<use x="133.3" y="154.1" xlink:href="#c1"/>
		<use x="432.9" y="138.7" xlink:href="#c1"/>
		<use x="463.7" y="120.5" xlink:href="#c1"/>
		<use x="394.5" y="158" xlink:href="#c1"/>
		<use x="460.6" y="324.3" xlink:href="#c1"/>
		<use x="437.4" y="319.1" xlink:href="#c1"/>
		<use x="199.9" y="69.1" xlink:href="#c1"/>
		<use x="171.5" y="137.8" xlink:href="#c1"/>
		<use x="447.3" y="281.5" xlink:href="#c1"/>
		<use x="461.4" y="222.2" xlink:href="#c1"/>
		<use x="179.6" y="215.3" xlink:href="#c1"/>
		<use x="415" y="281.6" xlink:href="#c1"/>
		<use x="263.3" y="336" xlink:href="#c1"/>
		<use x="393.9" y="341.1" xlink:href="#c1"/>
		<use x="148" y="171.2" xlink:href="#c1"/>
		<use x="210.8" y="52.2" xlink:href="#c1"/>
		<use x="200.1" y="78.7" xlink:href="#c1"/>
		<use x="366.7" y="322.3" xlink:href="#c1"/>
		<use x="149.8" y="192.3" xlink:href="#c1"/>
		<use x="451.7" y="129.5" xlink:href="#c1"/>
		<use x="403.4" y="103.1" xlink:href="#c1"/>
		<use x="280.2" y="373.8" xlink:href="#c1"/>
		<use x="127.9" y="192.7" xlink:href="#c1"/>
		<use x="417.7" y="258" xlink:href="#c1"/>
		<use x="350.3" y="311.1" xlink:href="#c1"/>
		<use x="258.5" y="64.7" xlink:href="#c1"/>
		<use x="325.8" y="56.9" xlink:href="#c1"/>
		<use x="460.9" y="92.1" xlink:href="#c1"/>
		<use x="217.5" y="365.9" xlink:href="#c1"/>
		<use x="138.3" y="138" xlink:href="#c1"/>
		<use x="324.8" y="91.5" xlink:href="#c1"/>
		<use x="437.5" y="333.3" xlink:href="#c1"/>
		<use x="398.7" y="134.3" xlink:href="#c1"/>
		<use x="334.5" y="371.9" xlink:href="#c1"/>
		<use x="328.6" y="82.3" xlink:href="#c1"/>
		<use x="187.7" y="157.9" xlink:href="#c1"/>
		<use x="313.9" y="64.8" xlink:href="#c1"/>
		<use x="453.1" y="118.8" xlink:href="#c1"/>
		<use x="314" y="116.2" xlink:href="#c1"/>
		<use x="256.1" y="330.6" xlink:href="#c1"/>
		<use x="235" y="135" xlink:href="#c1"/>
		<use x="253.6" y="71.7" xlink:href="#c1"/>
		<use x="323.2" y="352.5" xlink:href="#c1"/>
		<use x="223" y="117.3" xlink:href="#c1"/>
		<use x="156.7" y="241.2" xlink:href="#c1"/>
		<use x="458.9" y="161.1" xlink:href="#c1"/>
		<use x="199.1" y="155.3" xlink:href="#c1"/>
		<use x="250.3" y="92.6" xlink:href="#c1"/>
		<use x="303.4" y="321.5" xlink:href="#c1"/>
		<use x="215.7" y="293" xlink:href="#c1"/>
		<use x="376" y="312" xlink:href="#c1"/>
		<use x="159.9" y="356.7" xlink:href="#c1"/>
		<use x="430.9" y="74" xlink:href="#c1"/>
		<use x="274.5" y="321.4" xlink:href="#c1"/>
		<use x="229.7" y="349.2" xlink:href="#c1"/>
		<use x="389.8" y="121.5" xlink:href="#c1"/>
		<use x="362.1" y="377.1" xlink:href="#c1"/>
		<use x="448.9" y="341.8" xlink:href="#c1"/>
		<use x="446.8" y="324.5" xlink:href="#c1"/>
		<use x="234.1" y="68.9" xlink:href="#c1"/>
		<use x="362.2" y="125.6" xlink:href="#c1"/>
		<use x="382.2" y="105.2" xlink:href="#c1"/>
		<use x="139.9" y="88.4" xlink:href="#c1"/>
		<use x="251.3" y="130.2" xlink:href="#c1"/>
	</g>
	<g fill="red" fill-opacity=".5" stroke="red" stroke-opacity=".5" clip-path="url(#a)">
		<use x="364.8" y="292.7" xlink:href="#c1"/>
		<use x="326.5" y="128.7" xlink:href="#c1"/>
		<use x="234.9" y="277.8" xlink:href="#c1"/>
		<use x="269.8" y="262.3" xlink:href="#c1"/>
		<use x="372.2" y="162.8" xlink:href="#c1"/>
		<use x="278.6" y="226.8" xlink:href="#c1"/>
		<use x="289.3" y="303.2" xlink:href="#c1"/>
		<use x="214.5" y="260.7" xlink:href="#c1"/>
		<use x="378.9" y="283.7" xlink:href="#c1"/>
		<use x="289.6" y="158.8" xlink:href="#c1"/>
		<use x="296.7" y="290.9" xlink:href="#c1"/>
		<use x="279.6" y="236.1" xlink:href="#c1"/>
		<use x="257.2" y="256.5" xlink:href="#c1"/>
		<use x="263.7" y="254.6" xlink:href="#c1"/>
		<use x="383.5" y="181" xlink:href="#c1"/>
		<use x="390" y="273.6" xlink:href="#c1"/>
		<use x="239.1" y="208.8" xlink:href="#c1"/>
		<use x="406.6" y="219.4" xlink:href="#c1"/>
		<use x="282.4" y="143.2" xlink:href="#c1"/>
		<use x="328.8" y="234.4" xlink:href="#c1"/>
		<use x="350" y="224.5" xlink:href="#c1"/>
		<use x="363.4" y="186.5" xlink:href="#c1"/>
		<use x="363.9" y="176.2" xlink:href="#c1"/>
		<use x="229.5" y="153.9" xlink:href="#c1"/>
		<use x="350.9" y="268.2" xlink:href="#c1"/>
		<use x="218.3" y="248.1" xlink:href="#c1"/>
		<use x="267.9" y="242.5" xlink:href="#c1"/>
		<use x="278.2" y="225.2" xlink:href="#c1"/>
	</g>
	<g stroke="#000" stroke-width=".8">
		<use x="214.8" y="384.5" xlink:href="#d"/>
		<use x="303.5" y="384.5" xlink:href="#d"/>
		<use x="392.3" y="384.5" xlink:href="#d"/>
		<use x="126" y="301.3" xlink:href="#e"/>
		<use x="126" y="218.2" xlink:href="#e"/>
		<use x="126" y="135" xlink:href="#e"/>
	</g>
	<g fill="none" stroke="#000" stroke-linecap="square" stroke-width=".8">
		<path d="M126 384.5V51.8"/>
		<path d="M481 384.5V51.8"/>
		<path d="M126 384.5h355"/>
		<path d="M126 51.8h355"/>
	</g>
	<path fill="#f2f2f2" stroke="#f2f2f2" d="M599.2 311l101.6-81.6-1.7-155.8-107.3 73.3" opacity=".5"/>
	<path fill="#e6e6e6" stroke="#e6e6e6" d="M700.8 229.4L865.4 275l7-160.5-173.3-41" opacity=".5"/>
	<path fill="#ececec" stroke="#ececec" d="M599.2 311l173.2 53 93-89-164.6-45.6" opacity=".5"/>
	<g fill="none" stroke-width=".8">
		<path stroke="#000" stroke-linecap="square" d="M599.2 311l173.2 53"/>
		<g stroke="#b0b0b0">
			<path d="M642.7 324.3l99.6-83.4.4-157"/>
			<path d="M683.8 337l97.6-85.3 2.4-158.1"/>
			<path d="M725.8 349.8l95.5-87 4.5-159.3"/>
		</g>
		<g stroke="#000" stroke-linecap="square">
			<path d="M643.6 323.6l-2.6 2.2"/>
			<path d="M684.6 336.2l-2.5 2.2"/>
			<path d="M726.6 349l-2.4 2.3"/>
			<path d="M865.4 275l-93 89"/>
		</g>
		<g stroke="#b0b0b0">
			<path d="M621.4 126.7l5.7 161.9 171 51"/>
			<path d="M647.6 108.8l4.3 159.9 168.8 49.1"/>
			<path d="M672.8 91.5l3 158 166.8 47.4"/>
		</g>
		<g stroke="#000" stroke-linecap="square">
			<path d="M796.6 339.1l4.3 1.3"/>
			<path d="M819.3 317.4l4.3 1.2"/>
			<path d="M841.2 296.5l4.2 1.2"/>
			<path d="M865.4 275l7-160.5"/>
		</g>
		<g stroke="#b0b0b0">
			<path d="M865.8 266.2l-165-45.3-102 81"/>
			<path d="M867.8 219.3l-167.6-44L596.6 254"/>
			<path d="M870 170.9l-170.3-42.6-105.3 76.3"/>
		</g>
		<g stroke="#000" stroke-linecap="square">
			<path d="M864.4 265.8l4.2 1.2"/>
			<path d="M866.4 219l4.2 1"/>
			<path d="M868.5 170.5l4.3 1.1"/>
		</g>
	</g>
	<g fill="red" fill-opacity=".5" stroke="red" stroke-opacity=".5">
		<use x="741.7" y="280.1" xlink:href="#c2"/>
		<use x="769.9" y="236.8" xlink:href="#c2"/>
		<use x="685.6" y="263" xlink:href="#c2"/>
		<use x="706.3" y="280.1" xlink:href="#c2"/>
		<use x="781.7" y="254.9" xlink:href="#c2"/>
		<use x="720.6" y="280.5" xlink:href="#c2"/>
		<use x="703.2" y="277.5" xlink:href="#c2"/>
		<use x="681.2" y="252.6" xlink:href="#c2"/>
		<use x="751" y="278.3" xlink:href="#c2"/>
		<use x="744.7" y="255.3" xlink:href="#c2"/>
		<use x="710.3" y="282.6" xlink:href="#c2"/>
		<use x="718.4" y="282.2" xlink:href="#c2"/>
		<use x="702.2" y="275.7" xlink:href="#c2"/>
		<use x="705.8" y="278.2" xlink:href="#c2"/>
		<use x="781.9" y="261.5" xlink:href="#c2"/>
		<use x="759.2" y="276" xlink:href="#c2"/>
		<use x="707.8" y="260.6" xlink:href="#c2"/>
		<use x="782.3" y="265.9" xlink:href="#c2"/>
		<use x="745.8" y="242.9" xlink:href="#c2"/>
		<use x="741.5" y="288.4" xlink:href="#c2"/>
		<use x="754.1" y="285" xlink:href="#c2"/>
		<use x="771" y="269.9" xlink:href="#c2"/>
		<use x="774" y="264.7" xlink:href="#c2"/>
		<use x="718.9" y="228.9" xlink:href="#c2"/>
		<use x="742.2" y="287.3" xlink:href="#c2"/>
		<use x="686.8" y="255.2" xlink:href="#c2"/>
		<use x="711.2" y="279.2" xlink:href="#c2"/>
		<use x="720.9" y="280.1" xlink:href="#c2"/>
	</g>
	<path fill="url(#g)" d="M769.7 350.9l90.3-91.2L700.3 207 603 290.2z" opacity=".2"/>
	<g fill="#8000ff" fill-opacity=".5" stroke="#8000ff" stroke-opacity=".5">
		<use x="832.4" y="178.8" xlink:href="#c2"/>
		<use x="687.6" y="250.3" xlink:href="#c2"/>
		<use x="779.3" y="193.4" xlink:href="#c2"/>
		<use x="697.2" y="226.9" xlink:href="#c2"/>
		<use x="791.6" y="224.6" xlink:href="#c2"/>
		<use x="702" y="240.5" xlink:href="#c2"/>
		<use x="698.1" y="271.7" xlink:href="#c2"/>
		<use x="739.1" y="180.9" xlink:href="#c2"/>
		<use x="674.7" y="146.2" xlink:href="#c2"/>
		<use x="817.8" y="209" xlink:href="#c2"/>
		<use x="838.7" y="169.2" xlink:href="#c2"/>
		<use x="793.6" y="244" xlink:href="#c2"/>
		<use x="780" y="213.9" xlink:href="#c2"/>
		<use x="769.6" y="235.4" xlink:href="#c2"/>
		<use x="729.1" y="128.4" xlink:href="#c2"/>
		<use x="697" y="174.3" xlink:href="#c2"/>
		<use x="785.2" y="241.1" xlink:href="#c2"/>
		<use x="808.8" y="229.4" xlink:href="#c2"/>
		<use x="678.6" y="221.2" xlink:href="#c2"/>
		<use x="769.1" y="262.7" xlink:href="#c2"/>
		<use x="680.8" y="254.5" xlink:href="#c2"/>
		<use x="741.6" y="248.4" xlink:href="#c2"/>
		<use x="676.7" y="173" xlink:href="#c2"/>
		<use x="738.8" y="114.1" xlink:href="#c2"/>
		<use x="726.5" y="140.3" xlink:href="#c2"/>
		<use x="734" y="268.4" xlink:href="#c2"/>
		<use x="671.4" y="184.9" xlink:href="#c2"/>
		<use x="830" y="187.4" xlink:href="#c2"/>
		<use x="813.5" y="193.6" xlink:href="#c2"/>
		<use x="676.4" y="232.3" xlink:href="#c2"/>
		<use x="660.9" y="160.2" xlink:href="#c2"/>
		<use x="777" y="263.9" xlink:href="#c2"/>
		<use x="729.4" y="276.8" xlink:href="#c2"/>
		<use x="756.9" y="156.3" xlink:href="#c2"/>
		<use x="789.9" y="158.6" xlink:href="#c2"/>
		<use x="845.6" y="142.1" xlink:href="#c2"/>
		<use x="648.8" y="208.9" xlink:href="#c2"/>
		<use x="681.6" y="140.3" xlink:href="#c2"/>
		<use x="779.6" y="200.7" xlink:href="#c2"/>
		<use x="765.6" y="227.6" xlink:href="#c2"/>
		<use x="802.3" y="224.8" xlink:href="#c2"/>
		<use x="703.3" y="240" xlink:href="#c2"/>
		<use x="783.9" y="190.3" xlink:href="#c2"/>
		<use x="698.8" y="202.6" xlink:href="#c2"/>
		<use x="782.1" y="168.7" xlink:href="#c2"/>
		<use x="833.8" y="176.6" xlink:href="#c2"/>
		<use x="767.7" y="225.5" xlink:href="#c2"/>
		<use x="679.1" y="254.6" xlink:href="#c2"/>
		<use x="726.6" y="218.1" xlink:href="#c2"/>
		<use x="752.7" y="163.1" xlink:href="#c2"/>
		<use x="704" y="255.7" xlink:href="#c2"/>
		<use x="726.2" y="196.2" xlink:href="#c2"/>
		<use x="660.1" y="203.6" xlink:href="#c2"/>
		<use x="824.6" y="205.3" xlink:href="#c2"/>
		<use x="704.7" y="209.9" xlink:href="#c2"/>
		<use x="745.4" y="185.8" xlink:href="#c2"/>
		<use x="704.2" y="272.6" xlink:href="#c2"/>
		<use x="671.9" y="248" xlink:href="#c2"/>
		<use x="741.5" y="270.4" xlink:href="#c2"/>
		<use x="623.6" y="166.4" xlink:href="#c2"/>
		<use x="835.6" y="144.1" xlink:href="#c2"/>
		<use x="690.7" y="266.2" xlink:href="#c2"/>
		<use x="660.4" y="229.5" xlink:href="#c2"/>
		<use x="801.6" y="217.6" xlink:href="#c2"/>
		<use x="715" y="231.1" xlink:href="#c2"/>
		<use x="768.9" y="213.2" xlink:href="#c2"/>
		<use x="772.8" y="225.5" xlink:href="#c2"/>
		<use x="744.6" y="150.3" xlink:href="#c2"/>
		<use x="787.3" y="229.9" xlink:href="#c2"/>
		<use x="802.6" y="204.9" xlink:href="#c2"/>
		<use x="696.3" y="94.9" xlink:href="#c2"/>
		<use x="735.3" y="222.1" xlink:href="#c2"/>
	</g>
	<g font-family="sans-serif" font-size="10">
		<g text-anchor="middle">
			<text x="214.171" y="398.998">−1</text>
			<text x="303.468" y="399.018">0</text>
			<text x="392.158" y="398.997">1</text>
		</g>
		<g text-anchor="middle">
			<text x="626.287" y="338.831">−1</text>
			<text x="671.257" y="351.651">0</text>
			<text x="713.622" y="364.761">1</text>
		</g>
		<g text-anchor="end">
			<text x="118.208" y="305.086">−1</text>
			<text x="118.208" y="222.01">0</text>
			<text x="118.208" y="138.794">1</text>
		</g>
		<text x="805.667" y="349.791">−1</text>
		<text x="833.015" y="327.521">0</text>
		<text x="854.108" y="306.701">1</text>
		<text x="879.188" y="272.25">0</text>
		<text x="881.063" y="225.563">2</text>
		<text x="883.125" y="177.75">4</text>
	</g>
</svg>
