<?xml version="1.0" encoding="UTF-8"?>
<svg xmlns="http://www.w3.org/2000/svg" xmlns:xlink="http://www.w3.org/1999/xlink" width="306pt" height="229pt" viewBox="0 0 306 229" version="1.1">
<defs>
<clipPath id="clip1">
  <path d="M 154 9 L 297.398438 9 L 297.398438 139 L 154 139 Z M 154 9 "/>
</clipPath>
<clipPath id="clip2">
  <path d="M 109 9 L 297.398438 9 L 297.398438 176 L 109 176 Z M 109 9 "/>
</clipPath>
<clipPath id="clip3">
  <path d="M 75 9 L 171 9 L 171 182.25 L 75 182.25 Z M 75 9 "/>
</clipPath>
<clipPath id="clip4">
  <path d="M 53.273438 89 L 122 89 L 122 182.25 L 53.273438 182.25 Z M 53.273438 89 "/>
</clipPath>
<clipPath id="clip5">
  <path d="M 53.273438 146 L 86 146 L 86 182.25 L 53.273438 182.25 Z M 53.273438 146 "/>
</clipPath>
<clipPath id="clip6">
  <path d="M 53.273438 180 L 56 180 L 56 182.25 L 53.273438 182.25 Z M 53.273438 180 "/>
</clipPath>
</defs>
<g id="surface1">
<rect x="0" y="0" width="306" height="229" style="fill:rgb(100%,100%,100%);fill-opacity:1;stroke:none;"/>
<path style=" stroke:none;fill-rule:nonzero;fill:rgb(100%,100%,100%);fill-opacity:1;" d="M 53.273438 182.25 L 297.402344 182.25 L 297.402344 9 L 53.273438 9 Z M 53.273438 182.25 "/>
<path style="fill:none;stroke-width:0.8;stroke-linecap:butt;stroke-linejoin:round;stroke:rgb(0%,0%,0%);stroke-opacity:1;stroke-miterlimit:4;" d="M 0.000001 0 L 0.000001 3.5 " transform="matrix(1.25,0,0,1.25,110.492186,182.25)"/>
<path style=" stroke:none;fill-rule:nonzero;fill:rgb(0%,0%,0%);fill-opacity:1;" d="M 102.601562 196.0625 L 110.425781 196.0625 L 110.425781 197.097656 L 102.601562 197.097656 Z M 102.601562 196.0625 "/>
<path style=" stroke:none;fill-rule:nonzero;fill:rgb(0%,0%,0%);fill-opacity:1;" d="M 116.476562 192.460938 L 113.363281 197.324219 L 116.476562 197.324219 Z M 116.152344 191.386719 L 117.703125 191.386719 L 117.703125 197.324219 L 119.003906 197.324219 L 119.003906 198.351562 L 117.703125 198.351562 L 117.703125 200.5 L 116.476562 200.5 L 116.476562 198.351562 L 112.363281 198.351562 L 112.363281 197.160156 Z M 116.152344 191.386719 "/>
<path style="fill:none;stroke-width:0.8;stroke-linecap:butt;stroke-linejoin:round;stroke:rgb(0%,0%,0%);stroke-opacity:1;stroke-miterlimit:4;" d="M 0.000002 0 L 0.000002 3.5 " transform="matrix(1.25,0,0,1.25,186.781247,182.25)"/>
<path style=" stroke:none;fill-rule:nonzero;fill:rgb(0%,0%,0%);fill-opacity:1;" d="M 178.890625 196.0625 L 186.714844 196.0625 L 186.714844 197.097656 L 178.890625 197.097656 Z M 178.890625 196.0625 "/>
<path style=" stroke:none;fill-rule:nonzero;fill:rgb(0%,0%,0%);fill-opacity:1;" d="M 190.4375 199.460938 L 194.742188 199.460938 L 194.742188 200.5 L 188.957031 200.5 L 188.957031 199.460938 C 189.425781 198.976562 190.0625 198.328125 190.867188 197.511719 C 191.675781 196.695312 192.183594 196.167969 192.390625 195.933594 C 192.785156 195.488281 193.0625 195.113281 193.21875 194.808594 C 193.375 194.5 193.453125 194.199219 193.453125 193.902344 C 193.453125 193.417969 193.285156 193.023438 192.945312 192.71875 C 192.605469 192.410156 192.164062 192.257812 191.617188 192.257812 C 191.230469 192.257812 190.820312 192.324219 190.390625 192.460938 C 189.964844 192.59375 189.503906 192.796875 189.015625 193.070312 L 189.015625 191.824219 C 189.511719 191.625 189.976562 191.476562 190.40625 191.375 C 190.839844 191.273438 191.234375 191.222656 191.59375 191.222656 C 192.539062 191.222656 193.289062 191.457031 193.851562 191.929688 C 194.414062 192.402344 194.691406 193.03125 194.691406 193.820312 C 194.691406 194.195312 194.621094 194.550781 194.480469 194.886719 C 194.34375 195.222656 194.085938 195.617188 193.714844 196.074219 C 193.613281 196.191406 193.292969 196.53125 192.746094 197.097656 C 192.203125 197.660156 191.433594 198.449219 190.4375 199.460938 Z M 190.4375 199.460938 "/>
<path style="fill:none;stroke-width:0.8;stroke-linecap:butt;stroke-linejoin:round;stroke:rgb(0%,0%,0%);stroke-opacity:1;stroke-miterlimit:4;" d="M 0.000003 0 L 0.000003 3.5 " transform="matrix(1.25,0,0,1.25,263.070309,182.25)"/>
<path style=" stroke:none;fill-rule:nonzero;fill:rgb(0%,0%,0%);fill-opacity:1;" d="M 263.066406 192.199219 C 262.433594 192.199219 261.953125 192.511719 261.632812 193.136719 C 261.316406 193.757812 261.15625 194.699219 261.15625 195.953125 C 261.15625 197.199219 261.316406 198.136719 261.632812 198.761719 C 261.953125 199.386719 262.433594 199.699219 263.066406 199.699219 C 263.707031 199.699219 264.183594 199.386719 264.503906 198.761719 C 264.824219 198.136719 264.984375 197.199219 264.984375 195.953125 C 264.984375 194.699219 264.824219 193.757812 264.503906 193.136719 C 264.183594 192.511719 263.707031 192.199219 263.066406 192.199219 Z M 263.066406 191.222656 C 264.089844 191.222656 264.867188 191.625 265.40625 192.433594 C 265.945312 193.242188 266.214844 194.414062 266.214844 195.953125 C 266.214844 197.484375 265.945312 198.65625 265.40625 199.464844 C 264.867188 200.273438 264.089844 200.675781 263.066406 200.675781 C 262.046875 200.675781 261.265625 200.273438 260.726562 199.464844 C 260.1875 198.65625 259.917969 197.484375 259.917969 195.953125 C 259.917969 194.414062 260.1875 193.242188 260.726562 192.433594 C 261.265625 191.625 262.046875 191.222656 263.066406 191.222656 Z M 263.066406 191.222656 "/>
<path style=" stroke:none;fill-rule:nonzero;fill:rgb(0%,0%,0%);fill-opacity:1;" d="M 174.523438 210.761719 L 172.050781 214.085938 L 174.648438 217.597656 L 173.324219 217.597656 L 171.335938 214.910156 L 169.347656 217.597656 L 168.019531 217.597656 L 170.675781 214.019531 L 168.246094 210.761719 L 169.570312 210.761719 L 171.382812 213.195312 L 173.195312 210.761719 Z M 174.523438 210.761719 "/>
<path style=" stroke:none;fill-rule:nonzero;fill:rgb(0%,0%,0%);fill-opacity:1;" d="M 176.609375 216.558594 L 178.625 216.558594 L 178.625 209.605469 L 176.433594 210.046875 L 176.433594 208.921875 L 178.613281 208.484375 L 179.84375 208.484375 L 179.84375 216.558594 L 181.859375 216.558594 L 181.859375 217.597656 L 176.609375 217.597656 Z M 176.609375 216.558594 "/>
<path style="fill:none;stroke-width:0.8;stroke-linecap:butt;stroke-linejoin:round;stroke:rgb(0%,0%,0%);stroke-opacity:1;stroke-miterlimit:4;" d="M -0.001562 0 L -3.501562 0 " transform="matrix(1.25,0,0,1.25,53.27539,182.25)"/>
<path style=" stroke:none;fill-rule:nonzero;fill:rgb(0%,0%,0%);fill-opacity:1;" d="M 27.421875 182.5625 L 35.246094 182.5625 L 35.246094 183.597656 L 27.421875 183.597656 Z M 27.421875 182.5625 "/>
<path style=" stroke:none;fill-rule:nonzero;fill:rgb(0%,0%,0%);fill-opacity:1;" d="M 41.644531 182.085938 C 42.234375 182.210938 42.695312 182.472656 43.023438 182.875 C 43.355469 183.273438 43.523438 183.765625 43.523438 184.351562 C 43.523438 185.25 43.214844 185.945312 42.59375 186.4375 C 41.976562 186.929688 41.097656 187.175781 39.957031 187.175781 C 39.578125 187.175781 39.183594 187.140625 38.777344 187.0625 C 38.375 186.988281 37.957031 186.875 37.523438 186.722656 L 37.523438 185.535156 C 37.867188 185.734375 38.238281 185.882812 38.644531 185.984375 C 39.054688 186.085938 39.480469 186.136719 39.921875 186.136719 C 40.695312 186.136719 41.285156 185.984375 41.6875 185.679688 C 42.09375 185.375 42.296875 184.933594 42.296875 184.351562 C 42.296875 183.8125 42.109375 183.394531 41.730469 183.089844 C 41.355469 182.789062 40.832031 182.636719 40.160156 182.636719 L 39.097656 182.636719 L 39.097656 181.621094 L 40.210938 181.621094 C 40.816406 181.621094 41.277344 181.5 41.601562 181.257812 C 41.921875 181.015625 42.082031 180.667969 42.082031 180.210938 C 42.082031 179.746094 41.917969 179.386719 41.585938 179.136719 C 41.253906 178.882812 40.78125 178.757812 40.160156 178.757812 C 39.824219 178.757812 39.460938 178.796875 39.074219 178.871094 C 38.6875 178.941406 38.261719 179.054688 37.796875 179.210938 L 37.796875 178.113281 C 38.265625 177.980469 38.707031 177.882812 39.113281 177.820312 C 39.523438 177.753906 39.910156 177.722656 40.269531 177.722656 C 41.207031 177.722656 41.945312 177.933594 42.492188 178.359375 C 43.035156 178.785156 43.308594 179.359375 43.308594 180.082031 C 43.308594 180.589844 43.164062 181.015625 42.875 181.363281 C 42.585938 181.710938 42.175781 181.949219 41.644531 182.085938 Z M 41.644531 182.085938 "/>
<path style="fill:none;stroke-width:0.8;stroke-linecap:butt;stroke-linejoin:round;stroke:rgb(0%,0%,0%);stroke-opacity:1;stroke-miterlimit:4;" d="M -0.001562 0.000961 L -3.501562 0.000961 " transform="matrix(1.25,0,0,1.25,53.27539,137.826924)"/>
<path style=" stroke:none;fill-rule:nonzero;fill:rgb(0%,0%,0%);fill-opacity:1;" d="M 27.421875 138.136719 L 35.246094 138.136719 L 35.246094 139.175781 L 27.421875 139.175781 Z M 27.421875 138.136719 "/>
<path style=" stroke:none;fill-rule:nonzero;fill:rgb(0%,0%,0%);fill-opacity:1;" d="M 38.96875 141.539062 L 43.273438 141.539062 L 43.273438 142.574219 L 37.488281 142.574219 L 37.488281 141.539062 C 37.953125 141.054688 38.59375 140.40625 39.398438 139.589844 C 40.207031 138.773438 40.714844 138.246094 40.921875 138.007812 C 41.316406 137.566406 41.59375 137.191406 41.75 136.882812 C 41.90625 136.578125 41.984375 136.273438 41.984375 135.976562 C 41.984375 135.492188 41.816406 135.097656 41.476562 134.792969 C 41.136719 134.488281 40.691406 134.335938 40.148438 134.335938 C 39.761719 134.335938 39.351562 134.402344 38.921875 134.535156 C 38.496094 134.671875 38.035156 134.875 37.546875 135.148438 L 37.546875 133.902344 C 38.042969 133.703125 38.507812 133.550781 38.9375 133.449219 C 39.371094 133.347656 39.765625 133.296875 40.125 133.296875 C 41.066406 133.296875 41.820312 133.535156 42.382812 134.007812 C 42.941406 134.480469 43.222656 135.109375 43.222656 135.898438 C 43.222656 136.273438 43.152344 136.628906 43.011719 136.964844 C 42.875 137.300781 42.617188 137.695312 42.246094 138.148438 C 42.144531 138.269531 41.820312 138.609375 41.277344 139.171875 C 40.730469 139.738281 39.964844 140.527344 38.96875 141.539062 Z M 38.96875 141.539062 "/>
<path style="fill:none;stroke-width:0.8;stroke-linecap:butt;stroke-linejoin:round;stroke:rgb(0%,0%,0%);stroke-opacity:1;stroke-miterlimit:4;" d="M -0.001562 -0.001204 L -3.501562 -0.001204 " transform="matrix(1.25,0,0,1.25,53.27539,93.403849)"/>
<path style=" stroke:none;fill-rule:nonzero;fill:rgb(0%,0%,0%);fill-opacity:1;" d="M 27.421875 93.714844 L 35.246094 93.714844 L 35.246094 94.753906 L 27.421875 94.753906 Z M 27.421875 93.714844 "/>
<path style=" stroke:none;fill-rule:nonzero;fill:rgb(0%,0%,0%);fill-opacity:1;" d="M 38.121094 97.117188 L 40.136719 97.117188 L 40.136719 90.164062 L 37.945312 90.601562 L 37.945312 89.480469 L 40.125 89.039062 L 41.355469 89.039062 L 41.355469 97.117188 L 43.371094 97.117188 L 43.371094 98.152344 L 38.121094 98.152344 Z M 38.121094 97.117188 "/>
<path style="fill:none;stroke-width:0.8;stroke-linecap:butt;stroke-linejoin:round;stroke:rgb(0%,0%,0%);stroke-opacity:1;stroke-miterlimit:4;" d="M -0.001562 -0.000243 L -3.501562 -0.000243 " transform="matrix(1.25,0,0,1.25,53.27539,48.980773)"/>
<path style=" stroke:none;fill-rule:nonzero;fill:rgb(0%,0%,0%);fill-opacity:1;" d="M 40.542969 45.429688 C 39.910156 45.429688 39.433594 45.742188 39.113281 46.367188 C 38.792969 46.988281 38.632812 47.929688 38.632812 49.183594 C 38.632812 50.429688 38.792969 51.367188 39.113281 51.992188 C 39.433594 52.617188 39.910156 52.929688 40.542969 52.929688 C 41.183594 52.929688 41.664062 52.617188 41.980469 51.992188 C 42.300781 51.367188 42.460938 50.429688 42.460938 49.183594 C 42.460938 47.929688 42.300781 46.988281 41.980469 46.367188 C 41.664062 45.742188 41.183594 45.429688 40.542969 45.429688 Z M 40.542969 44.453125 C 41.566406 44.453125 42.347656 44.855469 42.886719 45.664062 C 43.425781 46.472656 43.695312 47.644531 43.695312 49.183594 C 43.695312 50.714844 43.425781 51.886719 42.886719 52.695312 C 42.347656 53.503906 41.566406 53.90625 40.542969 53.90625 C 39.523438 53.90625 38.742188 53.503906 38.203125 52.695312 C 37.664062 51.886719 37.394531 50.714844 37.394531 49.183594 C 37.394531 47.644531 37.664062 46.472656 38.203125 45.664062 C 38.742188 44.855469 39.523438 44.453125 40.542969 44.453125 Z M 40.542969 44.453125 "/>
<path style=" stroke:none;fill-rule:nonzero;fill:rgb(0%,0%,0%);fill-opacity:1;" d="M 11.660156 96.4375 L 14.988281 98.914062 L 18.496094 96.3125 L 18.496094 97.636719 L 15.8125 99.625 L 18.496094 101.617188 L 18.496094 102.941406 L 14.921875 100.285156 L 11.660156 102.714844 L 11.660156 101.390625 L 14.097656 99.578125 L 11.660156 97.765625 Z M 11.660156 96.4375 "/>
<path style=" stroke:none;fill-rule:nonzero;fill:rgb(0%,0%,0%);fill-opacity:1;" d="M 17.460938 93.503906 L 17.460938 89.203125 L 18.496094 89.203125 L 18.496094 94.988281 L 17.460938 94.988281 C 16.976562 94.519531 16.328125 93.882812 15.511719 93.074219 C 14.695312 92.265625 14.167969 91.757812 13.929688 91.550781 C 13.488281 91.15625 13.113281 90.882812 12.804688 90.726562 C 12.5 90.566406 12.195312 90.488281 11.898438 90.488281 C 11.414062 90.488281 11.019531 90.660156 10.714844 91 C 10.410156 91.339844 10.257812 91.78125 10.257812 92.328125 C 10.257812 92.714844 10.324219 93.121094 10.457031 93.550781 C 10.59375 93.980469 10.796875 94.4375 11.070312 94.925781 L 9.824219 94.925781 C 9.625 94.429688 9.472656 93.96875 9.371094 93.535156 C 9.269531 93.105469 9.21875 92.707031 9.21875 92.351562 C 9.21875 91.40625 9.457031 90.652344 9.929688 90.09375 C 10.402344 89.53125 11.03125 89.25 11.820312 89.25 C 12.195312 89.25 12.550781 89.320312 12.886719 89.460938 C 13.222656 89.601562 13.617188 89.855469 14.070312 90.226562 C 14.191406 90.328125 14.53125 90.652344 15.09375 91.199219 C 15.660156 91.742188 16.449219 92.511719 17.460938 93.503906 Z M 17.460938 93.503906 "/>
<path style="fill:none;stroke-width:1.5;stroke-linecap:square;stroke-linejoin:round;stroke:rgb(100%,49.803922%,5.490196%);stroke-opacity:1;stroke-miterlimit:4;" d="M 57.878125 110.2625 L 88.39375 81.83125 L 112.80625 64.771875 L 132.3375 54.5375 L 147.959375 48.396875 L 160.459375 44.7125 L 170.459375 42.5 L 178.459375 41.175 L 184.859375 40.378125 L 189.978125 39.9 L 194.071875 39.615625 L 197.35 39.44375 L 199.971875 39.340625 L 202.06875 39.278125 L 203.746875 39.240625 L 205.0875 39.21875 L 206.1625 39.203125 L 207.021875 39.196875 L 207.70625 39.190625 L 208.25625 39.1875 L 208.696875 39.1875 " transform="matrix(1.25,0,0,1.25,0,0.000000000000014211)"/>
<path style="fill-rule:nonzero;fill:rgb(100%,49.803922%,5.490196%);fill-opacity:1;stroke-width:1;stroke-linecap:butt;stroke-linejoin:round;stroke:rgb(100%,49.803922%,5.490196%);stroke-opacity:1;stroke-miterlimit:4;" d="M 0.000000000000014211 3.000961 C 0.796875 3.000961 1.559375 2.685336 2.121875 2.122836 C 2.684375 1.557211 3 0.794711 3 0.000961 C 3 -0.795914 2.684375 -1.558414 2.121875 -2.120914 C 1.559375 -2.683414 0.796875 -2.999039 0.000000000000014211 -2.999039 C -0.796875 -2.999039 -1.559375 -2.683414 -2.121875 -2.120914 C -2.684375 -1.558414 -3 -0.795914 -3 0.000961 C -3 0.794711 -2.684375 1.557211 -2.121875 2.122836 C -1.559375 2.685336 -0.796875 3.000961 0.000000000000014211 3.000961 Z M 0.000000000000014211 3.000961 " transform="matrix(1.25,0,0,1.25,72.347656,137.826924)"/>
<path style="fill-rule:nonzero;fill:rgb(100%,49.803922%,5.490196%);fill-opacity:1;stroke-width:1;stroke-linecap:butt;stroke-linejoin:round;stroke:rgb(100%,49.803922%,5.490196%);stroke-opacity:1;stroke-miterlimit:4;" d="M 0.000001 3.000479 C 0.796876 3.000479 1.559376 2.684854 2.121876 2.122354 C 2.684376 1.559854 3.000001 0.794229 3.000001 0.000479 C 3.000001 -0.796396 2.684376 -1.558896 2.121876 -2.121396 C 1.559376 -2.683896 0.796876 -2.999521 0.000001 -2.999521 C -0.796874 -2.999521 -1.559374 -2.683896 -2.121874 -2.121396 C -2.684374 -1.558896 -2.999999 -0.796396 -2.999999 0.000479 C -2.999999 0.794229 -2.684374 1.559854 -2.121874 2.122354 C -1.559374 2.684854 -0.796874 3.000479 0.000001 3.000479 Z M 0.000001 3.000479 " transform="matrix(1.25,0,0,1.25,110.492186,102.288464)"/>
<path style="fill-rule:nonzero;fill:rgb(100%,49.803922%,5.490196%);fill-opacity:1;stroke-width:1;stroke-linecap:butt;stroke-linejoin:round;stroke:rgb(100%,49.803922%,5.490196%);stroke-opacity:1;stroke-miterlimit:4;" d="M 0.000001 2.999565 C 0.796876 2.999565 1.559376 2.68394 2.121876 2.12144 C 2.684376 1.55894 3.000001 0.79644 3.000001 -0.000435 C 3.000001 -0.794185 2.684376 -1.55981 2.121876 -2.12231 C 1.559376 -2.68481 0.796876 -3.000435 0.000001 -3.000435 C -0.796874 -3.000435 -1.559374 -2.68481 -2.121874 -2.12231 C -2.684374 -1.55981 -2.999999 -0.794185 -2.999999 -0.000435 C -2.999999 0.79644 -2.684374 1.55894 -2.121874 2.12144 C -1.559374 2.68394 -0.796874 2.999565 0.000001 2.999565 Z M 0.000001 2.999565 " transform="matrix(1.25,0,0,1.25,141.007811,80.965388)"/>
<path style="fill-rule:nonzero;fill:rgb(100%,49.803922%,5.490196%);fill-opacity:1;stroke-width:1;stroke-linecap:butt;stroke-linejoin:round;stroke:rgb(100%,49.803922%,5.490196%);stroke-opacity:1;stroke-miterlimit:4;" d="M 0.001251 3.000267 C 0.795001 3.000267 1.557501 2.684642 2.120001 2.122142 C 2.682501 1.559642 3.001251 0.797142 3.001251 0.000267 C 3.001251 -0.796608 2.682501 -1.559108 2.120001 -2.121608 C 1.557501 -2.684108 0.795001 -2.999733 0.001251 -2.999733 C -0.795624 -2.999733 -1.558124 -2.684108 -2.120624 -2.121608 C -2.683124 -1.559108 -2.998749 -0.796608 -2.998749 0.000267 C -2.998749 0.797142 -2.683124 1.559642 -2.120624 2.122142 C -1.558124 2.684642 -0.795624 3.000267 0.001251 3.000267 Z M 0.001251 3.000267 " transform="matrix(1.25,0,0,1.25,165.420311,68.171541)"/>
<path style="fill-rule:nonzero;fill:rgb(100%,49.803922%,5.490196%);fill-opacity:1;stroke-width:1;stroke-linecap:butt;stroke-linejoin:round;stroke:rgb(100%,49.803922%,5.490196%);stroke-opacity:1;stroke-miterlimit:4;" d="M -0.000873 3.000688 C 0.796002 3.000688 1.558502 2.685063 2.121002 2.122563 C 2.683502 1.560063 2.999127 0.794438 2.999127 0.000688 C 2.999127 -0.796187 2.683502 -1.558687 2.121002 -2.121187 C 1.558502 -2.683687 0.796002 -2.999312 -0.000873 -2.999312 C -0.794623 -2.999312 -1.560248 -2.683687 -2.122748 -2.121187 C -2.685248 -1.558687 -3.000873 -0.796187 -3.000873 0.000688 C -3.000873 0.794438 -2.685248 1.560063 -2.122748 2.122563 C -1.560248 2.685063 -0.794623 3.000688 -0.000873 3.000688 Z M -0.000873 3.000688 " transform="matrix(1.25,0,0,1.25,184.95031,60.495234)"/>
<path style="fill-rule:nonzero;fill:rgb(100%,49.803922%,5.490196%);fill-opacity:1;stroke-width:1;stroke-linecap:butt;stroke-linejoin:round;stroke:rgb(100%,49.803922%,5.490196%);stroke-opacity:1;stroke-miterlimit:4;" d="M -0.000073 3.000941 C 0.796802 3.000941 1.559302 2.685316 2.121802 2.122816 C 2.684302 1.557191 2.999927 0.794691 2.999927 0.000941 C 2.999927 -0.795934 2.684302 -1.558434 2.121802 -2.120934 C 1.559302 -2.683434 0.796802 -2.999059 -0.000073 -2.999059 C -0.796948 -2.999059 -1.559448 -2.683434 -2.121948 -2.120934 C -2.684448 -1.558434 -3.000073 -0.795934 -3.000073 0.000941 C -3.000073 0.794691 -2.684448 1.557191 -2.121948 2.122816 C -1.559448 2.685316 -0.796948 3.000941 -0.000073 3.000941 Z M -0.000073 3.000941 " transform="matrix(1.25,0,0,1.25,200.57431,55.889449)"/>
<path style="fill-rule:nonzero;fill:rgb(100%,49.803922%,5.490196%);fill-opacity:1;stroke-width:1;stroke-linecap:butt;stroke-linejoin:round;stroke:rgb(100%,49.803922%,5.490196%);stroke-opacity:1;stroke-miterlimit:4;" d="M 0.000567 2.999217 C 0.794317 2.999217 1.559942 2.683592 2.122442 2.121092 C 2.684942 1.558592 3.000567 0.796092 3.000567 -0.000783 C 3.000567 -0.794533 2.684942 -1.560158 2.122442 -2.122658 C 1.559942 -2.685158 0.794317 -3.000783 0.000567 -3.000783 C -0.796308 -3.000783 -1.558808 -2.685158 -2.121308 -2.122658 C -2.683808 -1.560158 -2.999433 -0.794533 -2.999433 -0.000783 C -2.999433 0.796092 -2.683808 1.558592 -2.121308 2.121092 C -1.558808 2.683592 -0.796308 2.999217 0.000567 2.999217 Z M 0.000567 2.999217 " transform="matrix(1.25,0,0,1.25,213.07351,53.125979)"/>
<path style="fill-rule:nonzero;fill:rgb(100%,49.803922%,5.490196%);fill-opacity:1;stroke-width:1;stroke-linecap:butt;stroke-linejoin:round;stroke:rgb(100%,49.803922%,5.490196%);stroke-opacity:1;stroke-miterlimit:4;" d="M 0.001079 3.000683 C 0.794829 3.000683 1.557329 2.685058 2.119829 2.122558 C 2.685454 1.560058 3.001079 0.794433 3.001079 0.000683 C 3.001079 -0.796192 2.685454 -1.558692 2.119829 -2.121192 C 1.557329 -2.683692 0.794829 -2.999317 0.001079 -2.999317 C -0.795796 -2.999317 -1.558296 -2.683692 -2.120796 -2.121192 C -2.683296 -1.558692 -2.998921 -0.796192 -2.998921 0.000683 C -2.998921 0.794433 -2.683296 1.560058 -2.120796 2.122558 C -1.558296 2.685058 -0.795796 3.000683 0.001079 3.000683 Z M 0.001079 3.000683 " transform="matrix(1.25,0,0,1.25,223.07287,51.467896)"/>
<path style="fill-rule:nonzero;fill:rgb(100%,49.803922%,5.490196%);fill-opacity:1;stroke-width:1;stroke-linecap:butt;stroke-linejoin:round;stroke:rgb(100%,49.803922%,5.490196%);stroke-opacity:1;stroke-miterlimit:4;" d="M 0.001489 2.999688 C 0.795239 2.999688 1.557739 2.684063 2.120239 2.121563 C 2.682739 1.559063 3.001489 0.796563 3.001489 -0.000312 C 3.001489 -0.794062 2.682739 -1.559687 2.120239 -2.122187 C 1.557739 -2.684687 0.795239 -3.000312 0.001489 -3.000312 C -0.795386 -3.000312 -1.557886 -2.684687 -2.120386 -2.122187 C -2.682886 -1.559687 -2.998511 -0.794062 -2.998511 -0.000312 C -2.998511 0.796563 -2.682886 1.559063 -2.120386 2.121563 C -1.557886 2.684063 -0.795386 2.999688 0.001489 2.999688 Z M 0.001489 2.999688 " transform="matrix(1.25,0,0,1.25,231.072357,50.473046)"/>
<path style="fill-rule:nonzero;fill:rgb(100%,49.803922%,5.490196%);fill-opacity:1;stroke-width:1;stroke-linecap:butt;stroke-linejoin:round;stroke:rgb(100%,49.803922%,5.490196%);stroke-opacity:1;stroke-miterlimit:4;" d="M 0.000566 2.99909 C 0.794316 2.99909 1.559941 2.683465 2.122441 2.120965 C 2.684941 1.558465 3.000566 0.795965 3.000566 -0.00091 C 3.000566 -0.79466 2.684941 -1.560285 2.122441 -2.122785 C 1.559941 -2.685285 0.794316 -3.00091 0.000566 -3.00091 C -0.796309 -3.00091 -1.558809 -2.685285 -2.121309 -2.122785 C -2.683809 -1.560285 -2.999434 -0.79466 -2.999434 -0.00091 C -2.999434 0.795965 -2.683809 1.558465 -2.121309 2.120965 C -1.558809 2.683465 -0.796309 2.99909 0.000566 2.99909 Z M 0.000566 2.99909 " transform="matrix(1.25,0,0,1.25,237.471949,49.876138)"/>
<path style="fill-rule:nonzero;fill:rgb(100%,49.803922%,5.490196%);fill-opacity:1;stroke-width:1;stroke-linecap:butt;stroke-linejoin:round;stroke:rgb(100%,49.803922%,5.490196%);stroke-opacity:1;stroke-miterlimit:4;" d="M -0.001421 3.001232 C 0.795454 3.001232 1.557954 2.682482 2.120454 2.119982 C 2.682954 1.557482 2.998579 0.794982 2.998579 0.001232 C 2.998579 -0.795643 2.682954 -1.558143 2.120454 -2.120643 C 1.557954 -2.683143 0.795454 -2.998768 -0.001421 -2.998768 C -0.795171 -2.998768 -1.557671 -2.683143 -2.120171 -2.120643 C -2.682671 -1.558143 -3.001421 -0.795643 -3.001421 0.001232 C -3.001421 0.794982 -2.682671 1.557482 -2.120171 2.119982 C -1.557671 2.682482 -0.795171 3.001232 -0.001421 3.001232 Z M -0.001421 3.001232 " transform="matrix(1.25,0,0,1.25,242.59162,49.517991)"/>
<path style="fill-rule:nonzero;fill:rgb(100%,49.803922%,5.490196%);fill-opacity:1;stroke-width:1;stroke-linecap:butt;stroke-linejoin:round;stroke:rgb(100%,49.803922%,5.490196%);stroke-opacity:1;stroke-miterlimit:4;" d="M 0.000113 3.001267 C 0.796988 3.001267 1.559488 2.682517 2.121988 2.120017 C 2.684488 1.557517 3.000113 0.795017 3.000113 0.001267 C 3.000113 -0.795608 2.684488 -1.558108 2.121988 -2.120608 C 1.559488 -2.683108 0.796988 -2.998733 0.000113 -2.998733 C -0.796762 -2.998733 -1.559262 -2.683108 -2.121762 -2.120608 C -2.684262 -1.558108 -2.999887 -0.795608 -2.999887 0.001267 C -2.999887 0.795017 -2.684262 1.557517 -2.121762 2.120017 C -1.559262 2.682517 -0.796762 3.001267 0.000113 3.001267 Z M 0.000113 3.001267 " transform="matrix(1.25,0,0,1.25,246.687359,49.303104)"/>
<path style="fill-rule:nonzero;fill:rgb(100%,49.803922%,5.490196%);fill-opacity:1;stroke-width:1;stroke-linecap:butt;stroke-linejoin:round;stroke:rgb(100%,49.803922%,5.490196%);stroke-opacity:1;stroke-miterlimit:4;" d="M 0.000716 3.001288 C 0.794466 3.001288 1.560091 2.682538 2.122591 2.120038 C 2.685091 1.557538 3.000716 0.795038 3.000716 0.001288 C 3.000716 -0.795587 2.685091 -1.558087 2.122591 -2.120587 C 1.560091 -2.683087 0.794466 -2.998712 0.000716 -2.998712 C -0.796159 -2.998712 -1.558659 -2.683087 -2.121159 -2.120587 C -2.683659 -1.558087 -2.999284 -0.795587 -2.999284 0.001288 C -2.999284 0.795038 -2.683659 1.557538 -2.121159 2.120038 C -1.558659 2.682538 -0.796159 3.001288 0.000716 3.001288 Z M 0.000716 3.001288 " transform="matrix(1.25,0,0,1.25,249.963949,49.174171)"/>
<path style="fill-rule:nonzero;fill:rgb(100%,49.803922%,5.490196%);fill-opacity:1;stroke-width:1;stroke-linecap:butt;stroke-linejoin:round;stroke:rgb(100%,49.803922%,5.490196%);stroke-opacity:1;stroke-miterlimit:4;" d="M 0.000574 3.000676 C 0.794324 3.000676 1.559949 2.685051 2.122449 2.122551 C 2.684949 1.560051 3.000574 0.794426 3.000574 0.000676 C 3.000574 -0.796199 2.684949 -1.558699 2.122449 -2.121199 C 1.559949 -2.683699 0.794324 -2.999324 0.000574 -2.999324 C -0.796301 -2.999324 -1.558801 -2.683699 -2.121301 -2.121199 C -2.683801 -1.558699 -2.999426 -0.796199 -2.999426 0.000676 C -2.999426 0.794426 -2.683801 1.560051 -2.121301 2.122551 C -1.558801 2.685051 -0.796301 3.000676 0.000574 3.000676 Z M 0.000574 3.000676 " transform="matrix(1.25,0,0,1.25,252.58522,49.096811)"/>
<path style="fill-rule:nonzero;fill:rgb(100%,49.803922%,5.490196%);fill-opacity:1;stroke-width:1;stroke-linecap:butt;stroke-linejoin:round;stroke:rgb(100%,49.803922%,5.490196%);stroke-opacity:1;stroke-miterlimit:4;" d="M 0.001084 3.000308 C 0.794834 3.000308 1.557334 2.684683 2.119834 2.122183 C 2.685459 1.559683 3.001084 0.794058 3.001084 0.000308 C 3.001084 -0.796567 2.685459 -1.559067 2.119834 -2.121567 C 1.557334 -2.684067 0.794834 -2.999692 0.001084 -2.999692 C -0.795791 -2.999692 -1.558291 -2.684067 -2.120791 -2.121567 C -2.683291 -1.559067 -2.998916 -0.796567 -2.998916 0.000308 C -2.998916 0.794058 -2.683291 1.559683 -2.120791 2.122183 C -1.558291 2.684683 -0.795791 3.000308 0.001084 3.000308 Z M 0.001084 3.000308 " transform="matrix(1.25,0,0,1.25,254.682239,49.050396)"/>
<path style="fill-rule:nonzero;fill:rgb(100%,49.803922%,5.490196%);fill-opacity:1;stroke-width:1;stroke-linecap:butt;stroke-linejoin:round;stroke:rgb(100%,49.803922%,5.490196%);stroke-opacity:1;stroke-miterlimit:4;" d="M -0.000382 3.000713 C 0.796493 3.000713 1.558993 2.685088 2.121493 2.122588 C 2.683993 1.560088 2.999618 0.794463 2.999618 0.000713 C 2.999618 -0.796162 2.683993 -1.558662 2.121493 -2.121162 C 1.558993 -2.683662 0.796493 -2.999287 -0.000382 -2.999287 C -0.794132 -2.999287 -1.559757 -2.683662 -2.122257 -2.121162 C -2.684757 -1.558662 -3.000382 -0.796162 -3.000382 0.000713 C -3.000382 0.794463 -2.684757 1.560088 -2.122257 2.122588 C -1.559757 2.685088 -0.794132 3.000713 -0.000382 3.000713 Z M -0.000382 3.000713 " transform="matrix(1.25,0,0,1.25,256.359852,49.022546)"/>
<path style="fill-rule:nonzero;fill:rgb(100%,49.803922%,5.490196%);fill-opacity:1;stroke-width:1;stroke-linecap:butt;stroke-linejoin:round;stroke:rgb(100%,49.803922%,5.490196%);stroke-opacity:1;stroke-miterlimit:4;" d="M 0.000945 2.998455 C 0.794695 2.998455 1.557195 2.68283 2.12282 2.12033 C 2.68532 1.55783 3.000945 0.79533 3.000945 -0.001545 C 3.000945 -0.795295 2.68532 -1.557795 2.12282 -2.120295 C 1.557195 -2.682795 0.794695 -3.001545 0.000945 -3.001545 C -0.79593 -3.001545 -1.55843 -2.682795 -2.12093 -2.120295 C -2.68343 -1.557795 -2.999055 -0.795295 -2.999055 -0.001545 C -2.999055 0.79533 -2.68343 1.55783 -2.12093 2.12033 C -1.55843 2.68283 -0.79593 2.998455 0.000945 2.998455 Z M 0.000945 2.998455 " transform="matrix(1.25,0,0,1.25,257.701944,49.005838)"/>
<path style="fill-rule:nonzero;fill:rgb(100%,49.803922%,5.490196%);fill-opacity:1;stroke-width:1;stroke-linecap:butt;stroke-linejoin:round;stroke:rgb(100%,49.803922%,5.490196%);stroke-opacity:1;stroke-miterlimit:4;" d="M 0.001381 3.000226 C 0.795131 3.000226 1.557631 2.684601 2.120131 2.122101 C 2.682631 1.559601 3.001381 0.797101 3.001381 0.000226 C 3.001381 -0.796649 2.682631 -1.559149 2.120131 -2.121649 C 1.557631 -2.684149 0.795131 -2.999774 0.001381 -2.999774 C -0.795494 -2.999774 -1.557994 -2.684149 -2.120494 -2.121649 C -2.682994 -1.559149 -2.998619 -0.796649 -2.998619 0.000226 C -2.998619 0.797101 -2.682994 1.559601 -2.120494 2.122101 C -1.557994 2.684601 -0.795494 3.000226 0.001381 3.000226 Z M 0.001381 3.000226 " transform="matrix(1.25,0,0,1.25,258.775617,48.995811)"/>
<path style="fill-rule:nonzero;fill:rgb(100%,49.803922%,5.490196%);fill-opacity:1;stroke-width:1;stroke-linecap:butt;stroke-linejoin:round;stroke:rgb(100%,49.803922%,5.490196%);stroke-opacity:1;stroke-miterlimit:4;" d="M -0.001394 2.998788 C 0.795481 2.998788 1.557981 2.683163 2.120481 2.120663 C 2.682981 1.558163 2.998606 0.795663 2.998606 -0.001212 C 2.998606 -0.794962 2.682981 -1.557462 2.120481 -2.119962 C 1.557981 -2.682462 0.795481 -3.001212 -0.001394 -3.001212 C -0.795144 -3.001212 -1.557644 -2.682462 -2.120144 -2.119962 C -2.682644 -1.557462 -3.001394 -0.794962 -3.001394 -0.001212 C -3.001394 0.795663 -2.682644 1.558163 -2.120144 2.120663 C -1.557644 2.683163 -0.795144 2.998788 -0.001394 2.998788 Z M -0.001394 2.998788 " transform="matrix(1.25,0,0,1.25,259.634555,48.989796)"/>
<path style="fill-rule:nonzero;fill:rgb(100%,49.803922%,5.490196%);fill-opacity:1;stroke-width:1;stroke-linecap:butt;stroke-linejoin:round;stroke:rgb(100%,49.803922%,5.490196%);stroke-opacity:1;stroke-miterlimit:4;" d="M -0.001115 2.998551 C 0.79576 2.998551 1.55826 2.682926 2.12076 2.120426 C 2.68326 1.557926 2.998885 0.795426 2.998885 -0.001449 C 2.998885 -0.795199 2.68326 -1.557699 2.12076 -2.120199 C 1.55826 -2.682699 0.79576 -3.001449 -0.001115 -3.001449 C -0.794865 -3.001449 -1.557365 -2.682699 -2.119865 -2.120199 C -2.682365 -1.557699 -3.001115 -0.795199 -3.001115 -0.001449 C -3.001115 0.795426 -2.682365 1.557926 -2.119865 2.120426 C -1.557365 2.682926 -0.794865 2.998551 -0.001115 2.998551 Z M -0.001115 2.998551 " transform="matrix(1.25,0,0,1.25,260.321706,48.986186)"/>
<path style="fill-rule:nonzero;fill:rgb(100%,49.803922%,5.490196%);fill-opacity:1;stroke-width:1;stroke-linecap:butt;stroke-linejoin:round;stroke:rgb(100%,49.803922%,5.490196%);stroke-opacity:1;stroke-miterlimit:4;" d="M -0.000267 3.000283 C 0.796608 3.000283 1.559108 2.684658 2.121608 2.122158 C 2.684108 1.559658 2.999733 0.797158 2.999733 0.000283 C 2.999733 -0.796592 2.684108 -1.559092 2.121608 -2.121592 C 1.559108 -2.684092 0.796608 -2.999717 -0.000267 -2.999717 C -0.797142 -2.999717 -1.559642 -2.684092 -2.122142 -2.121592 C -2.684642 -1.559092 -3.000267 -0.796592 -3.000267 0.000283 C -3.000267 0.797158 -2.684642 1.559658 -2.122142 2.122158 C -1.559642 2.684658 -0.797142 3.000283 -0.000267 3.000283 Z M -0.000267 3.000283 " transform="matrix(1.25,0,0,1.25,260.871427,48.984021)"/>
<g clip-path="url(#clip1)" clip-rule="nonzero">
<path style="fill:none;stroke-width:1.5;stroke-linecap:butt;stroke-linejoin:round;stroke:rgb(12.156863%,46.666667%,70.588235%);stroke-opacity:1;stroke-miterlimit:4;" d="M 237.91875 106.5625 L 237.38125 106.70625 L 234.86875 107.346875 L 231.81875 108.028125 L 228.765625 108.621875 L 225.7125 109.121875 L 222.6625 109.53125 L 219.6125 109.85 L 216.559375 110.078125 L 213.50625 110.215625 L 210.45625 110.2625 L 207.40625 110.215625 L 204.353125 110.078125 L 201.303125 109.85 L 198.25 109.53125 L 195.196875 109.121875 L 192.146875 108.621875 L 189.096875 108.028125 L 186.04375 107.346875 L 183.53125 106.70625 L 182.990625 106.5625 L 179.940625 105.65 L 176.890625 104.64375 L 173.8375 103.5375 L 172.8625 103.153125 L 170.7875 102.290625 L 167.734375 100.91875 L 165 99.6 L 164.68125 99.4375 L 161.63125 97.76875 L 158.671875 96.046875 L 158.578125 95.9875 L 155.528125 93.98125 L 153.384375 92.49375 L 152.478125 91.81875 L 149.425 89.428125 L 148.828125 88.9375 L 146.375 86.765625 L 144.884375 85.384375 L 143.321875 83.821875 L 141.421875 81.83125 L 140.26875 80.51875 L 138.3875 78.278125 L 137.21875 76.753125 L 135.725 74.721875 L 134.165625 72.384375 L 133.390625 71.16875 L 131.35625 67.615625 L 131.115625 67.140625 L 129.61875 64.0625 L 128.121875 60.50625 L 128.0625 60.346875 L 126.9 56.953125 L 125.9 53.4 L 125.125 49.846875 L 125.0125 49.134375 L 124.584375 46.29375 L 124.2625 42.7375 L 124.15625 39.184375 L 124.2625 35.63125 L 124.584375 32.078125 L 125.0125 29.234375 L 125.125 28.521875 L 125.9 24.96875 L 126.9 21.415625 L 128.0625 18.021875 L 128.121875 17.8625 L 129.61875 14.30625 L 131.115625 11.228125 L 131.35625 10.753125 L 133.390625 7.2 " transform="matrix(1.25,0,0,1.25,0,0.000000000000014211)"/>
</g>
<g clip-path="url(#clip2)" clip-rule="nonzero">
<path style="fill:none;stroke-width:1.5;stroke-linecap:butt;stroke-linejoin:round;stroke:rgb(12.156863%,46.666667%,70.588235%);stroke-opacity:1;stroke-miterlimit:4;" d="M 237.91875 137.109375 L 234.86875 137.659375 L 231.81875 138.14375 L 228.765625 138.5625 L 227.65625 138.69375 L 225.7125 138.909375 L 222.6625 139.190625 L 219.6125 139.409375 L 216.559375 139.565625 L 213.50625 139.659375 L 210.45625 139.690625 L 207.40625 139.659375 L 204.353125 139.565625 L 201.303125 139.409375 L 198.25 139.190625 L 195.196875 138.909375 L 193.25625 138.69375 L 192.146875 138.5625 L 189.096875 138.14375 L 186.04375 137.659375 L 182.990625 137.109375 L 179.940625 136.496875 L 176.890625 135.815625 L 174.103125 135.1375 L 173.8375 135.071875 L 170.7875 134.234375 L 167.734375 133.328125 L 164.68125 132.35625 L 162.41875 131.584375 L 161.63125 131.30625 L 158.578125 130.15625 L 155.528125 128.9375 L 153.384375 128.03125 L 152.478125 127.63125 L 149.425 126.21875 L 146.375 124.73125 L 145.878125 124.478125 L 143.321875 123.115625 L 140.26875 121.415625 L 139.425 120.921875 L 137.21875 119.58125 L 134.165625 117.646875 L 133.746875 117.36875 L 131.115625 115.55 L 128.696875 113.815625 L 128.0625 113.3375 L 125.0125 110.95625 L 124.15625 110.2625 L 121.9625 108.39375 L 120.046875 106.70625 L 118.909375 105.65 L 116.309375 103.153125 L 115.859375 102.696875 L 112.903125 99.6 L 112.80625 99.49375 L 109.803125 96.046875 L 109.75625 95.9875 L 106.975 92.49375 L 106.703125 92.125 L 104.403125 88.9375 L 103.65 87.81875 L 102.0625 85.384375 L 100.6 82.96875 L 99.93125 81.83125 L 98.009375 78.278125 L 97.55 77.346875 L 96.2875 74.721875 L 94.740625 71.16875 L 94.496875 70.540625 L 93.3875 67.615625 L 92.196875 64.0625 L 91.44375 61.465625 L 91.175 60.50625 L 90.325 56.953125 L 89.63125 53.4 L 89.0875 49.846875 L 88.703125 46.29375 L 88.471875 42.7375 L 88.39375 39.184375 L 88.471875 35.63125 L 88.703125 32.078125 L 89.0875 28.521875 L 89.63125 24.96875 L 90.325 21.415625 L 91.175 17.8625 L 91.44375 16.90625 L 92.196875 14.30625 L 93.3875 10.753125 L 94.496875 7.828125 L 94.740625 7.2 " transform="matrix(1.25,0,0,1.25,0,0.000000000000014211)"/>
</g>
<g clip-path="url(#clip3)" clip-rule="nonzero">
<path style="fill:none;stroke-width:1.5;stroke-linecap:butt;stroke-linejoin:round;stroke:rgb(12.156863%,46.666667%,70.588235%);stroke-opacity:1;stroke-miterlimit:4;" d="M 135.725 145.8 L 134.165625 145.046875 L 131.115625 143.5125 L 128.696875 142.246875 L 128.0625 141.903125 L 125.0125 140.1875 L 122.44375 138.69375 L 121.9625 138.4 L 118.909375 136.496875 L 116.809375 135.1375 L 115.859375 134.5 L 112.80625 132.390625 L 111.678125 131.584375 L 109.75625 130.15625 L 106.975 128.03125 L 106.703125 127.8125 L 103.65 125.3125 L 102.6625 124.478125 L 100.6 122.6625 L 98.678125 120.921875 L 97.55 119.85625 L 94.984375 117.36875 L 94.496875 116.871875 L 91.565625 113.815625 L 91.44375 113.684375 L 88.39375 110.2625 L 85.45625 106.70625 L 85.34375 106.5625 L 82.73125 103.153125 L 82.290625 102.54375 L 80.209375 99.6 L 79.2375 98.146875 L 77.871875 96.046875 L 76.1875 93.29375 L 75.70625 92.49375 L 73.71875 88.9375 L 73.134375 87.81875 L 71.89375 85.384375 L 70.21875 81.83125 L 70.084375 81.521875 L 68.70625 78.278125 L 67.328125 74.721875 L 67.034375 73.88125 L 66.1 71.16875 L 65.009375 67.615625 L 64.046875 64.0625 L 63.98125 63.7875 L 63.225 60.50625 L 62.534375 56.953125 L 61.96875 53.4 L 61.528125 49.846875 L 61.2125 46.29375 L 61.025 42.7375 L 60.9625 39.184375 L 61.025 35.63125 L 61.2125 32.078125 L 61.528125 28.521875 L 61.96875 24.96875 L 62.534375 21.415625 L 63.225 17.8625 L 63.98125 14.58125 L 64.046875 14.30625 L 65.009375 10.753125 L 66.1 7.2 " transform="matrix(1.25,0,0,1.25,0,0.000000000000014211)"/>
</g>
<g clip-path="url(#clip4)" clip-rule="nonzero">
<path style="fill:none;stroke-width:1.5;stroke-linecap:butt;stroke-linejoin:round;stroke:rgb(12.156863%,46.666667%,70.588235%);stroke-opacity:1;stroke-miterlimit:4;" d="M 96.2875 145.8 L 94.496875 144.475 L 91.565625 142.246875 L 91.44375 142.153125 L 88.39375 139.690625 L 87.1875 138.69375 L 85.34375 137.109375 L 83.1 135.1375 L 82.290625 134.4 L 79.275 131.584375 L 79.2375 131.55 L 76.1875 128.51875 L 75.70625 128.03125 L 73.134375 125.3125 L 72.365625 124.478125 L 70.084375 121.90625 L 69.23125 120.921875 L 67.034375 118.278125 L 66.29375 117.36875 L 63.98125 114.39375 L 63.540625 113.815625 L 60.9625 110.2625 L 60.928125 110.215625 L 58.55625 106.70625 L 57.878125 105.65 L 56.30625 103.153125 L 54.828125 100.665625 L 54.203125 99.6 L 52.25 96.046875 L 51.775 95.128125 L 50.4375 92.49375 L 48.753125 88.9375 L 48.721875 88.871875 L 47.2125 85.384375 L 45.7875 81.83125 L 45.671875 81.521875 L 44.496875 78.278125 L 43.31875 74.721875 L 42.61875 72.384375 " transform="matrix(1.25,0,0,1.25,0,0.000000000000014211)"/>
</g>
<g clip-path="url(#clip5)" clip-rule="nonzero">
<path style="fill:none;stroke-width:1.5;stroke-linecap:butt;stroke-linejoin:round;stroke:rgb(12.156863%,46.666667%,70.588235%);stroke-opacity:1;stroke-miterlimit:4;" d="M 67.328125 145.8 L 67.034375 145.528125 L 63.98125 142.66875 L 63.540625 142.246875 L 60.928125 139.659375 L 59.975 138.69375 L 57.878125 136.496875 L 56.609375 135.1375 L 54.828125 133.159375 L 53.434375 131.584375 L 51.775 129.634375 L 50.4375 128.03125 L 48.721875 125.890625 L 47.6125 124.478125 L 45.671875 121.90625 L 44.94375 120.921875 L 42.61875 117.646875 " transform="matrix(1.25,0,0,1.25,0,0.000000000000014211)"/>
</g>
<g clip-path="url(#clip6)" clip-rule="nonzero">
<path style="fill:none;stroke-width:1.5;stroke-linecap:butt;stroke-linejoin:round;stroke:rgb(12.156863%,46.666667%,70.588235%);stroke-opacity:1;stroke-miterlimit:4;" d="M 43.31875 145.8 L 42.61875 145.046875 " transform="matrix(1.25,0,0,1.25,0,0.000000000000014211)"/>
</g>
<path style="fill:none;stroke-width:0.8;stroke-linecap:square;stroke-linejoin:miter;stroke:rgb(0%,0%,0%);stroke-opacity:1;stroke-miterlimit:4;" d="M 42.61875 145.8 L 42.61875 7.2 " transform="matrix(1.25,0,0,1.25,0,0.000000000000014211)"/>
<path style="fill:none;stroke-width:0.8;stroke-linecap:square;stroke-linejoin:miter;stroke:rgb(0%,0%,0%);stroke-opacity:1;stroke-miterlimit:4;" d="M 237.921875 145.8 L 237.921875 7.2 " transform="matrix(1.25,0,0,1.25,0,0.000000000000014211)"/>
<path style="fill:none;stroke-width:0.8;stroke-linecap:square;stroke-linejoin:miter;stroke:rgb(0%,0%,0%);stroke-opacity:1;stroke-miterlimit:4;" d="M 42.61875 145.8 L 237.91875 145.8 " transform="matrix(1.25,0,0,1.25,0,0.000000000000014211)"/>
<path style="fill:none;stroke-width:0.8;stroke-linecap:square;stroke-linejoin:miter;stroke:rgb(0%,0%,0%);stroke-opacity:1;stroke-miterlimit:4;" d="M 42.61875 7.2 L 237.91875 7.2 " transform="matrix(1.25,0,0,1.25,0,0.000000000000014211)"/>
</g>
</svg>
