<?xml version="1.0" encoding="UTF-8"?>
<svg xmlns="http://www.w3.org/2000/svg" xmlns:xlink="http://www.w3.org/1999/xlink" width="293pt" height="229pt" viewBox="0 0 293 229" version="1.1">
<defs>
<filter id="alpha" filterUnits="objectBoundingBox" x="0%" y="0%" width="100%" height="100%">
  <feColorMatrix type="matrix" in="SourceGraphic" values="0 0 0 0 1 0 0 0 0 1 0 0 0 0 1 0 0 0 1 0"/>
</filter>
<mask id="mask0">
  <g filter="url(#alpha)">
<rect x="0" y="0" width="293" height="229" style="fill:rgb(0%,0%,0%);fill-opacity:0.8;stroke:none;"/>
  </g>
</mask>
<clipPath id="clip1">
  <rect x="0" y="0" width="293" height="229"/>
</clipPath>
<g id="surface5" clip-path="url(#clip1)">
<path style="fill-rule:nonzero;fill:rgb(100%,100%,100%);fill-opacity:1;stroke-width:1;stroke-linecap:butt;stroke-linejoin:miter;stroke:rgb(80%,80%,80%);stroke-opacity:1;stroke-miterlimit:4;" d="M 126.85 73.9125 L 218.403125 73.9125 C 219.7375 73.9125 220.403125 73.246875 220.403125 71.9125 L 220.403125 14.2 C 220.403125 12.865625 219.7375 12.2 218.403125 12.2 L 126.85 12.2 C 125.51875 12.2 124.85 12.865625 124.85 14.2 L 124.85 71.9125 C 124.85 73.246875 125.51875 73.9125 126.85 73.9125 Z M 126.85 73.9125 " transform="matrix(1.25,0,0,1.25,0,0)"/>
</g>
</defs>
<g id="surface1">
<rect x="0" y="0" width="293" height="229" style="fill:rgb(100%,100%,100%);fill-opacity:1;stroke:none;"/>
<path style=" stroke:none;fill-rule:nonzero;fill:rgb(100%,100%,100%);fill-opacity:1;" d="M 37.628906 182.25 L 281.753906 182.25 L 281.753906 9 L 37.628906 9 Z M 37.628906 182.25 "/>
<path style="fill:none;stroke-width:0.8;stroke-linecap:butt;stroke-linejoin:round;stroke:rgb(0%,0%,0%);stroke-opacity:1;stroke-miterlimit:4;" d="M 0.000852 0 L 0.000852 3.5 " transform="matrix(1.25,0,0,1.25,48.725497,182.25)"/>
<path style=" stroke:none;fill-rule:nonzero;fill:rgb(0%,0%,0%);fill-opacity:1;" d="M 48.722656 192.199219 C 48.085938 192.199219 47.609375 192.511719 47.289062 193.136719 C 46.972656 193.757812 46.8125 194.699219 46.8125 195.953125 C 46.8125 197.199219 46.972656 198.136719 47.289062 198.761719 C 47.609375 199.386719 48.085938 199.699219 48.722656 199.699219 C 49.359375 199.699219 49.839844 199.386719 50.160156 198.761719 C 50.480469 198.136719 50.640625 197.199219 50.640625 195.953125 C 50.640625 194.699219 50.480469 193.757812 50.160156 193.136719 C 49.839844 192.511719 49.359375 192.199219 48.722656 192.199219 Z M 48.722656 191.222656 C 49.742188 191.222656 50.523438 191.625 51.0625 192.433594 C 51.601562 193.242188 51.871094 194.414062 51.871094 195.953125 C 51.871094 197.484375 51.601562 198.65625 51.0625 199.464844 C 50.523438 200.273438 49.742188 200.675781 48.722656 200.675781 C 47.699219 200.675781 46.921875 200.273438 46.382812 199.464844 C 45.84375 198.65625 45.574219 197.484375 45.574219 195.953125 C 45.574219 194.414062 45.84375 193.242188 46.382812 192.433594 C 46.921875 191.625 47.699219 191.222656 48.722656 191.222656 Z M 48.722656 191.222656 "/>
<path style="fill:none;stroke-width:0.8;stroke-linecap:butt;stroke-linejoin:round;stroke:rgb(0%,0%,0%);stroke-opacity:1;stroke-miterlimit:4;" d="M 0.001377 0 L 0.001377 3.5 " transform="matrix(1.25,0,0,1.25,105.631091,182.25)"/>
<path style=" stroke:none;fill-rule:nonzero;fill:rgb(0%,0%,0%);fill-opacity:1;" d="M 99.230469 199.460938 L 101.242188 199.460938 L 101.242188 192.507812 L 99.050781 192.949219 L 99.050781 191.824219 L 101.230469 191.386719 L 102.464844 191.386719 L 102.464844 199.460938 L 104.476562 199.460938 L 104.476562 200.5 L 99.230469 200.5 Z M 99.230469 199.460938 "/>
<path style=" stroke:none;fill-rule:nonzero;fill:rgb(0%,0%,0%);fill-opacity:1;" d="M 109.601562 192.199219 C 108.96875 192.199219 108.492188 192.511719 108.171875 193.136719 C 107.851562 193.757812 107.691406 194.699219 107.691406 195.953125 C 107.691406 197.199219 107.851562 198.136719 108.171875 198.761719 C 108.492188 199.386719 108.96875 199.699219 109.601562 199.699219 C 110.242188 199.699219 110.722656 199.386719 111.039062 198.761719 C 111.359375 198.136719 111.519531 197.199219 111.519531 195.953125 C 111.519531 194.699219 111.359375 193.757812 111.039062 193.136719 C 110.722656 192.511719 110.242188 192.199219 109.601562 192.199219 Z M 109.601562 191.222656 C 110.625 191.222656 111.40625 191.625 111.945312 192.433594 C 112.484375 193.242188 112.753906 194.414062 112.753906 195.953125 C 112.753906 197.484375 112.484375 198.65625 111.945312 199.464844 C 111.40625 200.273438 110.625 200.675781 109.601562 200.675781 C 108.582031 200.675781 107.800781 200.273438 107.261719 199.464844 C 106.722656 198.65625 106.453125 197.484375 106.453125 195.953125 C 106.453125 194.414062 106.722656 193.242188 107.261719 192.433594 C 107.800781 191.625 108.582031 191.222656 109.601562 191.222656 Z M 109.601562 191.222656 "/>
<path style="fill:none;stroke-width:0.8;stroke-linecap:butt;stroke-linejoin:round;stroke:rgb(0%,0%,0%);stroke-opacity:1;stroke-miterlimit:4;" d="M -0.001224 0 L -0.001224 3.5 " transform="matrix(1.25,0,0,1.25,162.536686,182.25)"/>
<path style=" stroke:none;fill-rule:nonzero;fill:rgb(0%,0%,0%);fill-opacity:1;" d="M 156.980469 199.460938 L 161.285156 199.460938 L 161.285156 200.5 L 155.5 200.5 L 155.5 199.460938 C 155.96875 198.976562 156.605469 198.328125 157.410156 197.511719 C 158.21875 196.695312 158.726562 196.167969 158.933594 195.933594 C 159.328125 195.488281 159.605469 195.113281 159.761719 194.808594 C 159.917969 194.5 159.996094 194.199219 159.996094 193.902344 C 159.996094 193.417969 159.828125 193.023438 159.488281 192.71875 C 159.148438 192.410156 158.707031 192.257812 158.160156 192.257812 C 157.773438 192.257812 157.363281 192.324219 156.933594 192.460938 C 156.507812 192.59375 156.046875 192.796875 155.558594 193.070312 L 155.558594 191.824219 C 156.054688 191.625 156.519531 191.476562 156.949219 191.375 C 157.382812 191.273438 157.777344 191.222656 158.136719 191.222656 C 159.082031 191.222656 159.832031 191.457031 160.394531 191.929688 C 160.957031 192.402344 161.234375 193.03125 161.234375 193.820312 C 161.234375 194.195312 161.164062 194.550781 161.023438 194.886719 C 160.886719 195.222656 160.628906 195.617188 160.257812 196.074219 C 160.15625 196.191406 159.835938 196.53125 159.289062 197.097656 C 158.746094 197.660156 157.976562 198.449219 156.980469 199.460938 Z M 156.980469 199.460938 "/>
<path style=" stroke:none;fill-rule:nonzero;fill:rgb(0%,0%,0%);fill-opacity:1;" d="M 166.507812 192.199219 C 165.875 192.199219 165.398438 192.511719 165.078125 193.136719 C 164.757812 193.757812 164.597656 194.699219 164.597656 195.953125 C 164.597656 197.199219 164.757812 198.136719 165.078125 198.761719 C 165.398438 199.386719 165.875 199.699219 166.507812 199.699219 C 167.148438 199.699219 167.628906 199.386719 167.945312 198.761719 C 168.265625 198.136719 168.425781 197.199219 168.425781 195.953125 C 168.425781 194.699219 168.265625 193.757812 167.945312 193.136719 C 167.628906 192.511719 167.148438 192.199219 166.507812 192.199219 Z M 166.507812 191.222656 C 167.53125 191.222656 168.3125 191.625 168.851562 192.433594 C 169.390625 193.242188 169.660156 194.414062 169.660156 195.953125 C 169.660156 197.484375 169.390625 198.65625 168.851562 199.464844 C 168.3125 200.273438 167.53125 200.675781 166.507812 200.675781 C 165.488281 200.675781 164.707031 200.273438 164.167969 199.464844 C 163.628906 198.65625 163.359375 197.484375 163.359375 195.953125 C 163.359375 194.414062 163.628906 193.242188 164.167969 192.433594 C 164.707031 191.625 165.488281 191.222656 166.507812 191.222656 Z M 166.507812 191.222656 "/>
<path style="fill:none;stroke-width:0.8;stroke-linecap:butt;stroke-linejoin:round;stroke:rgb(0%,0%,0%);stroke-opacity:1;stroke-miterlimit:4;" d="M -0.000699 0 L -0.000699 3.5 " transform="matrix(1.25,0,0,1.25,219.44228,182.25)"/>
<path style=" stroke:none;fill-rule:nonzero;fill:rgb(0%,0%,0%);fill-opacity:1;" d="M 216.5625 195.585938 C 217.152344 195.710938 217.613281 195.972656 217.941406 196.375 C 218.273438 196.773438 218.441406 197.265625 218.441406 197.851562 C 218.441406 198.75 218.132812 199.445312 217.511719 199.9375 C 216.894531 200.429688 216.015625 200.675781 214.875 200.675781 C 214.496094 200.675781 214.101562 200.636719 213.695312 200.5625 C 213.292969 200.488281 212.875 200.375 212.441406 200.222656 L 212.441406 199.035156 C 212.785156 199.234375 213.15625 199.382812 213.5625 199.484375 C 213.972656 199.585938 214.398438 199.636719 214.839844 199.636719 C 215.613281 199.636719 216.203125 199.484375 216.605469 199.179688 C 217.011719 198.875 217.214844 198.433594 217.214844 197.851562 C 217.214844 197.3125 217.027344 196.890625 216.648438 196.589844 C 216.273438 196.285156 215.75 196.136719 215.078125 196.136719 L 214.015625 196.136719 L 214.015625 195.121094 L 215.128906 195.121094 C 215.734375 195.121094 216.195312 195 216.519531 194.757812 C 216.839844 194.515625 217 194.167969 217 193.710938 C 217 193.242188 216.835938 192.886719 216.503906 192.636719 C 216.171875 192.382812 215.699219 192.257812 215.078125 192.257812 C 214.742188 192.257812 214.378906 192.296875 213.992188 192.371094 C 213.605469 192.441406 213.179688 192.554688 212.714844 192.710938 L 212.714844 191.613281 C 213.183594 191.480469 213.625 191.382812 214.03125 191.320312 C 214.441406 191.253906 214.828125 191.222656 215.1875 191.222656 C 216.125 191.222656 216.863281 191.433594 217.410156 191.859375 C 217.953125 192.285156 218.226562 192.859375 218.226562 193.582031 C 218.226562 194.085938 218.082031 194.515625 217.792969 194.863281 C 217.503906 195.210938 217.09375 195.449219 216.5625 195.585938 Z M 216.5625 195.585938 "/>
<path style=" stroke:none;fill-rule:nonzero;fill:rgb(0%,0%,0%);fill-opacity:1;" d="M 223.414062 192.199219 C 222.78125 192.199219 222.304688 192.511719 221.984375 193.136719 C 221.664062 193.757812 221.503906 194.699219 221.503906 195.953125 C 221.503906 197.199219 221.664062 198.136719 221.984375 198.761719 C 222.304688 199.386719 222.78125 199.699219 223.414062 199.699219 C 224.054688 199.699219 224.53125 199.386719 224.851562 198.761719 C 225.171875 198.136719 225.332031 197.199219 225.332031 195.953125 C 225.332031 194.699219 225.171875 193.757812 224.851562 193.136719 C 224.53125 192.511719 224.054688 192.199219 223.414062 192.199219 Z M 223.414062 191.222656 C 224.4375 191.222656 225.21875 191.625 225.757812 192.433594 C 226.296875 193.242188 226.566406 194.414062 226.566406 195.953125 C 226.566406 197.484375 226.296875 198.65625 225.757812 199.464844 C 225.21875 200.273438 224.4375 200.675781 223.414062 200.675781 C 222.394531 200.675781 221.613281 200.273438 221.074219 199.464844 C 220.535156 198.65625 220.265625 197.484375 220.265625 195.953125 C 220.265625 194.414062 220.535156 193.242188 221.074219 192.433594 C 221.613281 191.625 222.394531 191.222656 223.414062 191.222656 Z M 223.414062 191.222656 "/>
<path style="fill:none;stroke-width:0.8;stroke-linecap:butt;stroke-linejoin:round;stroke:rgb(0%,0%,0%);stroke-opacity:1;stroke-miterlimit:4;" d="M -0.000175 0 L -0.000175 3.5 " transform="matrix(1.25,0,0,1.25,276.347875,182.25)"/>
<path style=" stroke:none;fill-rule:nonzero;fill:rgb(0%,0%,0%);fill-opacity:1;" d="M 273.121094 192.460938 L 270.007812 197.324219 L 273.121094 197.324219 Z M 272.796875 191.386719 L 274.347656 191.386719 L 274.347656 197.324219 L 275.648438 197.324219 L 275.648438 198.351562 L 274.347656 198.351562 L 274.347656 200.5 L 273.121094 200.5 L 273.121094 198.351562 L 269.007812 198.351562 L 269.007812 197.160156 Z M 272.796875 191.386719 "/>
<path style=" stroke:none;fill-rule:nonzero;fill:rgb(0%,0%,0%);fill-opacity:1;" d="M 280.320312 192.199219 C 279.6875 192.199219 279.207031 192.511719 278.886719 193.136719 C 278.570312 193.757812 278.410156 194.699219 278.410156 195.953125 C 278.410156 197.199219 278.570312 198.136719 278.886719 198.761719 C 279.207031 199.386719 279.6875 199.699219 280.320312 199.699219 C 280.960938 199.699219 281.4375 199.386719 281.757812 198.761719 C 282.078125 198.136719 282.238281 197.199219 282.238281 195.953125 C 282.238281 194.699219 282.078125 193.757812 281.757812 193.136719 C 281.4375 192.511719 280.960938 192.199219 280.320312 192.199219 Z M 280.320312 191.222656 C 281.34375 191.222656 282.121094 191.625 282.660156 192.433594 C 283.199219 193.242188 283.46875 194.414062 283.46875 195.953125 C 283.46875 197.484375 283.199219 198.65625 282.660156 199.464844 C 282.121094 200.273438 281.34375 200.675781 280.320312 200.675781 C 279.300781 200.675781 278.519531 200.273438 277.980469 199.464844 C 277.441406 198.65625 277.171875 197.484375 277.171875 195.953125 C 277.171875 194.414062 277.441406 193.242188 277.980469 192.433594 C 278.519531 191.625 279.300781 191.222656 280.320312 191.222656 Z M 280.320312 191.222656 "/>
<path style=" stroke:none;fill-rule:nonzero;fill:rgb(0%,0%,0%);fill-opacity:1;" d="M 147.859375 208.820312 L 147.859375 210.761719 L 150.171875 210.761719 L 150.171875 211.632812 L 147.859375 211.632812 L 147.859375 215.34375 C 147.859375 215.902344 147.9375 216.257812 148.089844 216.417969 C 148.242188 216.578125 148.550781 216.65625 149.019531 216.65625 L 150.171875 216.65625 L 150.171875 217.597656 L 149.019531 217.597656 C 148.152344 217.597656 147.554688 217.433594 147.226562 217.113281 C 146.894531 216.789062 146.730469 216.199219 146.730469 215.34375 L 146.730469 211.632812 L 145.90625 211.632812 L 145.90625 210.761719 L 146.730469 210.761719 L 146.730469 208.820312 Z M 147.859375 208.820312 "/>
<path style=" stroke:none;fill-rule:nonzero;fill:rgb(0%,0%,0%);fill-opacity:1;" d="M 151.648438 210.761719 L 152.773438 210.761719 L 152.773438 217.597656 L 151.648438 217.597656 Z M 151.648438 208.097656 L 152.773438 208.097656 L 152.773438 209.523438 L 151.648438 209.523438 Z M 151.648438 208.097656 "/>
<path style=" stroke:none;fill-rule:nonzero;fill:rgb(0%,0%,0%);fill-opacity:1;" d="M 160.445312 212.074219 C 160.726562 211.566406 161.0625 211.195312 161.453125 210.957031 C 161.84375 210.714844 162.304688 210.597656 162.832031 210.597656 C 163.542969 210.597656 164.09375 210.84375 164.480469 211.34375 C 164.867188 211.839844 165.058594 212.550781 165.058594 213.46875 L 165.058594 217.597656 L 163.929688 217.597656 L 163.929688 213.507812 C 163.929688 212.851562 163.816406 212.367188 163.582031 212.050781 C 163.351562 211.730469 162.996094 211.574219 162.519531 211.574219 C 161.9375 211.574219 161.480469 211.765625 161.140625 212.152344 C 160.804688 212.539062 160.632812 213.066406 160.632812 213.734375 L 160.632812 217.597656 L 159.503906 217.597656 L 159.503906 213.507812 C 159.503906 212.847656 159.390625 212.359375 159.15625 212.046875 C 158.925781 211.730469 158.566406 211.574219 158.082031 211.574219 C 157.507812 211.574219 157.054688 211.765625 156.714844 212.15625 C 156.378906 212.542969 156.207031 213.070312 156.207031 213.734375 L 156.207031 217.597656 L 155.078125 217.597656 L 155.078125 210.761719 L 156.207031 210.761719 L 156.207031 211.824219 C 156.464844 211.402344 156.773438 211.09375 157.128906 210.894531 C 157.488281 210.695312 157.914062 210.597656 158.40625 210.597656 C 158.902344 210.597656 159.324219 210.722656 159.671875 210.976562 C 160.019531 211.226562 160.277344 211.59375 160.445312 212.074219 Z M 160.445312 212.074219 "/>
<path style=" stroke:none;fill-rule:nonzero;fill:rgb(0%,0%,0%);fill-opacity:1;" d="M 173.148438 213.898438 L 173.148438 214.445312 L 167.984375 214.445312 C 168.03125 215.21875 168.265625 215.808594 168.683594 216.214844 C 169.097656 216.617188 169.679688 216.820312 170.425781 216.820312 C 170.855469 216.820312 171.273438 216.769531 171.679688 216.664062 C 172.082031 216.558594 172.484375 216.398438 172.886719 216.1875 L 172.886719 217.25 C 172.480469 217.417969 172.070312 217.550781 171.644531 217.640625 C 171.222656 217.730469 170.792969 217.773438 170.359375 217.773438 C 169.265625 217.773438 168.402344 217.457031 167.765625 216.824219 C 167.128906 216.1875 166.8125 215.328125 166.8125 214.246094 C 166.8125 213.125 167.113281 212.238281 167.71875 211.582031 C 168.320312 210.925781 169.136719 210.597656 170.164062 210.597656 C 171.082031 210.597656 171.808594 210.890625 172.34375 211.484375 C 172.878906 212.074219 173.148438 212.878906 173.148438 213.898438 Z M 172.023438 213.566406 C 172.015625 212.953125 171.84375 212.464844 171.507812 212.097656 C 171.171875 211.730469 170.726562 211.546875 170.175781 211.546875 C 169.546875 211.546875 169.046875 211.722656 168.671875 212.078125 C 168.292969 212.433594 168.078125 212.929688 168.019531 213.574219 Z M 172.023438 213.566406 "/>
<path style="fill:none;stroke-width:0.8;stroke-linecap:butt;stroke-linejoin:round;stroke:rgb(0%,0%,0%);stroke-opacity:1;stroke-miterlimit:4;" d="M 0.000000000000007105 0 L -3.5 0 " transform="matrix(1.25,0,0,1.25,37.628906,174.375)"/>
<path style=" stroke:none;fill-rule:nonzero;fill:rgb(0%,0%,0%);fill-opacity:1;" d="M 12.972656 170.824219 C 12.339844 170.824219 11.859375 171.136719 11.539062 171.761719 C 11.222656 172.382812 11.0625 173.324219 11.0625 174.578125 C 11.0625 175.824219 11.222656 176.761719 11.539062 177.386719 C 11.859375 178.011719 12.339844 178.324219 12.972656 178.324219 C 13.613281 178.324219 14.089844 178.011719 14.410156 177.386719 C 14.730469 176.761719 14.890625 175.824219 14.890625 174.578125 C 14.890625 173.324219 14.730469 172.382812 14.410156 171.761719 C 14.089844 171.136719 13.613281 170.824219 12.972656 170.824219 Z M 12.972656 169.847656 C 13.996094 169.847656 14.773438 170.25 15.3125 171.058594 C 15.851562 171.867188 16.121094 173.039062 16.121094 174.578125 C 16.121094 176.109375 15.851562 177.28125 15.3125 178.089844 C 14.773438 178.898438 13.996094 179.300781 12.972656 179.300781 C 11.953125 179.300781 11.171875 178.898438 10.632812 178.089844 C 10.09375 177.28125 9.824219 176.109375 9.824219 174.578125 C 9.824219 173.039062 10.09375 171.867188 10.632812 171.058594 C 11.171875 170.25 11.953125 169.847656 12.972656 169.847656 Z M 12.972656 169.847656 "/>
<path style=" stroke:none;fill-rule:nonzero;fill:rgb(0%,0%,0%);fill-opacity:1;" d="M 18.289062 177.574219 L 19.578125 177.574219 L 19.578125 179.125 L 18.289062 179.125 Z M 18.289062 177.574219 "/>
<path style=" stroke:none;fill-rule:nonzero;fill:rgb(0%,0%,0%);fill-opacity:1;" d="M 24.898438 170.824219 C 24.265625 170.824219 23.789062 171.136719 23.46875 171.761719 C 23.148438 172.382812 22.988281 173.324219 22.988281 174.578125 C 22.988281 175.824219 23.148438 176.761719 23.46875 177.386719 C 23.789062 178.011719 24.265625 178.324219 24.898438 178.324219 C 25.539062 178.324219 26.015625 178.011719 26.335938 177.386719 C 26.65625 176.761719 26.816406 175.824219 26.816406 174.578125 C 26.816406 173.324219 26.65625 172.382812 26.335938 171.761719 C 26.015625 171.136719 25.539062 170.824219 24.898438 170.824219 Z M 24.898438 169.847656 C 25.921875 169.847656 26.703125 170.25 27.242188 171.058594 C 27.78125 171.867188 28.050781 173.039062 28.050781 174.578125 C 28.050781 176.109375 27.78125 177.28125 27.242188 178.089844 C 26.703125 178.898438 25.921875 179.300781 24.898438 179.300781 C 23.878906 179.300781 23.097656 178.898438 22.558594 178.089844 C 22.019531 177.28125 21.75 176.109375 21.75 174.578125 C 21.75 173.039062 22.019531 171.867188 22.558594 171.058594 C 23.097656 170.25 23.878906 169.847656 24.898438 169.847656 Z M 24.898438 169.847656 "/>
<path style="fill:none;stroke-width:0.8;stroke-linecap:butt;stroke-linejoin:round;stroke:rgb(0%,0%,0%);stroke-opacity:1;stroke-miterlimit:4;" d="M 0.000000000000007105 0 L -3.5 0 " transform="matrix(1.25,0,0,1.25,37.628906,142.875)"/>
<path style=" stroke:none;fill-rule:nonzero;fill:rgb(0%,0%,0%);fill-opacity:1;" d="M 12.972656 139.324219 C 12.339844 139.324219 11.859375 139.636719 11.539062 140.261719 C 11.222656 140.882812 11.0625 141.824219 11.0625 143.078125 C 11.0625 144.324219 11.222656 145.261719 11.539062 145.886719 C 11.859375 146.511719 12.339844 146.824219 12.972656 146.824219 C 13.613281 146.824219 14.089844 146.511719 14.410156 145.886719 C 14.730469 145.261719 14.890625 144.324219 14.890625 143.078125 C 14.890625 141.824219 14.730469 140.882812 14.410156 140.261719 C 14.089844 139.636719 13.613281 139.324219 12.972656 139.324219 Z M 12.972656 138.347656 C 13.996094 138.347656 14.773438 138.75 15.3125 139.558594 C 15.851562 140.367188 16.121094 141.539062 16.121094 143.078125 C 16.121094 144.609375 15.851562 145.78125 15.3125 146.589844 C 14.773438 147.398438 13.996094 147.800781 12.972656 147.800781 C 11.953125 147.800781 11.171875 147.398438 10.632812 146.589844 C 10.09375 145.78125 9.824219 144.609375 9.824219 143.078125 C 9.824219 141.539062 10.09375 140.367188 10.632812 139.558594 C 11.171875 138.75 11.953125 138.347656 12.972656 138.347656 Z M 12.972656 138.347656 "/>
<path style=" stroke:none;fill-rule:nonzero;fill:rgb(0%,0%,0%);fill-opacity:1;" d="M 18.289062 146.074219 L 19.578125 146.074219 L 19.578125 147.625 L 18.289062 147.625 Z M 18.289062 146.074219 "/>
<path style=" stroke:none;fill-rule:nonzero;fill:rgb(0%,0%,0%);fill-opacity:1;" d="M 23.324219 146.585938 L 27.628906 146.585938 L 27.628906 147.625 L 21.84375 147.625 L 21.84375 146.585938 C 22.308594 146.101562 22.945312 145.453125 23.753906 144.636719 C 24.5625 143.820312 25.070312 143.292969 25.277344 143.058594 C 25.671875 142.613281 25.949219 142.238281 26.105469 141.933594 C 26.261719 141.625 26.339844 141.324219 26.339844 141.027344 C 26.339844 140.542969 26.171875 140.148438 25.832031 139.84375 C 25.492188 139.535156 25.046875 139.382812 24.503906 139.382812 C 24.117188 139.382812 23.707031 139.449219 23.277344 139.585938 C 22.847656 139.71875 22.390625 139.921875 21.902344 140.195312 L 21.902344 138.949219 C 22.398438 138.75 22.863281 138.601562 23.292969 138.5 C 23.726562 138.398438 24.121094 138.347656 24.480469 138.347656 C 25.421875 138.347656 26.175781 138.582031 26.738281 139.054688 C 27.296875 139.527344 27.578125 140.15625 27.578125 140.945312 C 27.578125 141.320312 27.507812 141.675781 27.367188 142.011719 C 27.226562 142.347656 26.972656 142.742188 26.601562 143.199219 C 26.5 143.316406 26.175781 143.65625 25.632812 144.222656 C 25.085938 144.785156 24.316406 145.574219 23.324219 146.585938 Z M 23.324219 146.585938 "/>
<path style="fill:none;stroke-width:0.8;stroke-linecap:butt;stroke-linejoin:round;stroke:rgb(0%,0%,0%);stroke-opacity:1;stroke-miterlimit:4;" d="M 0.000000000000007105 0 L -3.5 0 " transform="matrix(1.25,0,0,1.25,37.628906,111.375)"/>
<path style=" stroke:none;fill-rule:nonzero;fill:rgb(0%,0%,0%);fill-opacity:1;" d="M 12.972656 107.824219 C 12.339844 107.824219 11.859375 108.136719 11.539062 108.761719 C 11.222656 109.382812 11.0625 110.324219 11.0625 111.578125 C 11.0625 112.824219 11.222656 113.761719 11.539062 114.386719 C 11.859375 115.011719 12.339844 115.324219 12.972656 115.324219 C 13.613281 115.324219 14.089844 115.011719 14.410156 114.386719 C 14.730469 113.761719 14.890625 112.824219 14.890625 111.578125 C 14.890625 110.324219 14.730469 109.382812 14.410156 108.761719 C 14.089844 108.136719 13.613281 107.824219 12.972656 107.824219 Z M 12.972656 106.847656 C 13.996094 106.847656 14.773438 107.25 15.3125 108.058594 C 15.851562 108.867188 16.121094 110.039062 16.121094 111.578125 C 16.121094 113.109375 15.851562 114.28125 15.3125 115.089844 C 14.773438 115.898438 13.996094 116.300781 12.972656 116.300781 C 11.953125 116.300781 11.171875 115.898438 10.632812 115.089844 C 10.09375 114.28125 9.824219 113.109375 9.824219 111.578125 C 9.824219 110.039062 10.09375 108.867188 10.632812 108.058594 C 11.171875 107.25 11.953125 106.847656 12.972656 106.847656 Z M 12.972656 106.847656 "/>
<path style=" stroke:none;fill-rule:nonzero;fill:rgb(0%,0%,0%);fill-opacity:1;" d="M 18.289062 114.574219 L 19.578125 114.574219 L 19.578125 116.125 L 18.289062 116.125 Z M 18.289062 114.574219 "/>
<path style=" stroke:none;fill-rule:nonzero;fill:rgb(0%,0%,0%);fill-opacity:1;" d="M 25.652344 108.085938 L 22.539062 112.949219 L 25.652344 112.949219 Z M 25.328125 107.011719 L 26.878906 107.011719 L 26.878906 112.949219 L 28.179688 112.949219 L 28.179688 113.976562 L 26.878906 113.976562 L 26.878906 116.125 L 25.652344 116.125 L 25.652344 113.976562 L 21.539062 113.976562 L 21.539062 112.785156 Z M 25.328125 107.011719 "/>
<path style="fill:none;stroke-width:0.8;stroke-linecap:butt;stroke-linejoin:round;stroke:rgb(0%,0%,0%);stroke-opacity:1;stroke-miterlimit:4;" d="M 0.000000000000007105 0 L -3.5 0 " transform="matrix(1.25,0,0,1.25,37.628906,79.875)"/>
<path style=" stroke:none;fill-rule:nonzero;fill:rgb(0%,0%,0%);fill-opacity:1;" d="M 12.972656 76.324219 C 12.339844 76.324219 11.859375 76.636719 11.539062 77.261719 C 11.222656 77.882812 11.0625 78.824219 11.0625 80.078125 C 11.0625 81.324219 11.222656 82.261719 11.539062 82.886719 C 11.859375 83.511719 12.339844 83.824219 12.972656 83.824219 C 13.613281 83.824219 14.089844 83.511719 14.410156 82.886719 C 14.730469 82.261719 14.890625 81.324219 14.890625 80.078125 C 14.890625 78.824219 14.730469 77.882812 14.410156 77.261719 C 14.089844 76.636719 13.613281 76.324219 12.972656 76.324219 Z M 12.972656 75.347656 C 13.996094 75.347656 14.773438 75.75 15.3125 76.558594 C 15.851562 77.367188 16.121094 78.539062 16.121094 80.078125 C 16.121094 81.609375 15.851562 82.78125 15.3125 83.589844 C 14.773438 84.398438 13.996094 84.800781 12.972656 84.800781 C 11.953125 84.800781 11.171875 84.398438 10.632812 83.589844 C 10.09375 82.78125 9.824219 81.609375 9.824219 80.078125 C 9.824219 78.539062 10.09375 77.367188 10.632812 76.558594 C 11.171875 75.75 11.953125 75.347656 12.972656 75.347656 Z M 12.972656 75.347656 "/>
<path style=" stroke:none;fill-rule:nonzero;fill:rgb(0%,0%,0%);fill-opacity:1;" d="M 18.289062 83.074219 L 19.578125 83.074219 L 19.578125 84.625 L 18.289062 84.625 Z M 18.289062 83.074219 "/>
<path style=" stroke:none;fill-rule:nonzero;fill:rgb(0%,0%,0%);fill-opacity:1;" d="M 25.054688 79.578125 C 24.5 79.578125 24.0625 79.765625 23.738281 80.144531 C 23.414062 80.523438 23.253906 81.042969 23.253906 81.699219 C 23.253906 82.355469 23.414062 82.875 23.738281 83.253906 C 24.0625 83.636719 24.5 83.824219 25.054688 83.824219 C 25.605469 83.824219 26.042969 83.636719 26.367188 83.253906 C 26.691406 82.875 26.851562 82.355469 26.851562 81.699219 C 26.851562 81.042969 26.691406 80.523438 26.367188 80.144531 C 26.042969 79.765625 25.605469 79.578125 25.054688 79.578125 Z M 27.5 75.710938 L 27.5 76.835938 C 27.191406 76.6875 26.878906 76.578125 26.5625 76.5 C 26.246094 76.421875 25.933594 76.382812 25.625 76.382812 C 24.8125 76.382812 24.191406 76.660156 23.761719 77.207031 C 23.332031 77.757812 23.085938 78.585938 23.027344 79.699219 C 23.265625 79.34375 23.566406 79.074219 23.929688 78.882812 C 24.292969 78.695312 24.691406 78.601562 25.125 78.601562 C 26.039062 78.601562 26.765625 78.878906 27.296875 79.433594 C 27.828125 79.988281 28.09375 80.746094 28.09375 81.699219 C 28.09375 82.636719 27.816406 83.386719 27.261719 83.953125 C 26.707031 84.519531 25.972656 84.800781 25.054688 84.800781 C 24 84.800781 23.191406 84.398438 22.636719 83.589844 C 22.078125 82.78125 21.800781 81.609375 21.800781 80.078125 C 21.800781 78.636719 22.140625 77.488281 22.824219 76.632812 C 23.507812 75.773438 24.425781 75.347656 25.578125 75.347656 C 25.886719 75.347656 26.199219 75.378906 26.515625 75.4375 C 26.828125 75.5 27.15625 75.589844 27.5 75.710938 Z M 27.5 75.710938 "/>
<path style="fill:none;stroke-width:0.8;stroke-linecap:butt;stroke-linejoin:round;stroke:rgb(0%,0%,0%);stroke-opacity:1;stroke-miterlimit:4;" d="M 0.000000000000007105 0 L -3.5 0 " transform="matrix(1.25,0,0,1.25,37.628906,48.375)"/>
<path style=" stroke:none;fill-rule:nonzero;fill:rgb(0%,0%,0%);fill-opacity:1;" d="M 12.972656 44.824219 C 12.339844 44.824219 11.859375 45.136719 11.539062 45.761719 C 11.222656 46.382812 11.0625 47.324219 11.0625 48.578125 C 11.0625 49.824219 11.222656 50.761719 11.539062 51.386719 C 11.859375 52.011719 12.339844 52.324219 12.972656 52.324219 C 13.613281 52.324219 14.089844 52.011719 14.410156 51.386719 C 14.730469 50.761719 14.890625 49.824219 14.890625 48.578125 C 14.890625 47.324219 14.730469 46.382812 14.410156 45.761719 C 14.089844 45.136719 13.613281 44.824219 12.972656 44.824219 Z M 12.972656 43.847656 C 13.996094 43.847656 14.773438 44.25 15.3125 45.058594 C 15.851562 45.867188 16.121094 47.039062 16.121094 48.578125 C 16.121094 50.109375 15.851562 51.28125 15.3125 52.089844 C 14.773438 52.898438 13.996094 53.300781 12.972656 53.300781 C 11.953125 53.300781 11.171875 52.898438 10.632812 52.089844 C 10.09375 51.28125 9.824219 50.109375 9.824219 48.578125 C 9.824219 47.039062 10.09375 45.867188 10.632812 45.058594 C 11.171875 44.25 11.953125 43.847656 12.972656 43.847656 Z M 12.972656 43.847656 "/>
<path style=" stroke:none;fill-rule:nonzero;fill:rgb(0%,0%,0%);fill-opacity:1;" d="M 18.289062 51.574219 L 19.578125 51.574219 L 19.578125 53.125 L 18.289062 53.125 Z M 18.289062 51.574219 "/>
<path style=" stroke:none;fill-rule:nonzero;fill:rgb(0%,0%,0%);fill-opacity:1;" d="M 24.898438 48.796875 C 24.3125 48.796875 23.851562 48.953125 23.515625 49.265625 C 23.179688 49.582031 23.015625 50.011719 23.015625 50.558594 C 23.015625 51.109375 23.179688 51.539062 23.515625 51.855469 C 23.851562 52.167969 24.3125 52.324219 24.898438 52.324219 C 25.484375 52.324219 25.945312 52.167969 26.285156 51.851562 C 26.621094 51.535156 26.792969 51.105469 26.792969 50.558594 C 26.792969 50.011719 26.625 49.582031 26.289062 49.265625 C 25.953125 48.953125 25.488281 48.796875 24.898438 48.796875 Z M 23.667969 48.273438 C 23.136719 48.140625 22.726562 47.894531 22.429688 47.535156 C 22.136719 47.171875 21.988281 46.730469 21.988281 46.207031 C 21.988281 45.480469 22.246094 44.90625 22.765625 44.480469 C 23.285156 44.058594 23.996094 43.847656 24.898438 43.847656 C 25.804688 43.847656 26.519531 44.058594 27.035156 44.480469 C 27.550781 44.90625 27.8125 45.480469 27.8125 46.207031 C 27.8125 46.730469 27.664062 47.171875 27.367188 47.535156 C 27.074219 47.894531 26.664062 48.140625 26.140625 48.273438 C 26.734375 48.410156 27.195312 48.679688 27.527344 49.085938 C 27.859375 49.488281 28.023438 49.980469 28.023438 50.558594 C 28.023438 51.445312 27.753906 52.121094 27.214844 52.59375 C 26.675781 53.066406 25.902344 53.300781 24.898438 53.300781 C 23.894531 53.300781 23.121094 53.066406 22.582031 52.59375 C 22.042969 52.121094 21.773438 51.445312 21.773438 50.558594 C 21.773438 49.980469 21.941406 49.488281 22.273438 49.085938 C 22.609375 48.679688 23.074219 48.410156 23.667969 48.273438 Z M 23.214844 46.324219 C 23.214844 46.796875 23.363281 47.164062 23.65625 47.429688 C 23.953125 47.691406 24.367188 47.824219 24.898438 47.824219 C 25.429688 47.824219 25.84375 47.691406 26.140625 47.429688 C 26.441406 47.164062 26.589844 46.796875 26.589844 46.324219 C 26.589844 45.851562 26.441406 45.484375 26.140625 45.21875 C 25.84375 44.957031 25.429688 44.824219 24.898438 44.824219 C 24.367188 44.824219 23.953125 44.957031 23.65625 45.21875 C 23.363281 45.484375 23.214844 45.851562 23.214844 46.324219 Z M 23.214844 46.324219 "/>
<path style="fill:none;stroke-width:0.8;stroke-linecap:butt;stroke-linejoin:round;stroke:rgb(0%,0%,0%);stroke-opacity:1;stroke-miterlimit:4;" d="M 0.000000000000007105 0 L -3.5 0 " transform="matrix(1.25,0,0,1.25,37.628906,16.875)"/>
<path style=" stroke:none;fill-rule:nonzero;fill:rgb(0%,0%,0%);fill-opacity:1;" d="M 10.550781 20.585938 L 12.5625 20.585938 L 12.5625 13.632812 L 10.371094 14.074219 L 10.371094 12.949219 L 12.550781 12.511719 L 13.785156 12.511719 L 13.785156 20.585938 L 15.796875 20.585938 L 15.796875 21.625 L 10.550781 21.625 Z M 10.550781 20.585938 "/>
<path style=" stroke:none;fill-rule:nonzero;fill:rgb(0%,0%,0%);fill-opacity:1;" d="M 18.289062 20.074219 L 19.578125 20.074219 L 19.578125 21.625 L 18.289062 21.625 Z M 18.289062 20.074219 "/>
<path style=" stroke:none;fill-rule:nonzero;fill:rgb(0%,0%,0%);fill-opacity:1;" d="M 24.898438 13.324219 C 24.265625 13.324219 23.789062 13.636719 23.46875 14.261719 C 23.148438 14.882812 22.988281 15.824219 22.988281 17.078125 C 22.988281 18.324219 23.148438 19.261719 23.46875 19.886719 C 23.789062 20.511719 24.265625 20.824219 24.898438 20.824219 C 25.539062 20.824219 26.015625 20.511719 26.335938 19.886719 C 26.65625 19.261719 26.816406 18.324219 26.816406 17.078125 C 26.816406 15.824219 26.65625 14.882812 26.335938 14.261719 C 26.015625 13.636719 25.539062 13.324219 24.898438 13.324219 Z M 24.898438 12.347656 C 25.921875 12.347656 26.703125 12.75 27.242188 13.558594 C 27.78125 14.367188 28.050781 15.539062 28.050781 17.078125 C 28.050781 18.609375 27.78125 19.78125 27.242188 20.589844 C 26.703125 21.398438 25.921875 21.800781 24.898438 21.800781 C 23.878906 21.800781 23.097656 21.398438 22.558594 20.589844 C 22.019531 19.78125 21.75 18.609375 21.75 17.078125 C 21.75 15.539062 22.019531 14.367188 22.558594 13.558594 C 23.097656 12.75 23.878906 12.347656 24.898438 12.347656 Z M 24.898438 12.347656 "/>
<path style="fill:none;stroke-width:1.5;stroke-linecap:square;stroke-linejoin:round;stroke:rgb(12.156863%,46.666667%,70.588235%);stroke-opacity:1;stroke-miterlimit:4;" d="M 38.98125 13.5 L 43.534375 19.8 L 48.084375 25.784375 L 52.6375 31.471875 L 57.190625 36.871875 L 61.74375 42.003125 L 66.29375 46.878125 L 70.846875 51.509375 L 75.4 55.909375 L 79.953125 60.0875 L 84.50625 64.059375 L 89.05625 67.83125 L 93.609375 71.415625 L 98.1625 74.81875 L 102.715625 78.053125 L 107.265625 81.125 L 111.81875 84.04375 L 116.371875 86.815625 L 120.925 89.45 L 125.478125 91.953125 L 130.028125 94.33125 L 134.58125 96.590625 L 139.134375 98.734375 L 143.6875 100.771875 L 148.240625 102.709375 L 152.790625 104.55 L 157.34375 106.296875 L 161.896875 107.95625 L 166.45 109.534375 L 171 111.03125 L 175.553125 112.45625 L 180.10625 113.80625 L 184.659375 115.09375 L 189.2125 116.3125 L 193.7625 117.471875 L 198.315625 118.575 L 202.86875 119.61875 L 207.421875 120.6125 L 211.971875 121.559375 L 216.525 122.45625 " transform="matrix(1.25,0,0,1.25,0,0)"/>
<path style="fill:none;stroke-width:1.5;stroke-linecap:square;stroke-linejoin:round;stroke:rgb(100%,49.803922%,5.490196%);stroke-opacity:1;stroke-miterlimit:4;" d="M 38.98125 13.5 L 43.534375 26.1 L 48.084375 37.440625 L 52.6375 47.646875 L 57.190625 56.83125 L 61.74375 65.096875 L 66.29375 72.5375 L 70.846875 79.234375 L 75.4 85.2625 L 79.953125 90.684375 L 84.50625 95.565625 L 89.05625 99.959375 L 93.609375 103.9125 L 98.1625 107.471875 L 102.715625 110.675 L 107.265625 113.55625 L 111.81875 116.153125 L 116.371875 118.4875 L 120.925 120.5875 L 125.478125 122.478125 L 130.028125 124.18125 L 134.58125 125.7125 L 139.134375 127.090625 L 143.6875 128.33125 L 148.240625 129.45 L 152.790625 130.453125 L 157.34375 131.359375 L 161.896875 132.171875 L 166.45 132.90625 L 171 133.565625 L 175.553125 134.159375 L 180.10625 134.69375 L 184.659375 135.175 L 189.2125 135.60625 L 193.7625 135.996875 L 198.315625 136.346875 L 202.86875 136.6625 L 207.421875 136.94375 L 211.971875 137.2 L 216.525 137.43125 " transform="matrix(1.25,0,0,1.25,0,0)"/>
<path style="fill:none;stroke-width:1.5;stroke-linecap:square;stroke-linejoin:round;stroke:rgb(17.254902%,62.745098%,17.254902%);stroke-opacity:1;stroke-miterlimit:4;" d="M 38.98125 13.5 L 43.534375 63.9 L 48.084375 94.140625 L 52.6375 112.284375 L 57.190625 123.171875 L 61.74375 129.703125 L 66.29375 133.621875 L 70.846875 135.971875 L 75.4 137.384375 L 79.953125 138.23125 L 84.50625 138.7375 L 89.05625 139.04375 L 93.609375 139.225 L 98.1625 139.334375 L 102.715625 139.4 L 107.265625 139.440625 L 111.81875 139.465625 L 116.371875 139.478125 L 120.925 139.4875 L 125.478125 139.49375 L 130.028125 139.496875 L 139.134375 139.496875 L 143.6875 139.5 L 216.525 139.5 " transform="matrix(1.25,0,0,1.25,0,0)"/>
<path style="fill:none;stroke-width:1.5;stroke-linecap:square;stroke-linejoin:round;stroke:rgb(83.921569%,15.294118%,15.686275%);stroke-opacity:1;stroke-miterlimit:4;" d="M 38.98125 13.5 L 43.534375 139.5 L 216.525 139.5 " transform="matrix(1.25,0,0,1.25,0,0)"/>
<path style="fill:none;stroke-width:0.8;stroke-linecap:square;stroke-linejoin:miter;stroke:rgb(0%,0%,0%);stroke-opacity:1;stroke-miterlimit:4;" d="M 30.103125 145.8 L 30.103125 7.2 " transform="matrix(1.25,0,0,1.25,0,0)"/>
<path style="fill:none;stroke-width:0.8;stroke-linecap:square;stroke-linejoin:miter;stroke:rgb(0%,0%,0%);stroke-opacity:1;stroke-miterlimit:4;" d="M 225.403125 145.8 L 225.403125 7.2 " transform="matrix(1.25,0,0,1.25,0,0)"/>
<path style="fill:none;stroke-width:0.8;stroke-linecap:square;stroke-linejoin:miter;stroke:rgb(0%,0%,0%);stroke-opacity:1;stroke-miterlimit:4;" d="M 30.103125 145.8 L 225.403125 145.8 " transform="matrix(1.25,0,0,1.25,0,0)"/>
<path style="fill:none;stroke-width:0.8;stroke-linecap:square;stroke-linejoin:miter;stroke:rgb(0%,0%,0%);stroke-opacity:1;stroke-miterlimit:4;" d="M 30.103125 7.2 L 225.403125 7.2 " transform="matrix(1.25,0,0,1.25,0,0)"/>
<use xlink:href="#surface5" mask="url(#mask0)"/>
<path style="fill:none;stroke-width:1.5;stroke-linecap:square;stroke-linejoin:round;stroke:rgb(12.156863%,46.666667%,70.588235%);stroke-opacity:1;stroke-miterlimit:4;" d="M 128.85 20.3 L 148.85 20.3 " transform="matrix(1.25,0,0,1.25,0,0)"/>
<path style=" stroke:none;fill-rule:nonzero;fill:rgb(0%,0%,0%);fill-opacity:1;" d="M 202.148438 26.335938 C 202.148438 25.511719 201.980469 24.863281 201.640625 24.394531 C 201.300781 23.921875 200.832031 23.6875 200.238281 23.6875 C 199.644531 23.6875 199.175781 23.921875 198.835938 24.394531 C 198.496094 24.863281 198.328125 25.511719 198.328125 26.335938 C 198.328125 27.160156 198.496094 27.808594 198.835938 28.28125 C 199.175781 28.75 199.644531 28.984375 200.238281 28.984375 C 200.832031 28.984375 201.300781 28.75 201.640625 28.28125 C 201.980469 27.808594 202.148438 27.160156 202.148438 26.335938 Z M 198.328125 23.949219 C 198.566406 23.542969 198.863281 23.242188 199.222656 23.046875 C 199.582031 22.847656 200.011719 22.75 200.511719 22.75 C 201.34375 22.75 202.019531 23.078125 202.535156 23.738281 C 203.054688 24.394531 203.316406 25.261719 203.316406 26.335938 C 203.316406 27.410156 203.054688 28.277344 202.535156 28.9375 C 202.019531 29.597656 201.34375 29.925781 200.511719 29.925781 C 200.011719 29.925781 199.582031 29.828125 199.222656 29.628906 C 198.863281 29.429688 198.566406 29.128906 198.328125 28.722656 L 198.328125 29.75 L 197.199219 29.75 L 197.199219 20.25 L 198.328125 20.25 Z M 198.328125 23.949219 "/>
<path style=" stroke:none;fill-rule:nonzero;fill:rgb(0%,0%,0%);fill-opacity:1;" d="M 211.023438 26.050781 L 211.023438 26.597656 L 205.859375 26.597656 C 205.910156 27.371094 206.144531 27.960938 206.558594 28.367188 C 206.976562 28.769531 207.558594 28.972656 208.300781 28.972656 C 208.734375 28.972656 209.152344 28.921875 209.554688 28.816406 C 209.960938 28.710938 210.363281 28.550781 210.761719 28.339844 L 210.761719 29.402344 C 210.359375 29.570312 209.945312 29.703125 209.523438 29.792969 C 209.097656 29.882812 208.671875 29.925781 208.234375 29.925781 C 207.144531 29.925781 206.28125 29.609375 205.644531 28.976562 C 205.007812 28.339844 204.6875 27.480469 204.6875 26.398438 C 204.6875 25.277344 204.992188 24.390625 205.59375 23.734375 C 206.199219 23.078125 207.015625 22.75 208.039062 22.75 C 208.960938 22.75 209.6875 23.042969 210.222656 23.636719 C 210.757812 24.226562 211.023438 25.03125 211.023438 26.050781 Z M 209.902344 25.71875 C 209.894531 25.105469 209.722656 24.617188 209.386719 24.25 C 209.050781 23.882812 208.605469 23.699219 208.050781 23.699219 C 207.425781 23.699219 206.925781 23.875 206.546875 24.230469 C 206.171875 24.585938 205.953125 25.082031 205.898438 25.726562 Z M 209.902344 25.71875 "/>
<path style=" stroke:none;fill-rule:nonzero;fill:rgb(0%,0%,0%);fill-opacity:1;" d="M 213.976562 20.972656 L 213.976562 22.914062 L 216.289062 22.914062 L 216.289062 23.785156 L 213.976562 23.785156 L 213.976562 27.496094 C 213.976562 28.054688 214.054688 28.410156 214.207031 28.570312 C 214.359375 28.730469 214.667969 28.808594 215.136719 28.808594 L 216.289062 28.808594 L 216.289062 29.75 L 215.136719 29.75 C 214.269531 29.75 213.671875 29.585938 213.34375 29.265625 C 213.015625 28.941406 212.847656 28.351562 212.847656 27.496094 L 212.847656 23.785156 L 212.023438 23.785156 L 212.023438 22.914062 L 212.847656 22.914062 L 212.847656 20.972656 Z M 213.976562 20.972656 "/>
<path style=" stroke:none;fill-rule:nonzero;fill:rgb(0%,0%,0%);fill-opacity:1;" d="M 220.875 26.3125 C 219.96875 26.3125 219.339844 26.417969 218.988281 26.625 C 218.640625 26.832031 218.464844 27.183594 218.464844 27.6875 C 218.464844 28.085938 218.59375 28.402344 218.859375 28.636719 C 219.121094 28.867188 219.476562 28.984375 219.929688 28.984375 C 220.550781 28.984375 221.050781 28.765625 221.429688 28.324219 C 221.804688 27.882812 221.992188 27.292969 221.992188 26.5625 L 221.992188 26.3125 Z M 223.117188 25.847656 L 223.117188 29.75 L 221.992188 29.75 L 221.992188 28.710938 C 221.738281 29.125 221.417969 29.429688 221.035156 29.628906 C 220.652344 29.828125 220.183594 29.925781 219.628906 29.925781 C 218.929688 29.925781 218.375 29.730469 217.960938 29.335938 C 217.546875 28.941406 217.339844 28.417969 217.339844 27.757812 C 217.339844 26.988281 217.597656 26.410156 218.113281 26.019531 C 218.628906 25.628906 219.394531 25.433594 220.417969 25.433594 L 221.992188 25.433594 L 221.992188 25.324219 C 221.992188 24.804688 221.824219 24.40625 221.484375 24.125 C 221.144531 23.839844 220.667969 23.699219 220.050781 23.699219 C 219.660156 23.699219 219.28125 23.746094 218.910156 23.839844 C 218.539062 23.933594 218.183594 24.074219 217.84375 24.261719 L 217.84375 23.222656 C 218.253906 23.0625 218.652344 22.945312 219.039062 22.867188 C 219.425781 22.789062 219.800781 22.75 220.167969 22.75 C 221.15625 22.75 221.894531 23.003906 222.382812 23.519531 C 222.871094 24.03125 223.117188 24.804688 223.117188 25.847656 Z M 223.117188 25.847656 "/>
<path style=" stroke:none;fill-rule:nonzero;fill:rgb(0%,0%,0%);fill-opacity:1;" d="M 229.546875 24.074219 L 237.371094 24.074219 L 237.371094 25.097656 L 229.546875 25.097656 Z M 229.546875 26.5625 L 237.371094 26.5625 L 237.371094 27.601562 L 229.546875 27.601562 Z M 229.546875 26.5625 "/>
<path style=" stroke:none;fill-rule:nonzero;fill:rgb(0%,0%,0%);fill-opacity:1;" d="M 246.644531 21.449219 C 246.007812 21.449219 245.53125 21.761719 245.210938 22.386719 C 244.894531 23.007812 244.734375 23.949219 244.734375 25.203125 C 244.734375 26.449219 244.894531 27.386719 245.210938 28.011719 C 245.53125 28.636719 246.007812 28.949219 246.644531 28.949219 C 247.28125 28.949219 247.761719 28.636719 248.082031 28.011719 C 248.402344 27.386719 248.5625 26.449219 248.5625 25.203125 C 248.5625 23.949219 248.402344 23.007812 248.082031 22.386719 C 247.761719 21.761719 247.28125 21.449219 246.644531 21.449219 Z M 246.644531 20.472656 C 247.664062 20.472656 248.445312 20.875 248.984375 21.683594 C 249.523438 22.492188 249.792969 23.664062 249.792969 25.203125 C 249.792969 26.734375 249.523438 27.90625 248.984375 28.714844 C 248.445312 29.523438 247.664062 29.925781 246.644531 29.925781 C 245.621094 29.925781 244.84375 29.523438 244.304688 28.714844 C 243.765625 27.90625 243.496094 26.734375 243.496094 25.203125 C 243.496094 23.664062 243.765625 22.492188 244.304688 21.683594 C 244.84375 20.875 245.621094 20.472656 246.644531 20.472656 Z M 246.644531 20.472656 "/>
<path style=" stroke:none;fill-rule:nonzero;fill:rgb(0%,0%,0%);fill-opacity:1;" d="M 251.960938 28.199219 L 253.25 28.199219 L 253.25 29.75 L 251.960938 29.75 Z M 251.960938 28.199219 "/>
<path style=" stroke:none;fill-rule:nonzero;fill:rgb(0%,0%,0%);fill-opacity:1;" d="M 255.96875 29.558594 L 255.96875 28.4375 C 256.28125 28.582031 256.59375 28.695312 256.910156 28.773438 C 257.226562 28.847656 257.539062 28.886719 257.84375 28.886719 C 258.660156 28.886719 259.28125 28.613281 259.707031 28.066406 C 260.136719 27.519531 260.382812 26.6875 260.445312 25.574219 C 260.210938 25.921875 259.910156 26.191406 259.546875 26.378906 C 259.183594 26.566406 258.785156 26.660156 258.34375 26.660156 C 257.433594 26.660156 256.710938 26.386719 256.179688 25.835938 C 255.648438 25.28125 255.382812 24.527344 255.382812 23.570312 C 255.382812 22.636719 255.660156 21.886719 256.214844 21.320312 C 256.769531 20.753906 257.503906 20.472656 258.421875 20.472656 C 259.476562 20.472656 260.28125 20.875 260.835938 21.683594 C 261.394531 22.492188 261.671875 23.664062 261.671875 25.203125 C 261.671875 26.636719 261.332031 27.785156 260.648438 28.640625 C 259.96875 29.496094 259.050781 29.925781 257.898438 29.925781 C 257.589844 29.925781 257.277344 29.894531 256.957031 29.835938 C 256.640625 29.773438 256.3125 29.679688 255.96875 29.558594 Z M 258.421875 25.695312 C 258.976562 25.695312 259.414062 25.507812 259.738281 25.128906 C 260.0625 24.75 260.222656 24.230469 260.222656 23.570312 C 260.222656 22.914062 260.0625 22.398438 259.738281 22.019531 C 259.414062 21.636719 258.976562 21.449219 258.421875 21.449219 C 257.871094 21.449219 257.433594 21.636719 257.109375 22.019531 C 256.785156 22.398438 256.625 22.914062 256.625 23.570312 C 256.625 24.230469 256.785156 24.75 257.109375 25.128906 C 257.433594 25.507812 257.871094 25.695312 258.421875 25.695312 Z M 258.421875 25.695312 "/>
<path style=" stroke:none;fill-rule:nonzero;fill:rgb(0%,0%,0%);fill-opacity:1;" d="M 263.898438 20.636719 L 268.738281 20.636719 L 268.738281 21.675781 L 265.027344 21.675781 L 265.027344 23.90625 C 265.207031 23.84375 265.386719 23.800781 265.5625 23.769531 C 265.742188 23.738281 265.921875 23.726562 266.101562 23.726562 C 267.121094 23.726562 267.925781 24.003906 268.519531 24.5625 C 269.113281 25.117188 269.410156 25.871094 269.410156 26.824219 C 269.410156 27.804688 269.105469 28.566406 268.496094 29.113281 C 267.882812 29.65625 267.023438 29.925781 265.914062 29.925781 C 265.53125 29.925781 265.140625 29.894531 264.742188 29.828125 C 264.347656 29.761719 263.9375 29.664062 263.515625 29.535156 L 263.515625 28.296875 C 263.878906 28.496094 264.257812 28.644531 264.648438 28.742188 C 265.039062 28.839844 265.453125 28.886719 265.886719 28.886719 C 266.59375 28.886719 267.148438 28.703125 267.558594 28.332031 C 267.972656 27.960938 268.175781 27.460938 268.175781 26.824219 C 268.175781 26.191406 267.972656 25.6875 267.558594 25.320312 C 267.148438 24.949219 266.59375 24.761719 265.886719 24.761719 C 265.558594 24.761719 265.230469 24.796875 264.902344 24.871094 C 264.574219 24.945312 264.242188 25.058594 263.898438 25.214844 Z M 263.898438 20.636719 "/>
<path style="fill:none;stroke-width:1.5;stroke-linecap:square;stroke-linejoin:round;stroke:rgb(100%,49.803922%,5.490196%);stroke-opacity:1;stroke-miterlimit:4;" d="M 128.85 34.975 L 148.85 34.975 " transform="matrix(1.25,0,0,1.25,0,0)"/>
<path style=" stroke:none;fill-rule:nonzero;fill:rgb(0%,0%,0%);fill-opacity:1;" d="M 202.148438 44.683594 C 202.148438 43.859375 201.980469 43.210938 201.640625 42.738281 C 201.300781 42.269531 200.832031 42.035156 200.238281 42.035156 C 199.644531 42.035156 199.175781 42.269531 198.835938 42.738281 C 198.496094 43.210938 198.328125 43.859375 198.328125 44.683594 C 198.328125 45.507812 198.496094 46.15625 198.835938 46.625 C 199.175781 47.097656 199.644531 47.332031 200.238281 47.332031 C 200.832031 47.332031 201.300781 47.097656 201.640625 46.625 C 201.980469 46.15625 202.148438 45.507812 202.148438 44.683594 Z M 198.328125 42.296875 C 198.566406 41.890625 198.863281 41.589844 199.222656 41.390625 C 199.582031 41.195312 200.011719 41.09375 200.511719 41.09375 C 201.34375 41.09375 202.019531 41.425781 202.535156 42.082031 C 203.054688 42.742188 203.316406 43.609375 203.316406 44.683594 C 203.316406 45.757812 203.054688 46.625 202.535156 47.285156 C 202.019531 47.945312 201.34375 48.273438 200.511719 48.273438 C 200.011719 48.273438 199.582031 48.175781 199.222656 47.976562 C 198.863281 47.777344 198.566406 47.476562 198.328125 47.070312 L 198.328125 48.09375 L 197.199219 48.09375 L 197.199219 38.597656 L 198.328125 38.597656 Z M 198.328125 42.296875 "/>
<path style=" stroke:none;fill-rule:nonzero;fill:rgb(0%,0%,0%);fill-opacity:1;" d="M 211.023438 44.394531 L 211.023438 44.945312 L 205.859375 44.945312 C 205.910156 45.71875 206.144531 46.308594 206.558594 46.710938 C 206.976562 47.117188 207.558594 47.320312 208.300781 47.320312 C 208.734375 47.320312 209.152344 47.265625 209.554688 47.160156 C 209.960938 47.054688 210.363281 46.898438 210.761719 46.683594 L 210.761719 47.746094 C 210.359375 47.917969 209.945312 48.046875 209.523438 48.136719 C 209.097656 48.226562 208.671875 48.273438 208.234375 48.273438 C 207.144531 48.273438 206.28125 47.957031 205.644531 47.320312 C 205.007812 46.6875 204.6875 45.828125 204.6875 44.742188 C 204.6875 43.625 204.992188 42.738281 205.59375 42.082031 C 206.199219 41.425781 207.015625 41.09375 208.039062 41.09375 C 208.960938 41.09375 209.6875 41.390625 210.222656 41.984375 C 210.757812 42.574219 211.023438 43.378906 211.023438 44.394531 Z M 209.902344 44.066406 C 209.894531 43.453125 209.722656 42.964844 209.386719 42.597656 C 209.050781 42.230469 208.605469 42.046875 208.050781 42.046875 C 207.425781 42.046875 206.925781 42.222656 206.546875 42.578125 C 206.171875 42.933594 205.953125 43.429688 205.898438 44.074219 Z M 209.902344 44.066406 "/>
<path style=" stroke:none;fill-rule:nonzero;fill:rgb(0%,0%,0%);fill-opacity:1;" d="M 213.976562 39.316406 L 213.976562 41.257812 L 216.289062 41.257812 L 216.289062 42.132812 L 213.976562 42.132812 L 213.976562 45.84375 C 213.976562 46.402344 214.054688 46.757812 214.207031 46.917969 C 214.359375 47.078125 214.667969 47.15625 215.136719 47.15625 L 216.289062 47.15625 L 216.289062 48.09375 L 215.136719 48.09375 C 214.269531 48.09375 213.671875 47.933594 213.34375 47.609375 C 213.015625 47.285156 212.847656 46.699219 212.847656 45.84375 L 212.847656 42.132812 L 212.023438 42.132812 L 212.023438 41.257812 L 212.847656 41.257812 L 212.847656 39.316406 Z M 213.976562 39.316406 "/>
<path style=" stroke:none;fill-rule:nonzero;fill:rgb(0%,0%,0%);fill-opacity:1;" d="M 220.875 44.660156 C 219.96875 44.660156 219.339844 44.761719 218.988281 44.96875 C 218.640625 45.175781 218.464844 45.53125 218.464844 46.03125 C 218.464844 46.429688 218.59375 46.746094 218.859375 46.980469 C 219.121094 47.214844 219.476562 47.332031 219.929688 47.332031 C 220.550781 47.332031 221.050781 47.109375 221.429688 46.667969 C 221.804688 46.226562 221.992188 45.640625 221.992188 44.910156 L 221.992188 44.660156 Z M 223.117188 44.195312 L 223.117188 48.09375 L 221.992188 48.09375 L 221.992188 47.058594 C 221.738281 47.472656 221.417969 47.777344 221.035156 47.976562 C 220.652344 48.175781 220.183594 48.273438 219.628906 48.273438 C 218.929688 48.273438 218.375 48.078125 217.960938 47.683594 C 217.546875 47.289062 217.339844 46.765625 217.339844 46.105469 C 217.339844 45.335938 217.597656 44.757812 218.113281 44.367188 C 218.628906 43.976562 219.394531 43.78125 220.417969 43.78125 L 221.992188 43.78125 L 221.992188 43.667969 C 221.992188 43.152344 221.824219 42.753906 221.484375 42.46875 C 221.144531 42.1875 220.667969 42.046875 220.050781 42.046875 C 219.660156 42.046875 219.28125 42.09375 218.910156 42.1875 C 218.539062 42.28125 218.183594 42.421875 217.84375 42.609375 L 217.84375 41.570312 C 218.253906 41.410156 218.652344 41.292969 219.039062 41.214844 C 219.425781 41.136719 219.800781 41.09375 220.167969 41.09375 C 221.15625 41.09375 221.894531 41.351562 222.382812 41.863281 C 222.871094 42.375 223.117188 43.152344 223.117188 44.195312 Z M 223.117188 44.195312 "/>
<path style=" stroke:none;fill-rule:nonzero;fill:rgb(0%,0%,0%);fill-opacity:1;" d="M 229.546875 42.417969 L 237.371094 42.417969 L 237.371094 43.445312 L 229.546875 43.445312 Z M 229.546875 44.910156 L 237.371094 44.910156 L 237.371094 45.945312 L 229.546875 45.945312 Z M 229.546875 44.910156 "/>
<path style=" stroke:none;fill-rule:nonzero;fill:rgb(0%,0%,0%);fill-opacity:1;" d="M 246.644531 39.792969 C 246.007812 39.792969 245.53125 40.105469 245.210938 40.730469 C 244.894531 41.355469 244.734375 42.292969 244.734375 43.546875 C 244.734375 44.796875 244.894531 45.734375 245.210938 46.359375 C 245.53125 46.984375 246.007812 47.296875 246.644531 47.296875 C 247.28125 47.296875 247.761719 46.984375 248.082031 46.359375 C 248.402344 45.734375 248.5625 44.796875 248.5625 43.546875 C 248.5625 42.292969 248.402344 41.355469 248.082031 40.730469 C 247.761719 40.105469 247.28125 39.792969 246.644531 39.792969 Z M 246.644531 38.816406 C 247.664062 38.816406 248.445312 39.222656 248.984375 40.03125 C 249.523438 40.839844 249.792969 42.011719 249.792969 43.546875 C 249.792969 45.082031 249.523438 46.253906 248.984375 47.0625 C 248.445312 47.871094 247.664062 48.273438 246.644531 48.273438 C 245.621094 48.273438 244.84375 47.871094 244.304688 47.0625 C 243.765625 46.253906 243.496094 45.082031 243.496094 43.546875 C 243.496094 42.011719 243.765625 40.839844 244.304688 40.03125 C 244.84375 39.222656 245.621094 38.816406 246.644531 38.816406 Z M 246.644531 38.816406 "/>
<path style=" stroke:none;fill-rule:nonzero;fill:rgb(0%,0%,0%);fill-opacity:1;" d="M 251.960938 46.542969 L 253.25 46.542969 L 253.25 48.09375 L 251.960938 48.09375 Z M 251.960938 46.542969 "/>
<path style=" stroke:none;fill-rule:nonzero;fill:rgb(0%,0%,0%);fill-opacity:1;" d="M 255.96875 47.90625 L 255.96875 46.78125 C 256.28125 46.929688 256.59375 47.042969 256.910156 47.117188 C 257.226562 47.195312 257.539062 47.234375 257.84375 47.234375 C 258.660156 47.234375 259.28125 46.960938 259.707031 46.414062 C 260.136719 45.867188 260.382812 45.035156 260.445312 43.917969 C 260.210938 44.269531 259.910156 44.539062 259.546875 44.726562 C 259.183594 44.914062 258.785156 45.007812 258.34375 45.007812 C 257.433594 45.007812 256.710938 44.730469 256.179688 44.179688 C 255.648438 43.628906 255.382812 42.875 255.382812 41.917969 C 255.382812 40.984375 255.660156 40.234375 256.214844 39.667969 C 256.769531 39.101562 257.503906 38.816406 258.421875 38.816406 C 259.476562 38.816406 260.28125 39.222656 260.835938 40.03125 C 261.394531 40.839844 261.671875 42.011719 261.671875 43.546875 C 261.671875 44.984375 261.332031 46.132812 260.648438 46.988281 C 259.96875 47.84375 259.050781 48.273438 257.898438 48.273438 C 257.589844 48.273438 257.277344 48.242188 256.957031 48.179688 C 256.640625 48.121094 256.3125 48.027344 255.96875 47.90625 Z M 258.421875 44.042969 C 258.976562 44.042969 259.414062 43.855469 259.738281 43.476562 C 260.0625 43.097656 260.222656 42.578125 260.222656 41.917969 C 260.222656 41.261719 260.0625 40.746094 259.738281 40.363281 C 259.414062 39.984375 258.976562 39.792969 258.421875 39.792969 C 257.871094 39.792969 257.433594 39.984375 257.109375 40.363281 C 256.785156 40.746094 256.625 41.261719 256.625 41.917969 C 256.625 42.578125 256.785156 43.097656 257.109375 43.476562 C 257.433594 43.855469 257.871094 44.042969 258.421875 44.042969 Z M 258.421875 44.042969 "/>
<path style=" stroke:none;fill-rule:nonzero;fill:rgb(0%,0%,0%);fill-opacity:1;" d="M 266.523438 39.792969 C 265.886719 39.792969 265.410156 40.105469 265.089844 40.730469 C 264.773438 41.355469 264.613281 42.292969 264.613281 43.546875 C 264.613281 44.796875 264.773438 45.734375 265.089844 46.359375 C 265.410156 46.984375 265.886719 47.296875 266.523438 47.296875 C 267.160156 47.296875 267.640625 46.984375 267.960938 46.359375 C 268.28125 45.734375 268.441406 44.796875 268.441406 43.546875 C 268.441406 42.292969 268.28125 41.355469 267.960938 40.730469 C 267.640625 40.105469 267.160156 39.792969 266.523438 39.792969 Z M 266.523438 38.816406 C 267.542969 38.816406 268.324219 39.222656 268.863281 40.03125 C 269.402344 40.839844 269.671875 42.011719 269.671875 43.546875 C 269.671875 45.082031 269.402344 46.253906 268.863281 47.0625 C 268.324219 47.871094 267.542969 48.273438 266.523438 48.273438 C 265.5 48.273438 264.722656 47.871094 264.183594 47.0625 C 263.644531 46.253906 263.375 45.082031 263.375 43.546875 C 263.375 42.011719 263.644531 40.839844 264.183594 40.03125 C 264.722656 39.222656 265.5 38.816406 266.523438 38.816406 Z M 266.523438 38.816406 "/>
<path style="fill:none;stroke-width:1.5;stroke-linecap:square;stroke-linejoin:round;stroke:rgb(17.254902%,62.745098%,17.254902%);stroke-opacity:1;stroke-miterlimit:4;" d="M 128.85 49.653125 L 148.85 49.653125 " transform="matrix(1.25,0,0,1.25,0,0)"/>
<path style=" stroke:none;fill-rule:nonzero;fill:rgb(0%,0%,0%);fill-opacity:1;" d="M 202.148438 63.03125 C 202.148438 62.207031 201.980469 61.558594 201.640625 61.085938 C 201.300781 60.617188 200.832031 60.382812 200.238281 60.382812 C 199.644531 60.382812 199.175781 60.617188 198.835938 61.085938 C 198.496094 61.558594 198.328125 62.207031 198.328125 63.03125 C 198.328125 63.855469 198.496094 64.503906 198.835938 64.972656 C 199.175781 65.445312 199.644531 65.679688 200.238281 65.679688 C 200.832031 65.679688 201.300781 65.445312 201.640625 64.972656 C 201.980469 64.503906 202.148438 63.855469 202.148438 63.03125 Z M 198.328125 60.644531 C 198.566406 60.238281 198.863281 59.9375 199.222656 59.738281 C 199.582031 59.542969 200.011719 59.441406 200.511719 59.441406 C 201.34375 59.441406 202.019531 59.773438 202.535156 60.429688 C 203.054688 61.089844 203.316406 61.957031 203.316406 63.03125 C 203.316406 64.105469 203.054688 64.972656 202.535156 65.632812 C 202.019531 66.292969 201.34375 66.621094 200.511719 66.621094 C 200.011719 66.621094 199.582031 66.523438 199.222656 66.324219 C 198.863281 66.125 198.566406 65.824219 198.328125 65.417969 L 198.328125 66.441406 L 197.199219 66.441406 L 197.199219 56.945312 L 198.328125 56.945312 Z M 198.328125 60.644531 "/>
<path style=" stroke:none;fill-rule:nonzero;fill:rgb(0%,0%,0%);fill-opacity:1;" d="M 211.023438 62.742188 L 211.023438 63.292969 L 205.859375 63.292969 C 205.910156 64.066406 206.144531 64.65625 206.558594 65.058594 C 206.976562 65.464844 207.558594 65.667969 208.300781 65.667969 C 208.734375 65.667969 209.152344 65.613281 209.554688 65.507812 C 209.960938 65.402344 210.363281 65.246094 210.761719 65.03125 L 210.761719 66.09375 C 210.359375 66.265625 209.945312 66.394531 209.523438 66.484375 C 209.097656 66.574219 208.671875 66.621094 208.234375 66.621094 C 207.144531 66.621094 206.28125 66.304688 205.644531 65.667969 C 205.007812 65.035156 204.6875 64.175781 204.6875 63.089844 C 204.6875 61.972656 204.992188 61.085938 205.59375 60.429688 C 206.199219 59.773438 207.015625 59.441406 208.039062 59.441406 C 208.960938 59.441406 209.6875 59.738281 210.222656 60.332031 C 210.757812 60.921875 211.023438 61.726562 211.023438 62.742188 Z M 209.902344 62.414062 C 209.894531 61.800781 209.722656 61.3125 209.386719 60.945312 C 209.050781 60.578125 208.605469 60.394531 208.050781 60.394531 C 207.425781 60.394531 206.925781 60.570312 206.546875 60.925781 C 206.171875 61.28125 205.953125 61.777344 205.898438 62.421875 Z M 209.902344 62.414062 "/>
<path style=" stroke:none;fill-rule:nonzero;fill:rgb(0%,0%,0%);fill-opacity:1;" d="M 213.976562 57.664062 L 213.976562 59.605469 L 216.289062 59.605469 L 216.289062 60.480469 L 213.976562 60.480469 L 213.976562 64.191406 C 213.976562 64.75 214.054688 65.105469 214.207031 65.265625 C 214.359375 65.425781 214.667969 65.503906 215.136719 65.503906 L 216.289062 65.503906 L 216.289062 66.441406 L 215.136719 66.441406 C 214.269531 66.441406 213.671875 66.28125 213.34375 65.957031 C 213.015625 65.632812 212.847656 65.046875 212.847656 64.191406 L 212.847656 60.480469 L 212.023438 60.480469 L 212.023438 59.605469 L 212.847656 59.605469 L 212.847656 57.664062 Z M 213.976562 57.664062 "/>
<path style=" stroke:none;fill-rule:nonzero;fill:rgb(0%,0%,0%);fill-opacity:1;" d="M 220.875 63.007812 C 219.96875 63.007812 219.339844 63.109375 218.988281 63.316406 C 218.640625 63.523438 218.464844 63.878906 218.464844 64.378906 C 218.464844 64.777344 218.59375 65.09375 218.859375 65.328125 C 219.121094 65.5625 219.476562 65.679688 219.929688 65.679688 C 220.550781 65.679688 221.050781 65.457031 221.429688 65.015625 C 221.804688 64.574219 221.992188 63.988281 221.992188 63.257812 L 221.992188 63.007812 Z M 223.117188 62.542969 L 223.117188 66.441406 L 221.992188 66.441406 L 221.992188 65.40625 C 221.738281 65.820312 221.417969 66.125 221.035156 66.324219 C 220.652344 66.523438 220.183594 66.621094 219.628906 66.621094 C 218.929688 66.621094 218.375 66.425781 217.960938 66.03125 C 217.546875 65.636719 217.339844 65.113281 217.339844 64.453125 C 217.339844 63.683594 217.597656 63.105469 218.113281 62.714844 C 218.628906 62.324219 219.394531 62.128906 220.417969 62.128906 L 221.992188 62.128906 L 221.992188 62.015625 C 221.992188 61.5 221.824219 61.101562 221.484375 60.816406 C 221.144531 60.535156 220.667969 60.394531 220.050781 60.394531 C 219.660156 60.394531 219.28125 60.441406 218.910156 60.535156 C 218.539062 60.628906 218.183594 60.769531 217.84375 60.957031 L 217.84375 59.917969 C 218.253906 59.757812 218.652344 59.640625 219.039062 59.5625 C 219.425781 59.484375 219.800781 59.441406 220.167969 59.441406 C 221.15625 59.441406 221.894531 59.699219 222.382812 60.210938 C 222.871094 60.722656 223.117188 61.5 223.117188 62.542969 Z M 223.117188 62.542969 "/>
<path style=" stroke:none;fill-rule:nonzero;fill:rgb(0%,0%,0%);fill-opacity:1;" d="M 229.546875 60.765625 L 237.371094 60.765625 L 237.371094 61.792969 L 229.546875 61.792969 Z M 229.546875 63.257812 L 237.371094 63.257812 L 237.371094 64.292969 L 229.546875 64.292969 Z M 229.546875 63.257812 "/>
<path style=" stroke:none;fill-rule:nonzero;fill:rgb(0%,0%,0%);fill-opacity:1;" d="M 246.644531 58.140625 C 246.007812 58.140625 245.53125 58.453125 245.210938 59.078125 C 244.894531 59.703125 244.734375 60.640625 244.734375 61.894531 C 244.734375 63.144531 244.894531 64.082031 245.210938 64.707031 C 245.53125 65.332031 246.007812 65.644531 246.644531 65.644531 C 247.28125 65.644531 247.761719 65.332031 248.082031 64.707031 C 248.402344 64.082031 248.5625 63.144531 248.5625 61.894531 C 248.5625 60.640625 248.402344 59.703125 248.082031 59.078125 C 247.761719 58.453125 247.28125 58.140625 246.644531 58.140625 Z M 246.644531 57.164062 C 247.664062 57.164062 248.445312 57.570312 248.984375 58.378906 C 249.523438 59.1875 249.792969 60.359375 249.792969 61.894531 C 249.792969 63.429688 249.523438 64.601562 248.984375 65.410156 C 248.445312 66.21875 247.664062 66.621094 246.644531 66.621094 C 245.621094 66.621094 244.84375 66.21875 244.304688 65.410156 C 243.765625 64.601562 243.496094 63.429688 243.496094 61.894531 C 243.496094 60.359375 243.765625 59.1875 244.304688 58.378906 C 244.84375 57.570312 245.621094 57.164062 246.644531 57.164062 Z M 246.644531 57.164062 "/>
<path style=" stroke:none;fill-rule:nonzero;fill:rgb(0%,0%,0%);fill-opacity:1;" d="M 251.960938 64.890625 L 253.25 64.890625 L 253.25 66.441406 L 251.960938 66.441406 Z M 251.960938 64.890625 "/>
<path style=" stroke:none;fill-rule:nonzero;fill:rgb(0%,0%,0%);fill-opacity:1;" d="M 258.722656 61.394531 C 258.171875 61.394531 257.730469 61.585938 257.40625 61.964844 C 257.085938 62.34375 256.921875 62.859375 256.921875 63.519531 C 256.921875 64.175781 257.085938 64.691406 257.40625 65.074219 C 257.730469 65.453125 258.171875 65.644531 258.722656 65.644531 C 259.277344 65.644531 259.714844 65.453125 260.039062 65.074219 C 260.363281 64.691406 260.523438 64.175781 260.523438 63.519531 C 260.523438 62.859375 260.363281 62.34375 260.039062 61.964844 C 259.714844 61.585938 259.277344 61.394531 258.722656 61.394531 Z M 261.171875 57.53125 L 261.171875 58.652344 C 260.863281 58.507812 260.550781 58.398438 260.234375 58.320312 C 259.917969 58.242188 259.605469 58.203125 259.296875 58.203125 C 258.484375 58.203125 257.859375 58.476562 257.429688 59.027344 C 257.003906 59.578125 256.757812 60.40625 256.695312 61.515625 C 256.9375 61.164062 257.238281 60.890625 257.597656 60.703125 C 257.960938 60.515625 258.363281 60.417969 258.796875 60.417969 C 259.710938 60.417969 260.433594 60.699219 260.964844 61.253906 C 261.496094 61.808594 261.761719 62.5625 261.761719 63.519531 C 261.761719 64.457031 261.488281 65.207031 260.933594 65.773438 C 260.378906 66.339844 259.644531 66.621094 258.722656 66.621094 C 257.667969 66.621094 256.863281 66.21875 256.304688 65.410156 C 255.75 64.601562 255.46875 63.429688 255.46875 61.894531 C 255.46875 60.457031 255.8125 59.308594 256.496094 58.449219 C 257.179688 57.59375 258.097656 57.164062 259.246094 57.164062 C 259.558594 57.164062 259.871094 57.195312 260.183594 57.257812 C 260.5 57.320312 260.828125 57.410156 261.171875 57.53125 Z M 261.171875 57.53125 "/>
<path style=" stroke:none;fill-rule:nonzero;fill:rgb(0%,0%,0%);fill-opacity:1;" d="M 266.523438 58.140625 C 265.886719 58.140625 265.410156 58.453125 265.089844 59.078125 C 264.773438 59.703125 264.613281 60.640625 264.613281 61.894531 C 264.613281 63.144531 264.773438 64.082031 265.089844 64.707031 C 265.410156 65.332031 265.886719 65.644531 266.523438 65.644531 C 267.160156 65.644531 267.640625 65.332031 267.960938 64.707031 C 268.28125 64.082031 268.441406 63.144531 268.441406 61.894531 C 268.441406 60.640625 268.28125 59.703125 267.960938 59.078125 C 267.640625 58.453125 267.160156 58.140625 266.523438 58.140625 Z M 266.523438 57.164062 C 267.542969 57.164062 268.324219 57.570312 268.863281 58.378906 C 269.402344 59.1875 269.671875 60.359375 269.671875 61.894531 C 269.671875 63.429688 269.402344 64.601562 268.863281 65.410156 C 268.324219 66.21875 267.542969 66.621094 266.523438 66.621094 C 265.5 66.621094 264.722656 66.21875 264.183594 65.410156 C 263.644531 64.601562 263.375 63.429688 263.375 61.894531 C 263.375 60.359375 263.644531 59.1875 264.183594 58.378906 C 264.722656 57.570312 265.5 57.164062 266.523438 57.164062 Z M 266.523438 57.164062 "/>
<path style="fill:none;stroke-width:1.5;stroke-linecap:square;stroke-linejoin:round;stroke:rgb(83.921569%,15.294118%,15.686275%);stroke-opacity:1;stroke-miterlimit:4;" d="M 128.85 64.334375 L 148.85 64.334375 " transform="matrix(1.25,0,0,1.25,0,0)"/>
<path style=" stroke:none;fill-rule:nonzero;fill:rgb(0%,0%,0%);fill-opacity:1;" d="M 202.148438 81.378906 C 202.148438 80.554688 201.980469 79.90625 201.640625 79.4375 C 201.300781 78.964844 200.832031 78.730469 200.238281 78.730469 C 199.644531 78.730469 199.175781 78.964844 198.835938 79.4375 C 198.496094 79.90625 198.328125 80.554688 198.328125 81.378906 C 198.328125 82.203125 198.496094 82.851562 198.835938 83.324219 C 199.175781 83.792969 199.644531 84.027344 200.238281 84.027344 C 200.832031 84.027344 201.300781 83.792969 201.640625 83.324219 C 201.980469 82.851562 202.148438 82.203125 202.148438 81.378906 Z M 198.328125 78.992188 C 198.566406 78.585938 198.863281 78.285156 199.222656 78.089844 C 199.582031 77.890625 200.011719 77.792969 200.511719 77.792969 C 201.34375 77.792969 202.019531 78.121094 202.535156 78.78125 C 203.054688 79.4375 203.316406 80.304688 203.316406 81.378906 C 203.316406 82.453125 203.054688 83.320312 202.535156 83.980469 C 202.019531 84.640625 201.34375 84.96875 200.511719 84.96875 C 200.011719 84.96875 199.582031 84.871094 199.222656 84.671875 C 198.863281 84.472656 198.566406 84.171875 198.328125 83.765625 L 198.328125 84.792969 L 197.199219 84.792969 L 197.199219 75.292969 L 198.328125 75.292969 Z M 198.328125 78.992188 "/>
<path style=" stroke:none;fill-rule:nonzero;fill:rgb(0%,0%,0%);fill-opacity:1;" d="M 211.023438 81.09375 L 211.023438 81.640625 L 205.859375 81.640625 C 205.910156 82.414062 206.144531 83.003906 206.558594 83.410156 C 206.976562 83.8125 207.558594 84.015625 208.300781 84.015625 C 208.734375 84.015625 209.152344 83.964844 209.554688 83.859375 C 209.960938 83.753906 210.363281 83.59375 210.761719 83.382812 L 210.761719 84.445312 C 210.359375 84.613281 209.945312 84.746094 209.523438 84.835938 C 209.097656 84.925781 208.671875 84.96875 208.234375 84.96875 C 207.144531 84.96875 206.28125 84.652344 205.644531 84.019531 C 205.007812 83.382812 204.6875 82.523438 204.6875 81.441406 C 204.6875 80.320312 204.992188 79.433594 205.59375 78.777344 C 206.199219 78.121094 207.015625 77.792969 208.039062 77.792969 C 208.960938 77.792969 209.6875 78.085938 210.222656 78.679688 C 210.757812 79.269531 211.023438 80.074219 211.023438 81.09375 Z M 209.902344 80.761719 C 209.894531 80.148438 209.722656 79.660156 209.386719 79.292969 C 209.050781 78.925781 208.605469 78.742188 208.050781 78.742188 C 207.425781 78.742188 206.925781 78.917969 206.546875 79.273438 C 206.171875 79.628906 205.953125 80.125 205.898438 80.769531 Z M 209.902344 80.761719 "/>
<path style=" stroke:none;fill-rule:nonzero;fill:rgb(0%,0%,0%);fill-opacity:1;" d="M 213.976562 76.015625 L 213.976562 77.957031 L 216.289062 77.957031 L 216.289062 78.828125 L 213.976562 78.828125 L 213.976562 82.539062 C 213.976562 83.097656 214.054688 83.453125 214.207031 83.613281 C 214.359375 83.773438 214.667969 83.851562 215.136719 83.851562 L 216.289062 83.851562 L 216.289062 84.792969 L 215.136719 84.792969 C 214.269531 84.792969 213.671875 84.628906 213.34375 84.308594 C 213.015625 83.984375 212.847656 83.394531 212.847656 82.539062 L 212.847656 78.828125 L 212.023438 78.828125 L 212.023438 77.957031 L 212.847656 77.957031 L 212.847656 76.015625 Z M 213.976562 76.015625 "/>
<path style=" stroke:none;fill-rule:nonzero;fill:rgb(0%,0%,0%);fill-opacity:1;" d="M 220.875 81.355469 C 219.96875 81.355469 219.339844 81.460938 218.988281 81.667969 C 218.640625 81.875 218.464844 82.226562 218.464844 82.730469 C 218.464844 83.128906 218.59375 83.445312 218.859375 83.679688 C 219.121094 83.910156 219.476562 84.027344 219.929688 84.027344 C 220.550781 84.027344 221.050781 83.808594 221.429688 83.367188 C 221.804688 82.925781 221.992188 82.335938 221.992188 81.605469 L 221.992188 81.355469 Z M 223.117188 80.890625 L 223.117188 84.792969 L 221.992188 84.792969 L 221.992188 83.753906 C 221.738281 84.167969 221.417969 84.472656 221.035156 84.671875 C 220.652344 84.871094 220.183594 84.96875 219.628906 84.96875 C 218.929688 84.96875 218.375 84.773438 217.960938 84.378906 C 217.546875 83.984375 217.339844 83.460938 217.339844 82.800781 C 217.339844 82.03125 217.597656 81.453125 218.113281 81.0625 C 218.628906 80.671875 219.394531 80.476562 220.417969 80.476562 L 221.992188 80.476562 L 221.992188 80.367188 C 221.992188 79.847656 221.824219 79.449219 221.484375 79.167969 C 221.144531 78.882812 220.667969 78.742188 220.050781 78.742188 C 219.660156 78.742188 219.28125 78.789062 218.910156 78.882812 C 218.539062 78.976562 218.183594 79.117188 217.84375 79.304688 L 217.84375 78.265625 C 218.253906 78.105469 218.652344 77.988281 219.039062 77.910156 C 219.425781 77.832031 219.800781 77.792969 220.167969 77.792969 C 221.15625 77.792969 221.894531 78.046875 222.382812 78.5625 C 222.871094 79.074219 223.117188 79.847656 223.117188 80.890625 Z M 223.117188 80.890625 "/>
<path style=" stroke:none;fill-rule:nonzero;fill:rgb(0%,0%,0%);fill-opacity:1;" d="M 229.546875 79.117188 L 237.371094 79.117188 L 237.371094 80.140625 L 229.546875 80.140625 Z M 229.546875 81.605469 L 237.371094 81.605469 L 237.371094 82.644531 L 229.546875 82.644531 Z M 229.546875 81.605469 "/>
<path style=" stroke:none;fill-rule:nonzero;fill:rgb(0%,0%,0%);fill-opacity:1;" d="M 246.644531 76.492188 C 246.007812 76.492188 245.53125 76.804688 245.210938 77.429688 C 244.894531 78.050781 244.734375 78.992188 244.734375 80.246094 C 244.734375 81.492188 244.894531 82.429688 245.210938 83.054688 C 245.53125 83.679688 246.007812 83.992188 246.644531 83.992188 C 247.28125 83.992188 247.761719 83.679688 248.082031 83.054688 C 248.402344 82.429688 248.5625 81.492188 248.5625 80.246094 C 248.5625 78.992188 248.402344 78.050781 248.082031 77.429688 C 247.761719 76.804688 247.28125 76.492188 246.644531 76.492188 Z M 246.644531 75.515625 C 247.664062 75.515625 248.445312 75.917969 248.984375 76.726562 C 249.523438 77.535156 249.792969 78.707031 249.792969 80.246094 C 249.792969 81.777344 249.523438 82.949219 248.984375 83.757812 C 248.445312 84.566406 247.664062 84.96875 246.644531 84.96875 C 245.621094 84.96875 244.84375 84.566406 244.304688 83.757812 C 243.765625 82.949219 243.496094 81.777344 243.496094 80.246094 C 243.496094 78.707031 243.765625 77.535156 244.304688 76.726562 C 244.84375 75.917969 245.621094 75.515625 246.644531 75.515625 Z M 246.644531 75.515625 "/>
<path style=" stroke:none;fill-rule:nonzero;fill:rgb(0%,0%,0%);fill-opacity:1;" d="M 251.960938 83.242188 L 253.25 83.242188 L 253.25 84.792969 L 251.960938 84.792969 Z M 251.960938 83.242188 "/>
<path style=" stroke:none;fill-rule:nonzero;fill:rgb(0%,0%,0%);fill-opacity:1;" d="M 258.570312 76.492188 C 257.9375 76.492188 257.457031 76.804688 257.136719 77.429688 C 256.820312 78.050781 256.660156 78.992188 256.660156 80.246094 C 256.660156 81.492188 256.820312 82.429688 257.136719 83.054688 C 257.457031 83.679688 257.9375 83.992188 258.570312 83.992188 C 259.210938 83.992188 259.6875 83.679688 260.007812 83.054688 C 260.328125 82.429688 260.488281 81.492188 260.488281 80.246094 C 260.488281 78.992188 260.328125 78.050781 260.007812 77.429688 C 259.6875 76.804688 259.210938 76.492188 258.570312 76.492188 Z M 258.570312 75.515625 C 259.59375 75.515625 260.371094 75.917969 260.910156 76.726562 C 261.449219 77.535156 261.71875 78.707031 261.71875 80.246094 C 261.71875 81.777344 261.449219 82.949219 260.910156 83.757812 C 260.371094 84.566406 259.59375 84.96875 258.570312 84.96875 C 257.550781 84.96875 256.769531 84.566406 256.230469 83.757812 C 255.691406 82.949219 255.421875 81.777344 255.421875 80.246094 C 255.421875 78.707031 255.691406 77.535156 256.230469 76.726562 C 256.769531 75.917969 257.550781 75.515625 258.570312 75.515625 Z M 258.570312 75.515625 "/>
<path style=" stroke:none;fill-rule:nonzero;fill:rgb(0%,0%,0%);fill-opacity:1;" d="M 266.523438 76.492188 C 265.886719 76.492188 265.410156 76.804688 265.089844 77.429688 C 264.773438 78.050781 264.613281 78.992188 264.613281 80.246094 C 264.613281 81.492188 264.773438 82.429688 265.089844 83.054688 C 265.410156 83.679688 265.886719 83.992188 266.523438 83.992188 C 267.160156 83.992188 267.640625 83.679688 267.960938 83.054688 C 268.28125 82.429688 268.441406 81.492188 268.441406 80.246094 C 268.441406 78.992188 268.28125 78.050781 267.960938 77.429688 C 267.640625 76.804688 267.160156 76.492188 266.523438 76.492188 Z M 266.523438 75.515625 C 267.542969 75.515625 268.324219 75.917969 268.863281 76.726562 C 269.402344 77.535156 269.671875 78.707031 269.671875 80.246094 C 269.671875 81.777344 269.402344 82.949219 268.863281 83.757812 C 268.324219 84.566406 267.542969 84.96875 266.523438 84.96875 C 265.5 84.96875 264.722656 84.566406 264.183594 83.757812 C 263.644531 82.949219 263.375 81.777344 263.375 80.246094 C 263.375 78.707031 263.644531 77.535156 264.183594 76.726562 C 264.722656 75.917969 265.5 75.515625 266.523438 75.515625 Z M 266.523438 75.515625 "/>
</g>
</svg>
