<?xml version="1.0" encoding="UTF-8"?>
<svg xmlns="http://www.w3.org/2000/svg" xmlns:xlink="http://www.w3.org/1999/xlink" width="306pt" height="229pt" viewBox="0 0 306 229" version="1.1">
<defs>
<clipPath id="clip1">
  <path d="M 154 9 L 297.398438 9 L 297.398438 139 L 154 139 Z M 154 9 "/>
</clipPath>
<clipPath id="clip2">
  <path d="M 109 9 L 297.398438 9 L 297.398438 176 L 109 176 Z M 109 9 "/>
</clipPath>
<clipPath id="clip3">
  <path d="M 75 9 L 171 9 L 171 182.25 L 75 182.25 Z M 75 9 "/>
</clipPath>
<clipPath id="clip4">
  <path d="M 53.273438 89 L 122 89 L 122 182.25 L 53.273438 182.25 Z M 53.273438 89 "/>
</clipPath>
<clipPath id="clip5">
  <path d="M 53.273438 146 L 86 146 L 86 182.25 L 53.273438 182.25 Z M 53.273438 146 "/>
</clipPath>
<clipPath id="clip6">
  <path d="M 53.273438 180 L 56 180 L 56 182.25 L 53.273438 182.25 Z M 53.273438 180 "/>
</clipPath>
</defs>
<g id="surface1">
<rect x="0" y="0" width="306" height="229" style="fill:rgb(100%,100%,100%);fill-opacity:1;stroke:none;"/>
<path style=" stroke:none;fill-rule:nonzero;fill:rgb(100%,100%,100%);fill-opacity:1;" d="M 53.273438 182.25 L 297.402344 182.25 L 297.402344 9 L 53.273438 9 Z M 53.273438 182.25 "/>
<path style="fill:none;stroke-width:0.8;stroke-linecap:butt;stroke-linejoin:round;stroke:rgb(0%,0%,0%);stroke-opacity:1;stroke-miterlimit:4;" d="M 0.000001 0 L 0.000001 3.5 " transform="matrix(1.25,0,0,1.25,110.492186,182.25)"/>
<path style=" stroke:none;fill-rule:nonzero;fill:rgb(0%,0%,0%);fill-opacity:1;" d="M 102.601562 196.0625 L 110.425781 196.0625 L 110.425781 197.097656 L 102.601562 197.097656 Z M 102.601562 196.0625 "/>
<path style=" stroke:none;fill-rule:nonzero;fill:rgb(0%,0%,0%);fill-opacity:1;" d="M 116.476562 192.460938 L 113.363281 197.324219 L 116.476562 197.324219 Z M 116.152344 191.386719 L 117.703125 191.386719 L 117.703125 197.324219 L 119.003906 197.324219 L 119.003906 198.351562 L 117.703125 198.351562 L 117.703125 200.5 L 116.476562 200.5 L 116.476562 198.351562 L 112.363281 198.351562 L 112.363281 197.160156 Z M 116.152344 191.386719 "/>
<path style="fill:none;stroke-width:0.8;stroke-linecap:butt;stroke-linejoin:round;stroke:rgb(0%,0%,0%);stroke-opacity:1;stroke-miterlimit:4;" d="M 0.000002 0 L 0.000002 3.5 " transform="matrix(1.25,0,0,1.25,186.781247,182.25)"/>
<path style=" stroke:none;fill-rule:nonzero;fill:rgb(0%,0%,0%);fill-opacity:1;" d="M 178.890625 196.0625 L 186.714844 196.0625 L 186.714844 197.097656 L 178.890625 197.097656 Z M 178.890625 196.0625 "/>
<path style=" stroke:none;fill-rule:nonzero;fill:rgb(0%,0%,0%);fill-opacity:1;" d="M 190.4375 199.460938 L 194.742188 199.460938 L 194.742188 200.5 L 188.957031 200.5 L 188.957031 199.460938 C 189.425781 198.976562 190.0625 198.328125 190.867188 197.511719 C 191.675781 196.695312 192.183594 196.167969 192.390625 195.933594 C 192.785156 195.488281 193.0625 195.113281 193.21875 194.808594 C 193.375 194.5 193.453125 194.199219 193.453125 193.902344 C 193.453125 193.417969 193.285156 193.023438 192.945312 192.71875 C 192.605469 192.410156 192.164062 192.257812 191.617188 192.257812 C 191.230469 192.257812 190.820312 192.324219 190.390625 192.460938 C 189.964844 192.59375 189.503906 192.796875 189.015625 193.070312 L 189.015625 191.824219 C 189.511719 191.625 189.976562 191.476562 190.40625 191.375 C 190.839844 191.273438 191.234375 191.222656 191.59375 191.222656 C 192.539062 191.222656 193.289062 191.457031 193.851562 191.929688 C 194.414062 192.402344 194.691406 193.03125 194.691406 193.820312 C 194.691406 194.195312 194.621094 194.550781 194.480469 194.886719 C 194.34375 195.222656 194.085938 195.617188 193.714844 196.074219 C 193.613281 196.191406 193.292969 196.53125 192.746094 197.097656 C 192.203125 197.660156 191.433594 198.449219 190.4375 199.460938 Z M 190.4375 199.460938 "/>
<path style="fill:none;stroke-width:0.8;stroke-linecap:butt;stroke-linejoin:round;stroke:rgb(0%,0%,0%);stroke-opacity:1;stroke-miterlimit:4;" d="M 0.000003 0 L 0.000003 3.5 " transform="matrix(1.25,0,0,1.25,263.070309,182.25)"/>
<path style=" stroke:none;fill-rule:nonzero;fill:rgb(0%,0%,0%);fill-opacity:1;" d="M 263.066406 192.199219 C 262.433594 192.199219 261.953125 192.511719 261.632812 193.136719 C 261.316406 193.757812 261.15625 194.699219 261.15625 195.953125 C 261.15625 197.199219 261.316406 198.136719 261.632812 198.761719 C 261.953125 199.386719 262.433594 199.699219 263.066406 199.699219 C 263.707031 199.699219 264.183594 199.386719 264.503906 198.761719 C 264.824219 198.136719 264.984375 197.199219 264.984375 195.953125 C 264.984375 194.699219 264.824219 193.757812 264.503906 193.136719 C 264.183594 192.511719 263.707031 192.199219 263.066406 192.199219 Z M 263.066406 191.222656 C 264.089844 191.222656 264.867188 191.625 265.40625 192.433594 C 265.945312 193.242188 266.214844 194.414062 266.214844 195.953125 C 266.214844 197.484375 265.945312 198.65625 265.40625 199.464844 C 264.867188 200.273438 264.089844 200.675781 263.066406 200.675781 C 262.046875 200.675781 261.265625 200.273438 260.726562 199.464844 C 260.1875 198.65625 259.917969 197.484375 259.917969 195.953125 C 259.917969 194.414062 260.1875 193.242188 260.726562 192.433594 C 261.265625 191.625 262.046875 191.222656 263.066406 191.222656 Z M 263.066406 191.222656 "/>
<path style=" stroke:none;fill-rule:nonzero;fill:rgb(0%,0%,0%);fill-opacity:1;" d="M 174.523438 210.761719 L 172.050781 214.085938 L 174.648438 217.597656 L 173.324219 217.597656 L 171.335938 214.910156 L 169.347656 217.597656 L 168.019531 217.597656 L 170.675781 214.019531 L 168.246094 210.761719 L 169.570312 210.761719 L 171.382812 213.195312 L 173.195312 210.761719 Z M 174.523438 210.761719 "/>
<path style=" stroke:none;fill-rule:nonzero;fill:rgb(0%,0%,0%);fill-opacity:1;" d="M 176.609375 216.558594 L 178.625 216.558594 L 178.625 209.605469 L 176.433594 210.046875 L 176.433594 208.921875 L 178.613281 208.484375 L 179.84375 208.484375 L 179.84375 216.558594 L 181.859375 216.558594 L 181.859375 217.597656 L 176.609375 217.597656 Z M 176.609375 216.558594 "/>
<path style="fill:none;stroke-width:0.8;stroke-linecap:butt;stroke-linejoin:round;stroke:rgb(0%,0%,0%);stroke-opacity:1;stroke-miterlimit:4;" d="M -0.001562 0 L -3.501562 0 " transform="matrix(1.25,0,0,1.25,53.27539,182.25)"/>
<path style=" stroke:none;fill-rule:nonzero;fill:rgb(0%,0%,0%);fill-opacity:1;" d="M 27.421875 182.5625 L 35.246094 182.5625 L 35.246094 183.597656 L 27.421875 183.597656 Z M 27.421875 182.5625 "/>
<path style=" stroke:none;fill-rule:nonzero;fill:rgb(0%,0%,0%);fill-opacity:1;" d="M 41.644531 182.085938 C 42.234375 182.210938 42.695312 182.472656 43.023438 182.875 C 43.355469 183.273438 43.523438 183.765625 43.523438 184.351562 C 43.523438 185.25 43.214844 185.945312 42.59375 186.4375 C 41.976562 186.929688 41.097656 187.175781 39.957031 187.175781 C 39.578125 187.175781 39.183594 187.140625 38.777344 187.0625 C 38.375 186.988281 37.957031 186.875 37.523438 186.722656 L 37.523438 185.535156 C 37.867188 185.734375 38.238281 185.882812 38.644531 185.984375 C 39.054688 186.085938 39.480469 186.136719 39.921875 186.136719 C 40.695312 186.136719 41.285156 185.984375 41.6875 185.679688 C 42.09375 185.375 42.296875 184.933594 42.296875 184.351562 C 42.296875 183.8125 42.109375 183.394531 41.730469 183.089844 C 41.355469 182.789062 40.832031 182.636719 40.160156 182.636719 L 39.097656 182.636719 L 39.097656 181.621094 L 40.210938 181.621094 C 40.816406 181.621094 41.277344 181.5 41.601562 181.257812 C 41.921875 181.015625 42.082031 180.667969 42.082031 180.210938 C 42.082031 179.746094 41.917969 179.386719 41.585938 179.136719 C 41.253906 178.882812 40.78125 178.757812 40.160156 178.757812 C 39.824219 178.757812 39.460938 178.796875 39.074219 178.871094 C 38.6875 178.941406 38.261719 179.054688 37.796875 179.210938 L 37.796875 178.113281 C 38.265625 177.980469 38.707031 177.882812 39.113281 177.820312 C 39.523438 177.753906 39.910156 177.722656 40.269531 177.722656 C 41.207031 177.722656 41.945312 177.933594 42.492188 178.359375 C 43.035156 178.785156 43.308594 179.359375 43.308594 180.082031 C 43.308594 180.589844 43.164062 181.015625 42.875 181.363281 C 42.585938 181.710938 42.175781 181.949219 41.644531 182.085938 Z M 41.644531 182.085938 "/>
<path style="fill:none;stroke-width:0.8;stroke-linecap:butt;stroke-linejoin:round;stroke:rgb(0%,0%,0%);stroke-opacity:1;stroke-miterlimit:4;" d="M -0.001562 0.000961 L -3.501562 0.000961 " transform="matrix(1.25,0,0,1.25,53.27539,137.826924)"/>
<path style=" stroke:none;fill-rule:nonzero;fill:rgb(0%,0%,0%);fill-opacity:1;" d="M 27.421875 138.136719 L 35.246094 138.136719 L 35.246094 139.175781 L 27.421875 139.175781 Z M 27.421875 138.136719 "/>
<path style=" stroke:none;fill-rule:nonzero;fill:rgb(0%,0%,0%);fill-opacity:1;" d="M 38.96875 141.539062 L 43.273438 141.539062 L 43.273438 142.574219 L 37.488281 142.574219 L 37.488281 141.539062 C 37.953125 141.054688 38.59375 140.40625 39.398438 139.589844 C 40.207031 138.773438 40.714844 138.246094 40.921875 138.007812 C 41.316406 137.566406 41.59375 137.191406 41.75 136.882812 C 41.90625 136.578125 41.984375 136.273438 41.984375 135.976562 C 41.984375 135.492188 41.816406 135.097656 41.476562 134.792969 C 41.136719 134.488281 40.691406 134.335938 40.148438 134.335938 C 39.761719 134.335938 39.351562 134.402344 38.921875 134.535156 C 38.496094 134.671875 38.035156 134.875 37.546875 135.148438 L 37.546875 133.902344 C 38.042969 133.703125 38.507812 133.550781 38.9375 133.449219 C 39.371094 133.347656 39.765625 133.296875 40.125 133.296875 C 41.066406 133.296875 41.820312 133.535156 42.382812 134.007812 C 42.941406 134.480469 43.222656 135.109375 43.222656 135.898438 C 43.222656 136.273438 43.152344 136.628906 43.011719 136.964844 C 42.875 137.300781 42.617188 137.695312 42.246094 138.148438 C 42.144531 138.269531 41.820312 138.609375 41.277344 139.171875 C 40.730469 139.738281 39.964844 140.527344 38.96875 141.539062 Z M 38.96875 141.539062 "/>
<path style="fill:none;stroke-width:0.8;stroke-linecap:butt;stroke-linejoin:round;stroke:rgb(0%,0%,0%);stroke-opacity:1;stroke-miterlimit:4;" d="M -0.001562 -0.001204 L -3.501562 -0.001204 " transform="matrix(1.25,0,0,1.25,53.27539,93.403849)"/>
<path style=" stroke:none;fill-rule:nonzero;fill:rgb(0%,0%,0%);fill-opacity:1;" d="M 27.421875 93.714844 L 35.246094 93.714844 L 35.246094 94.753906 L 27.421875 94.753906 Z M 27.421875 93.714844 "/>
<path style=" stroke:none;fill-rule:nonzero;fill:rgb(0%,0%,0%);fill-opacity:1;" d="M 38.121094 97.117188 L 40.136719 97.117188 L 40.136719 90.164062 L 37.945312 90.601562 L 37.945312 89.480469 L 40.125 89.039062 L 41.355469 89.039062 L 41.355469 97.117188 L 43.371094 97.117188 L 43.371094 98.152344 L 38.121094 98.152344 Z M 38.121094 97.117188 "/>
<path style="fill:none;stroke-width:0.8;stroke-linecap:butt;stroke-linejoin:round;stroke:rgb(0%,0%,0%);stroke-opacity:1;stroke-miterlimit:4;" d="M -0.001562 -0.000243 L -3.501562 -0.000243 " transform="matrix(1.25,0,0,1.25,53.27539,48.980773)"/>
<path style=" stroke:none;fill-rule:nonzero;fill:rgb(0%,0%,0%);fill-opacity:1;" d="M 40.542969 45.429688 C 39.910156 45.429688 39.433594 45.742188 39.113281 46.367188 C 38.792969 46.988281 38.632812 47.929688 38.632812 49.183594 C 38.632812 50.429688 38.792969 51.367188 39.113281 51.992188 C 39.433594 52.617188 39.910156 52.929688 40.542969 52.929688 C 41.183594 52.929688 41.664062 52.617188 41.980469 51.992188 C 42.300781 51.367188 42.460938 50.429688 42.460938 49.183594 C 42.460938 47.929688 42.300781 46.988281 41.980469 46.367188 C 41.664062 45.742188 41.183594 45.429688 40.542969 45.429688 Z M 40.542969 44.453125 C 41.566406 44.453125 42.347656 44.855469 42.886719 45.664062 C 43.425781 46.472656 43.695312 47.644531 43.695312 49.183594 C 43.695312 50.714844 43.425781 51.886719 42.886719 52.695312 C 42.347656 53.503906 41.566406 53.90625 40.542969 53.90625 C 39.523438 53.90625 38.742188 53.503906 38.203125 52.695312 C 37.664062 51.886719 37.394531 50.714844 37.394531 49.183594 C 37.394531 47.644531 37.664062 46.472656 38.203125 45.664062 C 38.742188 44.855469 39.523438 44.453125 40.542969 44.453125 Z M 40.542969 44.453125 "/>
<path style=" stroke:none;fill-rule:nonzero;fill:rgb(0%,0%,0%);fill-opacity:1;" d="M 11.660156 96.4375 L 14.988281 98.914062 L 18.496094 96.3125 L 18.496094 97.636719 L 15.8125 99.625 L 18.496094 101.617188 L 18.496094 102.941406 L 14.921875 100.285156 L 11.660156 102.714844 L 11.660156 101.390625 L 14.097656 99.578125 L 11.660156 97.765625 Z M 11.660156 96.4375 "/>
<path style=" stroke:none;fill-rule:nonzero;fill:rgb(0%,0%,0%);fill-opacity:1;" d="M 17.460938 93.503906 L 17.460938 89.203125 L 18.496094 89.203125 L 18.496094 94.988281 L 17.460938 94.988281 C 16.976562 94.519531 16.328125 93.882812 15.511719 93.074219 C 14.695312 92.265625 14.167969 91.757812 13.929688 91.550781 C 13.488281 91.15625 13.113281 90.882812 12.804688 90.726562 C 12.5 90.566406 12.195312 90.488281 11.898438 90.488281 C 11.414062 90.488281 11.019531 90.660156 10.714844 91 C 10.410156 91.339844 10.257812 91.78125 10.257812 92.328125 C 10.257812 92.714844 10.324219 93.121094 10.457031 93.550781 C 10.59375 93.980469 10.796875 94.4375 11.070312 94.925781 L 9.824219 94.925781 C 9.625 94.429688 9.472656 93.96875 9.371094 93.535156 C 9.269531 93.105469 9.21875 92.707031 9.21875 92.351562 C 9.21875 91.40625 9.457031 90.652344 9.929688 90.09375 C 10.402344 89.53125 11.03125 89.25 11.820312 89.25 C 12.195312 89.25 12.550781 89.320312 12.886719 89.460938 C 13.222656 89.601562 13.617188 89.855469 14.070312 90.226562 C 14.191406 90.328125 14.53125 90.652344 15.09375 91.199219 C 15.660156 91.742188 16.449219 92.511719 17.460938 93.503906 Z M 17.460938 93.503906 "/>
<path style="fill:none;stroke-width:1.5;stroke-linecap:square;stroke-linejoin:round;stroke:rgb(100%,49.803922%,5.490196%);stroke-opacity:1;stroke-miterlimit:4;" d="M 57.878125 110.2625 L 81.64375 84.58125 L 104.221875 70.63125 L 119.696875 53.6625 L 143.253125 46.26875 L 154.925 36.8375 L 172.0625 37.0375 L 178.996875 37.765625 L 186.778125 38.253125 L 189.759375 43.834375 L 191.803125 43.2375 L 192.259375 42.04375 L 198.8625 38.14375 L 203.5875 41.196875 L 209.45625 36.578125 L 212.8375 32.9 L 216.8625 33.553125 L 211.71875 38.984375 L 213.3 43.34375 L 215.696875 39.609375 L 213.5125 42.74375 L 217.24375 39.48125 L 209.75625 40.38125 L 208.184375 43.346875 L 210.253125 34.96875 L 208.29375 35.040625 L 207.734375 32.075 L 207.15625 40.084375 L 207.078125 41.428125 L 204.796875 36.9 L 206.1375 36.68125 L 207.540625 38.95 L 205.853125 41.8125 L 204.915625 44.578125 L 205.821875 45.4375 L 209.190625 42.334375 L 206.5875 42.346875 L 204.98125 37.490625 L 207.271875 42.846875 L 209.23125 43.925 L 206.65 38.8125 L 207.640625 41.884375 L 213.934375 43.953125 L 207.40625 43.23125 L 207.653125 34.790625 L 210.275 40.128125 L 211.390625 45.553125 L 212.221875 36.828125 L 209.509375 40.9375 L 199.65625 35.98125 L 196.0375 35.246875 " transform="matrix(1.25,0,0,1.25,0,0.000000000000014211)"/>
<path style="fill-rule:nonzero;fill:rgb(100%,49.803922%,5.490196%);fill-opacity:1;stroke-width:1;stroke-linecap:butt;stroke-linejoin:round;stroke:rgb(100%,49.803922%,5.490196%);stroke-opacity:1;stroke-miterlimit:4;" d="M 0.000000000000014211 3.000961 C 0.796875 3.000961 1.559375 2.685336 2.121875 2.122836 C 2.684375 1.557211 3 0.794711 3 0.000961 C 3 -0.795914 2.684375 -1.558414 2.121875 -2.120914 C 1.559375 -2.683414 0.796875 -2.999039 0.000000000000014211 -2.999039 C -0.796875 -2.999039 -1.559375 -2.683414 -2.121875 -2.120914 C -2.684375 -1.558414 -3 -0.795914 -3 0.000961 C -3 0.794711 -2.684375 1.557211 -2.121875 2.122836 C -1.559375 2.685336 -0.796875 3.000961 0.000000000000014211 3.000961 Z M 0.000000000000014211 3.000961 " transform="matrix(1.25,0,0,1.25,72.347656,137.826924)"/>
<path style="fill-rule:nonzero;fill:rgb(100%,49.803922%,5.490196%);fill-opacity:1;stroke-width:1;stroke-linecap:butt;stroke-linejoin:round;stroke:rgb(100%,49.803922%,5.490196%);stroke-opacity:1;stroke-miterlimit:4;" d="M 0.000682 2.999789 C 0.794432 2.999789 1.560057 2.684164 2.122557 2.121664 C 2.685057 1.559164 3.000682 0.796664 3.000682 -0.000211 C 3.000682 -0.797086 2.685057 -1.559586 2.122557 -2.122086 C 1.560057 -2.684586 0.794432 -3.000211 0.000682 -3.000211 C -0.796193 -3.000211 -1.558693 -2.684586 -2.121193 -2.122086 C -2.683693 -1.559586 -2.999318 -0.797086 -2.999318 -0.000211 C -2.999318 0.796664 -2.683693 1.559164 -2.121193 2.121664 C -1.558693 2.684164 -0.796193 2.999789 0.000682 2.999789 Z M 0.000682 2.999789 " transform="matrix(1.25,0,0,1.25,102.053835,105.726826)"/>
<path style="fill-rule:nonzero;fill:rgb(100%,49.803922%,5.490196%);fill-opacity:1;stroke-width:1;stroke-linecap:butt;stroke-linejoin:round;stroke:rgb(100%,49.803922%,5.490196%);stroke-opacity:1;stroke-miterlimit:4;" d="M 0.000293 3.001038 C 0.797168 3.001038 1.559668 2.685413 2.122168 2.119788 C 2.684668 1.557288 3.000293 0.794788 3.000293 0.001038 C 3.000293 -0.795837 2.684668 -1.558337 2.122168 -2.120837 C 1.559668 -2.683337 0.797168 -2.998962 0.000293 -2.998962 C -0.796582 -2.998962 -1.559082 -2.683337 -2.121582 -2.120837 C -2.684082 -1.558337 -2.999707 -0.795837 -2.999707 0.001038 C -2.999707 0.794788 -2.684082 1.557288 -2.121582 2.119788 C -1.559082 2.685413 -0.796582 3.001038 0.000293 3.001038 Z M 0.000293 3.001038 " transform="matrix(1.25,0,0,1.25,130.276977,88.287765)"/>
<path style="fill-rule:nonzero;fill:rgb(100%,49.803922%,5.490196%);fill-opacity:1;stroke-width:1;stroke-linecap:butt;stroke-linejoin:round;stroke:rgb(100%,49.803922%,5.490196%);stroke-opacity:1;stroke-miterlimit:4;" d="M 0.001035 2.998608 C 0.794785 2.998608 1.557285 2.682983 2.119785 2.120483 C 2.68541 1.557983 3.001035 0.795483 3.001035 -0.001392 C 3.001035 -0.795142 2.68541 -1.557642 2.119785 -2.120142 C 1.557285 -2.682642 0.794785 -3.001392 0.001035 -3.001392 C -0.79584 -3.001392 -1.55834 -2.682642 -2.12084 -2.120142 C -2.68334 -1.557642 -2.998965 -0.795142 -2.998965 -0.001392 C -2.998965 0.795483 -2.68334 1.557983 -2.12084 2.120483 C -1.55834 2.682983 -0.79584 2.998608 0.001035 2.998608 Z M 0.001035 2.998608 " transform="matrix(1.25,0,0,1.25,149.6198,67.079865)"/>
<path style="fill-rule:nonzero;fill:rgb(100%,49.803922%,5.490196%);fill-opacity:1;stroke-width:1;stroke-linecap:butt;stroke-linejoin:round;stroke:rgb(100%,49.803922%,5.490196%);stroke-opacity:1;stroke-miterlimit:4;" d="M 0.000799 3.000719 C 0.794549 3.000719 1.560174 2.685094 2.122674 2.122594 C 2.685174 1.560094 3.000799 0.794469 3.000799 0.000719 C 3.000799 -0.796156 2.685174 -1.558656 2.122674 -2.121156 C 1.560174 -2.683656 0.794549 -2.999281 0.000799 -2.999281 C -0.796076 -2.999281 -1.558576 -2.683656 -2.121076 -2.121156 C -2.683576 -1.558656 -2.999201 -0.796156 -2.999201 0.000719 C -2.999201 0.794469 -2.683576 1.560094 -2.121076 2.122594 C -1.558576 2.685094 -0.796076 3.000719 0.000799 3.000719 Z M 0.000799 3.000719 " transform="matrix(1.25,0,0,1.25,179.065407,57.835039)"/>
<path style="fill-rule:nonzero;fill:rgb(100%,49.803922%,5.490196%);fill-opacity:1;stroke-width:1;stroke-linecap:butt;stroke-linejoin:round;stroke:rgb(100%,49.803922%,5.490196%);stroke-opacity:1;stroke-miterlimit:4;" d="M -0.000085 2.999064 C 0.79679 2.999064 1.55929 2.683439 2.12179 2.120939 C 2.68429 1.558439 2.999915 0.795939 2.999915 -0.000936 C 2.999915 -0.794686 2.68429 -1.557186 2.12179 -2.122811 C 1.55929 -2.685311 0.79679 -3.000936 -0.000085 -3.000936 C -0.79696 -3.000936 -1.55946 -2.685311 -2.12196 -2.122811 C -2.68446 -1.557186 -3.000085 -0.794686 -3.000085 -0.000936 C -3.000085 0.795939 -2.68446 1.558439 -2.12196 2.120939 C -1.55946 2.683439 -0.79696 2.999064 -0.000085 2.999064 Z M -0.000085 2.999064 " transform="matrix(1.25,0,0,1.25,193.656356,46.048045)"/>
<path style="fill-rule:nonzero;fill:rgb(100%,49.803922%,5.490196%);fill-opacity:1;stroke-width:1;stroke-linecap:butt;stroke-linejoin:round;stroke:rgb(100%,49.803922%,5.490196%);stroke-opacity:1;stroke-miterlimit:4;" d="M -0.001388 2.99986 C 0.795487 2.99986 1.557987 2.684235 2.120487 2.121735 C 2.682987 1.559235 2.998612 0.796735 2.998612 -0.00014 C 2.998612 -0.797015 2.682987 -1.559515 2.120487 -2.122015 C 1.557987 -2.684515 0.795487 -3.00014 -0.001388 -3.00014 C -0.795138 -3.00014 -1.557638 -2.684515 -2.120138 -2.122015 C -2.682638 -1.559515 -3.001388 -0.797015 -3.001388 -0.00014 C -3.001388 0.796735 -2.682638 1.559235 -2.120138 2.121735 C -1.557638 2.684235 -0.795138 2.99986 -0.001388 2.99986 Z M -0.001388 2.99986 " transform="matrix(1.25,0,0,1.25,215.07986,46.29705)"/>
<path style="fill-rule:nonzero;fill:rgb(100%,49.803922%,5.490196%);fill-opacity:1;stroke-width:1;stroke-linecap:butt;stroke-linejoin:round;stroke:rgb(100%,49.803922%,5.490196%);stroke-opacity:1;stroke-miterlimit:4;" d="M 0.000382 3.001257 C 0.794132 3.001257 1.559757 2.682507 2.122257 2.120007 C 2.684757 1.557507 3.000382 0.795007 3.000382 0.001257 C 3.000382 -0.795618 2.684757 -1.558118 2.122257 -2.120618 C 1.559757 -2.683118 0.794132 -2.998743 0.000382 -2.998743 C -0.796493 -2.998743 -1.558993 -2.683118 -2.121493 -2.120618 C -2.683993 -1.558118 -2.999618 -0.795618 -2.999618 0.001257 C -2.999618 0.795007 -2.683993 1.557507 -2.121493 2.120007 C -1.558993 2.682507 -0.796493 3.001257 0.000382 3.001257 Z M 0.000382 3.001257 " transform="matrix(1.25,0,0,1.25,223.745616,47.20546)"/>
<path style="fill-rule:nonzero;fill:rgb(100%,49.803922%,5.490196%);fill-opacity:1;stroke-width:1;stroke-linecap:butt;stroke-linejoin:round;stroke:rgb(100%,49.803922%,5.490196%);stroke-opacity:1;stroke-miterlimit:4;" d="M 0.001283 3.001035 C 0.795033 3.001035 1.557533 2.68541 2.120033 2.119785 C 2.682533 1.557285 3.001283 0.794785 3.001283 0.001035 C 3.001283 -0.79584 2.682533 -1.55834 2.120033 -2.12084 C 1.557533 -2.68334 0.795033 -2.998965 0.001283 -2.998965 C -0.795592 -2.998965 -1.558092 -2.68334 -2.120592 -2.12084 C -2.683092 -1.55834 -2.998717 -0.79584 -2.998717 0.001035 C -2.998717 0.794785 -2.683092 1.557285 -2.120592 2.119785 C -1.558092 2.68541 -0.795592 3.001035 0.001283 3.001035 Z M 0.001283 3.001035 " transform="matrix(1.25,0,0,1.25,233.471052,47.815113)"/>
<path style="fill-rule:nonzero;fill:rgb(100%,49.803922%,5.490196%);fill-opacity:1;stroke-width:1;stroke-linecap:butt;stroke-linejoin:round;stroke:rgb(100%,49.803922%,5.490196%);stroke-opacity:1;stroke-miterlimit:4;" d="M 0.000123 2.998887 C 0.796998 2.998887 1.559498 2.683262 2.121998 2.120762 C 2.684498 1.558262 3.000123 0.795762 3.000123 -0.001113 C 3.000123 -0.794863 2.684498 -1.557363 2.121998 -2.119863 C 1.559498 -2.682363 0.796998 -3.001113 0.000123 -3.001113 C -0.796752 -3.001113 -1.559252 -2.682363 -2.121752 -2.119863 C -2.684252 -1.557363 -2.999877 -0.794863 -2.999877 -0.001113 C -2.999877 0.795762 -2.684252 1.558262 -2.121752 2.120762 C -1.559252 2.683262 -0.796752 2.998887 0.000123 2.998887 Z M 0.000123 2.998887 " transform="matrix(1.25,0,0,1.25,237.199065,54.79436)"/>
<path style="fill-rule:nonzero;fill:rgb(100%,49.803922%,5.490196%);fill-opacity:1;stroke-width:1;stroke-linecap:butt;stroke-linejoin:round;stroke:rgb(100%,49.803922%,5.490196%);stroke-opacity:1;stroke-miterlimit:4;" d="M -0.001268 3.000883 C 0.795607 3.000883 1.558107 2.685258 2.120607 2.122758 C 2.683107 1.560258 2.998732 0.794633 2.998732 0.000883 C 2.998732 -0.795992 2.683107 -1.558492 2.120607 -2.120992 C 1.558107 -2.683492 0.795607 -2.999117 -0.001268 -2.999117 C -0.795018 -2.999117 -1.557518 -2.683492 -2.120018 -2.120992 C -2.682518 -1.558492 -3.001268 -0.795992 -3.001268 0.000883 C -3.001268 0.794633 -2.682518 1.560258 -2.120018 2.122758 C -1.557518 2.685258 -0.795018 3.000883 -0.001268 3.000883 Z M -0.001268 3.000883 " transform="matrix(1.25,0,0,1.25,239.755491,54.045771)"/>
<path style="fill-rule:nonzero;fill:rgb(100%,49.803922%,5.490196%);fill-opacity:1;stroke-width:1;stroke-linecap:butt;stroke-linejoin:round;stroke:rgb(100%,49.803922%,5.490196%);stroke-opacity:1;stroke-miterlimit:4;" d="M -0.000545 3.000851 C 0.79633 3.000851 1.55883 2.685226 2.12133 2.122726 C 2.68383 1.560226 2.999455 0.794601 2.999455 0.000851 C 2.999455 -0.796024 2.68383 -1.558524 2.12133 -2.121024 C 1.55883 -2.683524 0.79633 -2.999149 -0.000545 -2.999149 C -0.794295 -2.999149 -1.55992 -2.683524 -2.12242 -2.121024 C -2.68492 -1.558524 -3.000545 -0.796024 -3.000545 0.000851 C -3.000545 0.794601 -2.68492 1.560226 -2.12242 2.122726 C -1.55992 2.685226 -0.794295 3.000851 -0.000545 3.000851 Z M -0.000545 3.000851 " transform="matrix(1.25,0,0,1.25,240.3249,52.553624)"/>
<path style="fill-rule:nonzero;fill:rgb(100%,49.803922%,5.490196%);fill-opacity:1;stroke-width:1;stroke-linecap:butt;stroke-linejoin:round;stroke:rgb(100%,49.803922%,5.490196%);stroke-opacity:1;stroke-miterlimit:4;" d="M -0.000089 3.00087 C 0.796786 3.00087 1.559286 2.685245 2.121786 2.122745 C 2.684286 1.560245 2.999911 0.79462 2.999911 0.00087 C 2.999911 -0.796005 2.684286 -1.558505 2.121786 -2.121005 C 1.559286 -2.683505 0.796786 -2.99913 -0.000089 -2.99913 C -0.796964 -2.99913 -1.559464 -2.683505 -2.121964 -2.121005 C -2.684464 -1.558505 -3.000089 -0.796005 -3.000089 0.00087 C -3.000089 0.79462 -2.684464 1.560245 -2.121964 2.122745 C -1.559464 2.685245 -0.796964 3.00087 -0.000089 3.00087 Z M -0.000089 3.00087 " transform="matrix(1.25,0,0,1.25,248.578236,47.6786)"/>
<path style="fill-rule:nonzero;fill:rgb(100%,49.803922%,5.490196%);fill-opacity:1;stroke-width:1;stroke-linecap:butt;stroke-linejoin:round;stroke:rgb(100%,49.803922%,5.490196%);stroke-opacity:1;stroke-miterlimit:4;" d="M 0.000883 3.001153 C 0.794633 3.001153 1.560258 2.682403 2.122758 2.119903 C 2.685258 1.557403 3.000883 0.794903 3.000883 0.001153 C 3.000883 -0.795722 2.685258 -1.558222 2.122758 -2.120722 C 1.560258 -2.683222 0.794633 -2.998847 0.000883 -2.998847 C -0.795992 -2.998847 -1.558492 -2.683222 -2.120992 -2.120722 C -2.683492 -1.558222 -2.999117 -0.795722 -2.999117 0.001153 C -2.999117 0.794903 -2.683492 1.557403 -2.120992 2.119903 C -1.558492 2.682403 -0.795992 3.001153 0.000883 3.001153 Z M 0.000883 3.001153 " transform="matrix(1.25,0,0,1.25,254.483271,51.494653)"/>
<path style="fill-rule:nonzero;fill:rgb(100%,49.803922%,5.490196%);fill-opacity:1;stroke-width:1;stroke-linecap:butt;stroke-linejoin:round;stroke:rgb(100%,49.803922%,5.490196%);stroke-opacity:1;stroke-miterlimit:4;" d="M -0.000599 3.000452 C 0.796276 3.000452 1.558776 2.684827 2.121276 2.122327 C 2.683776 1.559827 2.999401 0.794202 2.999401 0.000452 C 2.999401 -0.796423 2.683776 -1.558923 2.121276 -2.121423 C 1.558776 -2.683923 0.796276 -2.999548 -0.000599 -2.999548 C -0.794349 -2.999548 -1.559974 -2.683923 -2.122474 -2.121423 C -2.684974 -1.558923 -3.000599 -0.796423 -3.000599 0.000452 C -3.000599 0.794202 -2.684974 1.559827 -2.122474 2.122327 C -1.559974 2.684827 -0.794349 3.000452 -0.000599 3.000452 Z M -0.000599 3.000452 " transform="matrix(1.25,0,0,1.25,261.821061,45.722091)"/>
<path style="fill-rule:nonzero;fill:rgb(100%,49.803922%,5.490196%);fill-opacity:1;stroke-width:1;stroke-linecap:butt;stroke-linejoin:round;stroke:rgb(100%,49.803922%,5.490196%);stroke-opacity:1;stroke-miterlimit:4;" d="M -0.00043 2.998647 C 0.796445 2.998647 1.558945 2.683022 2.121445 2.120522 C 2.683945 1.558022 2.99957 0.795522 2.99957 -0.001353 C 2.99957 -0.795103 2.683945 -1.557603 2.121445 -2.120103 C 1.558945 -2.682603 0.796445 -3.001353 -0.00043 -3.001353 C -0.79418 -3.001353 -1.559805 -2.682603 -2.122305 -2.120103 C -2.684805 -1.557603 -3.00043 -0.795103 -3.00043 -0.001353 C -3.00043 0.795522 -2.684805 1.558022 -2.122305 2.120522 C -1.559805 2.683022 -0.79418 2.998647 -0.00043 2.998647 Z M -0.00043 2.998647 " transform="matrix(1.25,0,0,1.25,266.047412,41.126691)"/>
<path style="fill-rule:nonzero;fill:rgb(100%,49.803922%,5.490196%);fill-opacity:1;stroke-width:1;stroke-linecap:butt;stroke-linejoin:round;stroke:rgb(100%,49.803922%,5.490196%);stroke-opacity:1;stroke-miterlimit:4;" d="M -0.000045 3.001186 C 0.79683 3.001186 1.55933 2.682436 2.12183 2.119936 C 2.68433 1.557436 2.999955 0.794936 2.999955 0.001186 C 2.999955 -0.795689 2.68433 -1.558189 2.12183 -2.120689 C 1.55933 -2.683189 0.79683 -2.998814 -0.000045 -2.998814 C -0.79692 -2.998814 -1.55942 -2.683189 -2.12192 -2.120689 C -2.68442 -1.558189 -3.000045 -0.795689 -3.000045 0.001186 C -3.000045 0.794936 -2.68442 1.557436 -2.12192 2.119936 C -1.55942 2.682436 -0.79692 3.001186 -0.000045 3.001186 Z M -0.000045 3.001186 " transform="matrix(1.25,0,0,1.25,271.078181,41.939924)"/>
<path style="fill-rule:nonzero;fill:rgb(100%,49.803922%,5.490196%);fill-opacity:1;stroke-width:1;stroke-linecap:butt;stroke-linejoin:round;stroke:rgb(100%,49.803922%,5.490196%);stroke-opacity:1;stroke-miterlimit:4;" d="M 0.001523 2.998444 C 0.795273 2.998444 1.557773 2.682819 2.120273 2.120319 C 2.682773 1.557819 3.001523 0.795319 3.001523 -0.001556 C 3.001523 -0.795306 2.682773 -1.557806 2.120273 -2.120306 C 1.557773 -2.682806 0.795273 -3.001556 0.001523 -3.001556 C -0.795352 -3.001556 -1.557852 -2.682806 -2.120352 -2.120306 C -2.682852 -1.557806 -2.998477 -0.795306 -2.998477 -0.001556 C -2.998477 0.795319 -2.682852 1.557819 -2.120352 2.120319 C -1.557852 2.682819 -0.795352 2.998444 0.001523 2.998444 Z M 0.001523 2.998444 " transform="matrix(1.25,0,0,1.25,264.646534,48.732414)"/>
<path style="fill-rule:nonzero;fill:rgb(100%,49.803922%,5.490196%);fill-opacity:1;stroke-width:1;stroke-linecap:butt;stroke-linejoin:round;stroke:rgb(100%,49.803922%,5.490196%);stroke-opacity:1;stroke-miterlimit:4;" d="M -0.000834 2.999315 C 0.796041 2.999315 1.558541 2.68369 2.121041 2.12119 C 2.683541 1.55869 2.999166 0.79619 2.999166 -0.000685 C 2.999166 -0.794435 2.683541 -1.56006 2.121041 -2.12256 C 1.558541 -2.68506 0.796041 -3.000685 -0.000834 -3.000685 C -0.794584 -3.000685 -1.560209 -2.68506 -2.122709 -2.12256 C -2.685209 -1.56006 -3.000834 -0.794435 -3.000834 -0.000685 C -3.000834 0.79619 -2.685209 1.55869 -2.122709 2.12119 C -1.560209 2.68369 -0.794584 2.999315 -0.000834 2.999315 Z M -0.000834 2.999315 " transform="matrix(1.25,0,0,1.25,266.626042,54.180544)"/>
<path style="fill-rule:nonzero;fill:rgb(100%,49.803922%,5.490196%);fill-opacity:1;stroke-width:1;stroke-linecap:butt;stroke-linejoin:round;stroke:rgb(100%,49.803922%,5.490196%);stroke-opacity:1;stroke-miterlimit:4;" d="M 0.001222 2.999204 C 0.794972 2.999204 1.557472 2.683579 2.119972 2.121079 C 2.682472 1.558579 3.001222 0.796079 3.001222 -0.000796 C 3.001222 -0.794546 2.682472 -1.560171 2.119972 -2.122671 C 1.557472 -2.685171 0.794972 -3.000796 0.001222 -3.000796 C -0.795653 -3.000796 -1.558153 -2.685171 -2.120653 -2.122671 C -2.683153 -1.560171 -2.998778 -0.794546 -2.998778 -0.000796 C -2.998778 0.796079 -2.683153 1.558579 -2.120653 2.121079 C -1.558153 2.683579 -0.795653 2.999204 0.001222 2.999204 Z M 0.001222 2.999204 " transform="matrix(1.25,0,0,1.25,269.619566,49.512714)"/>
<path style="fill-rule:nonzero;fill:rgb(100%,49.803922%,5.490196%);fill-opacity:1;stroke-width:1;stroke-linecap:butt;stroke-linejoin:round;stroke:rgb(100%,49.803922%,5.490196%);stroke-opacity:1;stroke-miterlimit:4;" d="M -0.000983 2.998698 C 0.795892 2.998698 1.558392 2.683073 2.120892 2.120573 C 2.683392 1.558073 2.999017 0.795573 2.999017 -0.001302 C 2.999017 -0.795052 2.683392 -1.557552 2.120892 -2.120052 C 1.558392 -2.682552 0.795892 -3.001302 -0.000983 -3.001302 C -0.794733 -3.001302 -1.557233 -2.682552 -2.122858 -2.120052 C -2.685358 -1.557552 -3.000983 -0.795052 -3.000983 -0.001302 C -3.000983 0.795573 -2.685358 1.558073 -2.122858 2.120573 C -1.557233 2.683073 -0.794733 2.998698 -0.000983 2.998698 Z M -0.000983 2.998698 " transform="matrix(1.25,0,0,1.25,266.891854,53.431315)"/>
<path style="fill-rule:nonzero;fill:rgb(100%,49.803922%,5.490196%);fill-opacity:1;stroke-width:1;stroke-linecap:butt;stroke-linejoin:round;stroke:rgb(100%,49.803922%,5.490196%);stroke-opacity:1;stroke-miterlimit:4;" d="M 0.000636 2.999913 C 0.794386 2.999913 1.560011 2.684288 2.122511 2.121788 C 2.685011 1.559288 3.000636 0.796788 3.000636 -0.000087 C 3.000636 -0.796962 2.685011 -1.559462 2.122511 -2.121962 C 1.560011 -2.684462 0.794386 -3.000087 0.000636 -3.000087 C -0.796239 -3.000087 -1.558739 -2.684462 -2.121239 -2.121962 C -2.683739 -1.559462 -2.999364 -0.796962 -2.999364 -0.000087 C -2.999364 0.796788 -2.683739 1.559288 -2.121239 2.121788 C -1.558739 2.684288 -0.796239 2.999913 0.000636 2.999913 Z M 0.000636 2.999913 " transform="matrix(1.25,0,0,1.25,271.553892,49.351671)"/>
<path style="fill-rule:nonzero;fill:rgb(100%,49.803922%,5.490196%);fill-opacity:1;stroke-width:1;stroke-linecap:butt;stroke-linejoin:round;stroke:rgb(100%,49.803922%,5.490196%);stroke-opacity:1;stroke-miterlimit:4;" d="M 0.000587 3.001104 C 0.794337 3.001104 1.559962 2.682354 2.122462 2.119854 C 2.684962 1.557354 3.000587 0.794854 3.000587 0.001104 C 3.000587 -0.795771 2.684962 -1.558271 2.122462 -2.120771 C 1.559962 -2.683271 0.794337 -2.998896 0.000587 -2.998896 C -0.796288 -2.998896 -1.558788 -2.683271 -2.121288 -2.120771 C -2.683788 -1.558271 -2.999413 -0.795771 -2.999413 0.001104 C -2.999413 0.794854 -2.683788 1.557354 -2.121288 2.119854 C -1.558788 2.682354 -0.796288 3.001104 0.000587 3.001104 Z M 0.000587 3.001104 " transform="matrix(1.25,0,0,1.25,262.194579,50.475183)"/>
<path style="fill-rule:nonzero;fill:rgb(100%,49.803922%,5.490196%);fill-opacity:1;stroke-width:1;stroke-linecap:butt;stroke-linejoin:round;stroke:rgb(100%,49.803922%,5.490196%);stroke-opacity:1;stroke-miterlimit:4;" d="M -0.001127 2.998564 C 0.795748 2.998564 1.558248 2.682939 2.120748 2.120439 C 2.683248 1.557939 2.998873 0.795439 2.998873 -0.001436 C 2.998873 -0.795186 2.683248 -1.557686 2.120748 -2.120186 C 1.558248 -2.682686 0.795748 -3.001436 -0.001127 -3.001436 C -0.794877 -3.001436 -1.557377 -2.682686 -2.119877 -2.120186 C -2.682377 -1.557686 -3.001127 -0.795186 -3.001127 -0.001436 C -3.001127 0.795439 -2.682377 1.557939 -2.119877 2.120439 C -1.557377 2.682939 -0.794877 2.998564 -0.001127 2.998564 Z M -0.001127 2.998564 " transform="matrix(1.25,0,0,1.25,260.231877,54.185389)"/>
<path style="fill-rule:nonzero;fill:rgb(100%,49.803922%,5.490196%);fill-opacity:1;stroke-width:1;stroke-linecap:butt;stroke-linejoin:round;stroke:rgb(100%,49.803922%,5.490196%);stroke-opacity:1;stroke-miterlimit:4;" d="M 0.000608 2.999451 C 0.794358 2.999451 1.559983 2.683826 2.122483 2.121326 C 2.684983 1.558826 3.000608 0.796326 3.000608 -0.000549 C 3.000608 -0.794299 2.684983 -1.559924 2.122483 -2.122424 C 1.559983 -2.684924 0.794358 -3.000549 0.000608 -3.000549 C -0.796267 -3.000549 -1.558767 -2.684924 -2.121267 -2.122424 C -2.683767 -1.559924 -2.999392 -0.794299 -2.999392 -0.000549 C -2.999392 0.796326 -2.683767 1.558826 -2.121267 2.121326 C -1.558767 2.683826 -0.796267 2.999451 0.000608 2.999451 Z M 0.000608 2.999451 " transform="matrix(1.25,0,0,1.25,262.815646,43.711624)"/>
<path style="fill-rule:nonzero;fill:rgb(100%,49.803922%,5.490196%);fill-opacity:1;stroke-width:1;stroke-linecap:butt;stroke-linejoin:round;stroke:rgb(100%,49.803922%,5.490196%);stroke-opacity:1;stroke-miterlimit:4;" d="M -0.001377 3.001534 C 0.795498 3.001534 1.557998 2.682784 2.120498 2.120284 C 2.682998 1.557784 2.998623 0.795284 2.998623 0.001534 C 2.998623 -0.795341 2.682998 -1.557841 2.120498 -2.120341 C 1.557998 -2.682841 0.795498 -2.998466 -0.001377 -2.998466 C -0.795127 -2.998466 -1.557627 -2.682841 -2.120127 -2.120341 C -2.682627 -1.557841 -3.001377 -0.795341 -3.001377 0.001534 C -3.001377 0.795284 -2.682627 1.557784 -2.120127 2.120284 C -1.557627 2.682784 -0.795127 3.001534 -0.001377 3.001534 Z M -0.001377 3.001534 " transform="matrix(1.25,0,0,1.25,260.368909,43.798864)"/>
<path style="fill-rule:nonzero;fill:rgb(100%,49.803922%,5.490196%);fill-opacity:1;stroke-width:1;stroke-linecap:butt;stroke-linejoin:round;stroke:rgb(100%,49.803922%,5.490196%);stroke-opacity:1;stroke-miterlimit:4;" d="M -0.000888 2.99853 C 0.795987 2.99853 1.558487 2.682905 2.120987 2.120405 C 2.683487 1.557905 2.999112 0.795405 2.999112 -0.00147 C 2.999112 -0.79522 2.683487 -1.55772 2.120987 -2.12022 C 1.558487 -2.68272 0.795987 -3.00147 -0.000888 -3.00147 C -0.794638 -3.00147 -1.560263 -2.68272 -2.122763 -2.12022 C -2.685263 -1.55772 -3.000888 -0.79522 -3.000888 -0.00147 C -3.000888 0.795405 -2.685263 1.557905 -2.122763 2.120405 C -1.560263 2.682905 -0.794638 2.99853 -0.000888 2.99853 Z M -0.000888 2.99853 " transform="matrix(1.25,0,0,1.25,259.669079,40.095588)"/>
<path style="fill-rule:nonzero;fill:rgb(100%,49.803922%,5.490196%);fill-opacity:1;stroke-width:1;stroke-linecap:butt;stroke-linejoin:round;stroke:rgb(100%,49.803922%,5.490196%);stroke-opacity:1;stroke-miterlimit:4;" d="M -0.000435 2.999393 C 0.79644 2.999393 1.55894 2.683768 2.12144 2.121268 C 2.68394 1.558768 2.999565 0.796268 2.999565 -0.000607 C 2.999565 -0.794357 2.68394 -1.559982 2.12144 -2.122482 C 1.55894 -2.684982 0.79644 -3.000607 -0.000435 -3.000607 C -0.794185 -3.000607 -1.55981 -2.684982 -2.12231 -2.122482 C -2.68481 -1.559982 -3.000435 -0.794357 -3.000435 -0.000607 C -3.000435 0.796268 -2.68481 1.558768 -2.12231 2.121268 C -1.55981 2.683768 -0.794185 2.999393 -0.000435 2.999393 Z M -0.000435 2.999393 " transform="matrix(1.25,0,0,1.25,258.945856,50.106228)"/>
<path style="fill-rule:nonzero;fill:rgb(100%,49.803922%,5.490196%);fill-opacity:1;stroke-width:1;stroke-linecap:butt;stroke-linejoin:round;stroke:rgb(100%,49.803922%,5.490196%);stroke-opacity:1;stroke-miterlimit:4;" d="M -0.001393 3.001067 C 0.795482 3.001067 1.557982 2.685442 2.120482 2.119817 C 2.682982 1.557317 2.998607 0.794817 2.998607 0.001067 C 2.998607 -0.795808 2.682982 -1.558308 2.120482 -2.120808 C 1.557982 -2.683308 0.795482 -2.998933 -0.001393 -2.998933 C -0.795143 -2.998933 -1.557643 -2.683308 -2.120143 -2.120808 C -2.682643 -1.558308 -3.001393 -0.795808 -3.001393 0.001067 C -3.001393 0.794817 -2.682643 1.557317 -2.120143 2.119817 C -1.557643 2.685442 -0.795143 3.001067 -0.001393 3.001067 Z M -0.001393 3.001067 " transform="matrix(1.25,0,0,1.25,258.849397,51.783823)"/>
<path style="fill-rule:nonzero;fill:rgb(100%,49.803922%,5.490196%);fill-opacity:1;stroke-width:1;stroke-linecap:butt;stroke-linejoin:round;stroke:rgb(100%,49.803922%,5.490196%);stroke-opacity:1;stroke-miterlimit:4;" d="M -0.00148 3.001325 C 0.795395 3.001325 1.557895 2.682575 2.120395 2.120075 C 2.682895 1.557575 2.99852 0.795075 2.99852 0.001325 C 2.99852 -0.79555 2.682895 -1.55805 2.120395 -2.12055 C 1.557895 -2.68305 0.795395 -2.998675 -0.00148 -2.998675 C -0.79523 -2.998675 -1.55773 -2.68305 -2.12023 -2.12055 C -2.68273 -1.55805 -3.00148 -0.79555 -3.00148 0.001325 C -3.00148 0.795075 -2.68273 1.557575 -2.12023 2.120075 C -1.55773 2.682575 -0.79523 3.001325 -0.00148 3.001325 Z M -0.00148 3.001325 " transform="matrix(1.25,0,0,1.25,255.997944,46.123344)"/>
<path style="fill-rule:nonzero;fill:rgb(100%,49.803922%,5.490196%);fill-opacity:1;stroke-width:1;stroke-linecap:butt;stroke-linejoin:round;stroke:rgb(100%,49.803922%,5.490196%);stroke-opacity:1;stroke-miterlimit:4;" d="M -0.000329 3.000749 C 0.796546 3.000749 1.559046 2.685124 2.121546 2.122624 C 2.684046 1.560124 2.999671 0.794499 2.999671 0.000749 C 2.999671 -0.796126 2.684046 -1.558626 2.121546 -2.121126 C 1.559046 -2.683626 0.796546 -2.999251 -0.000329 -2.999251 C -0.794079 -2.999251 -1.559704 -2.683626 -2.122204 -2.121126 C -2.684704 -1.558626 -3.000329 -0.796126 -3.000329 0.000749 C -3.000329 0.794499 -2.684704 1.560124 -2.122204 2.122624 C -1.559704 2.685124 -0.794079 3.000749 -0.000329 3.000749 Z M -0.000329 3.000749 " transform="matrix(1.25,0,0,1.25,257.672286,45.850626)"/>
<path style="fill-rule:nonzero;fill:rgb(100%,49.803922%,5.490196%);fill-opacity:1;stroke-width:1;stroke-linecap:butt;stroke-linejoin:round;stroke:rgb(100%,49.803922%,5.490196%);stroke-opacity:1;stroke-miterlimit:4;" d="M 0.000991 3.000719 C 0.794741 3.000719 1.557241 2.685094 2.122866 2.122594 C 2.685366 1.560094 3.000991 0.794469 3.000991 0.000719 C 3.000991 -0.796156 2.685366 -1.558656 2.122866 -2.121156 C 1.557241 -2.683656 0.794741 -2.999281 0.000991 -2.999281 C -0.795884 -2.999281 -1.558384 -2.683656 -2.120884 -2.121156 C -2.683384 -1.558656 -2.999009 -0.796156 -2.999009 0.000719 C -2.999009 0.794469 -2.683384 1.560094 -2.120884 2.122594 C -1.558384 2.685094 -0.795884 3.000719 0.000991 3.000719 Z M 0.000991 3.000719 " transform="matrix(1.25,0,0,1.25,259.424542,48.686601)"/>
<path style="fill-rule:nonzero;fill:rgb(100%,49.803922%,5.490196%);fill-opacity:1;stroke-width:1;stroke-linecap:butt;stroke-linejoin:round;stroke:rgb(100%,49.803922%,5.490196%);stroke-opacity:1;stroke-miterlimit:4;" d="M 0.001116 3.001553 C 0.794866 3.001553 1.557366 2.682803 2.119866 2.120303 C 2.682366 1.557803 3.001116 0.795303 3.001116 0.001553 C 3.001116 -0.795322 2.682366 -1.557822 2.119866 -2.120322 C 1.557366 -2.682822 0.794866 -2.998447 0.001116 -2.998447 C -0.795759 -2.998447 -1.558259 -2.682822 -2.120759 -2.120322 C -2.683259 -1.557822 -2.998884 -0.795322 -2.998884 0.001553 C -2.998884 0.795303 -2.683259 1.557803 -2.120759 2.120303 C -1.558259 2.682803 -0.795759 3.001553 0.001116 3.001553 Z M 0.001116 3.001553 " transform="matrix(1.25,0,0,1.25,257.315011,52.263684)"/>
<path style="fill-rule:nonzero;fill:rgb(100%,49.803922%,5.490196%);fill-opacity:1;stroke-width:1;stroke-linecap:butt;stroke-linejoin:round;stroke:rgb(100%,49.803922%,5.490196%);stroke-opacity:1;stroke-miterlimit:4;" d="M 0.000505 3.000255 C 0.794255 3.000255 1.55988 2.68463 2.12238 2.12213 C 2.68488 1.55963 3.000505 0.79713 3.000505 0.000255 C 3.000505 -0.79662 2.68488 -1.55912 2.12238 -2.12162 C 1.55988 -2.68412 0.794255 -2.999745 0.000505 -2.999745 C -0.79637 -2.999745 -1.55887 -2.68412 -2.12137 -2.12162 C -2.68387 -1.55912 -2.999495 -0.79662 -2.999495 0.000255 C -2.999495 0.79713 -2.68387 1.55963 -2.12137 2.12213 C -1.55887 2.68463 -0.79637 3.000255 0.000505 3.000255 Z M 0.000505 3.000255 " transform="matrix(1.25,0,0,1.25,256.1439,55.722338)"/>
<path style="fill-rule:nonzero;fill:rgb(100%,49.803922%,5.490196%);fill-opacity:1;stroke-width:1;stroke-linecap:butt;stroke-linejoin:round;stroke:rgb(100%,49.803922%,5.490196%);stroke-opacity:1;stroke-miterlimit:4;" d="M 0.00124 3.000787 C 0.79499 3.000787 1.55749 2.685162 2.11999 2.122662 C 2.68249 1.560162 3.00124 0.794537 3.00124 0.000787 C 3.00124 -0.796088 2.68249 -1.558588 2.11999 -2.121088 C 1.55749 -2.683588 0.79499 -2.999213 0.00124 -2.999213 C -0.795635 -2.999213 -1.558135 -2.683588 -2.120635 -2.121088 C -2.683135 -1.558588 -2.99876 -0.796088 -2.99876 0.000787 C -2.99876 0.794537 -2.683135 1.560162 -2.120635 2.122662 C -1.558135 2.685162 -0.795635 3.000787 0.00124 3.000787 Z M 0.00124 3.000787 " transform="matrix(1.25,0,0,1.25,257.275794,56.795891)"/>
<path style="fill-rule:nonzero;fill:rgb(100%,49.803922%,5.490196%);fill-opacity:1;stroke-width:1;stroke-linecap:butt;stroke-linejoin:round;stroke:rgb(100%,49.803922%,5.490196%);stroke-opacity:1;stroke-miterlimit:4;" d="M 0.000457 2.998468 C 0.794207 2.998468 1.559832 2.682843 2.122332 2.120343 C 2.684832 1.557843 3.000457 0.795343 3.000457 -0.001532 C 3.000457 -0.795282 2.684832 -1.557782 2.122332 -2.120282 C 1.559832 -2.682782 0.794207 -3.001532 0.000457 -3.001532 C -0.796418 -3.001532 -1.558918 -2.682782 -2.121418 -2.120282 C -2.683918 -1.557782 -2.999543 -0.795282 -2.999543 -0.001532 C -2.999543 0.795343 -2.683918 1.557843 -2.121418 2.120343 C -1.558918 2.682843 -0.796418 2.998468 0.000457 2.998468 Z M 0.000457 2.998468 " transform="matrix(1.25,0,0,1.25,261.48771,52.919884)"/>
<path style="fill-rule:nonzero;fill:rgb(100%,49.803922%,5.490196%);fill-opacity:1;stroke-width:1;stroke-linecap:butt;stroke-linejoin:round;stroke:rgb(100%,49.803922%,5.490196%);stroke-opacity:1;stroke-miterlimit:4;" d="M 0.001379 3.001182 C 0.795129 3.001182 1.557629 2.682432 2.120129 2.119932 C 2.682629 1.557432 3.001379 0.794932 3.001379 0.001182 C 3.001379 -0.795693 2.682629 -1.558193 2.120129 -2.120693 C 1.557629 -2.683193 0.795129 -2.998818 0.001379 -2.998818 C -0.795496 -2.998818 -1.557996 -2.683193 -2.120496 -2.120693 C -2.682996 -1.558193 -2.998621 -0.795693 -2.998621 0.001182 C -2.998621 0.794932 -2.682996 1.557432 -2.120496 2.119932 C -1.557996 2.682432 -0.795496 3.001182 0.001379 3.001182 Z M 0.001379 3.001182 " transform="matrix(1.25,0,0,1.25,258.232651,52.932116)"/>
<path style="fill-rule:nonzero;fill:rgb(100%,49.803922%,5.490196%);fill-opacity:1;stroke-width:1;stroke-linecap:butt;stroke-linejoin:round;stroke:rgb(100%,49.803922%,5.490196%);stroke-opacity:1;stroke-miterlimit:4;" d="M -0.000726 2.999839 C 0.796149 2.999839 1.558649 2.684214 2.121149 2.121714 C 2.683649 1.559214 2.999274 0.796714 2.999274 -0.000161 C 2.999274 -0.797036 2.683649 -1.559536 2.121149 -2.122036 C 1.558649 -2.684536 0.796149 -3.000161 -0.000726 -3.000161 C -0.794476 -3.000161 -1.560101 -2.684536 -2.122601 -2.122036 C -2.685101 -1.559536 -3.000726 -0.797036 -3.000726 -0.000161 C -3.000726 0.796714 -2.685101 1.559214 -2.122601 2.121714 C -1.560101 2.684214 -0.794476 2.999839 -0.000726 2.999839 Z M -0.000726 2.999839 " transform="matrix(1.25,0,0,1.25,256.22747,46.863483)"/>
<path style="fill-rule:nonzero;fill:rgb(100%,49.803922%,5.490196%);fill-opacity:1;stroke-width:1;stroke-linecap:butt;stroke-linejoin:round;stroke:rgb(100%,49.803922%,5.490196%);stroke-opacity:1;stroke-miterlimit:4;" d="M 0.000135 2.999496 C 0.79701 2.999496 1.55951 2.683871 2.12201 2.121371 C 2.68451 1.558871 3.000135 0.796371 3.000135 -0.000504 C 3.000135 -0.794254 2.68451 -1.559879 2.12201 -2.122379 C 1.55951 -2.684879 0.79701 -3.000504 0.000135 -3.000504 C -0.79674 -3.000504 -1.55924 -2.684879 -2.12174 -2.122379 C -2.68424 -1.559879 -2.999865 -0.794254 -2.999865 -0.000504 C -2.999865 0.796371 -2.68424 1.558871 -2.12174 2.121371 C -1.55924 2.683871 -0.79674 2.999496 0.000135 2.999496 Z M 0.000135 2.999496 " transform="matrix(1.25,0,0,1.25,259.089675,53.559224)"/>
<path style="fill-rule:nonzero;fill:rgb(100%,49.803922%,5.490196%);fill-opacity:1;stroke-width:1;stroke-linecap:butt;stroke-linejoin:round;stroke:rgb(100%,49.803922%,5.490196%);stroke-opacity:1;stroke-miterlimit:4;" d="M 0.001507 3.000447 C 0.795257 3.000447 1.557757 2.684822 2.120257 2.122322 C 2.682757 1.559822 3.001507 0.794197 3.001507 0.000447 C 3.001507 -0.796428 2.682757 -1.558928 2.120257 -2.121428 C 1.557757 -2.683928 0.795257 -2.999553 0.001507 -2.999553 C -0.795368 -2.999553 -1.557868 -2.683928 -2.120368 -2.121428 C -2.682868 -1.558928 -2.998493 -0.796428 -2.998493 0.000447 C -2.998493 0.794197 -2.682868 1.559822 -2.120368 2.122322 C -1.557868 2.684822 -0.795368 3.000447 0.001507 3.000447 Z M 0.001507 3.000447 " transform="matrix(1.25,0,0,1.25,261.537179,54.905691)"/>
<path style="fill-rule:nonzero;fill:rgb(100%,49.803922%,5.490196%);fill-opacity:1;stroke-width:1;stroke-linecap:butt;stroke-linejoin:round;stroke:rgb(100%,49.803922%,5.490196%);stroke-opacity:1;stroke-miterlimit:4;" d="M -0.001081 2.999977 C 0.795794 2.999977 1.558294 2.684352 2.120794 2.121852 C 2.683294 1.559352 2.998919 0.796852 2.998919 -0.000023 C 2.998919 -0.796898 2.683294 -1.559398 2.120794 -2.121898 C 1.558294 -2.684398 0.795794 -3.000023 -0.001081 -3.000023 C -0.794831 -3.000023 -1.557331 -2.684398 -2.119831 -2.121898 C -2.685456 -1.559398 -3.001081 -0.796898 -3.001081 -0.000023 C -3.001081 0.796852 -2.685456 1.559352 -2.119831 2.121852 C -1.557331 2.684352 -0.794831 2.999977 -0.001081 2.999977 Z M -0.001081 2.999977 " transform="matrix(1.25,0,0,1.25,258.313851,48.515654)"/>
<path style="fill-rule:nonzero;fill:rgb(100%,49.803922%,5.490196%);fill-opacity:1;stroke-width:1;stroke-linecap:butt;stroke-linejoin:round;stroke:rgb(100%,49.803922%,5.490196%);stroke-opacity:1;stroke-miterlimit:4;" d="M 0.000608 2.999833 C 0.794358 2.999833 1.559983 2.684208 2.122483 2.121708 C 2.684983 1.559208 3.000608 0.796708 3.000608 -0.000167 C 3.000608 -0.797042 2.684983 -1.559542 2.122483 -2.122042 C 1.559983 -2.684542 0.794358 -3.000167 0.000608 -3.000167 C -0.796267 -3.000167 -1.558767 -2.684542 -2.121267 -2.122042 C -2.683767 -1.559542 -2.999392 -0.797042 -2.999392 -0.000167 C -2.999392 0.796708 -2.683767 1.559208 -2.121267 2.121708 C -1.558767 2.684208 -0.796267 2.999833 0.000608 2.999833 Z M 0.000608 2.999833 " transform="matrix(1.25,0,0,1.25,259.550021,52.355678)"/>
<path style="fill-rule:nonzero;fill:rgb(100%,49.803922%,5.490196%);fill-opacity:1;stroke-width:1;stroke-linecap:butt;stroke-linejoin:round;stroke:rgb(100%,49.803922%,5.490196%);stroke-opacity:1;stroke-miterlimit:4;" d="M -0.001281 3.000259 C 0.795594 3.000259 1.558094 2.684634 2.120594 2.122134 C 2.683094 1.559634 2.998719 0.797134 2.998719 0.000259 C 2.998719 -0.796616 2.683094 -1.559116 2.120594 -2.121616 C 1.558094 -2.684116 0.795594 -2.999741 -0.001281 -2.999741 C -0.795031 -2.999741 -1.557531 -2.684116 -2.120031 -2.121616 C -2.682531 -1.559116 -3.001281 -0.796616 -3.001281 0.000259 C -3.001281 0.797134 -2.682531 1.559634 -2.120031 2.122134 C -1.557531 2.684634 -0.795031 3.000259 -0.001281 3.000259 Z M -0.001281 3.000259 " transform="matrix(1.25,0,0,1.25,267.41957,54.941083)"/>
<path style="fill-rule:nonzero;fill:rgb(100%,49.803922%,5.490196%);fill-opacity:1;stroke-width:1;stroke-linecap:butt;stroke-linejoin:round;stroke:rgb(100%,49.803922%,5.490196%);stroke-opacity:1;stroke-miterlimit:4;" d="M 0.000674 3.00075 C 0.794424 3.00075 1.560049 2.685125 2.122549 2.122625 C 2.685049 1.560125 3.000674 0.7945 3.000674 0.00075 C 3.000674 -0.796125 2.685049 -1.558625 2.122549 -2.121125 C 1.560049 -2.683625 0.794424 -2.99925 0.000674 -2.99925 C -0.796201 -2.99925 -1.558701 -2.683625 -2.121201 -2.121125 C -2.683701 -1.558625 -2.999326 -0.796125 -2.999326 0.00075 C -2.999326 0.7945 -2.683701 1.560125 -2.121201 2.122625 C -1.558701 2.685125 -0.796201 3.00075 0.000674 3.00075 Z M 0.000674 3.00075 " transform="matrix(1.25,0,0,1.25,259.25697,54.038125)"/>
<path style="fill-rule:nonzero;fill:rgb(100%,49.803922%,5.490196%);fill-opacity:1;stroke-width:1;stroke-linecap:butt;stroke-linejoin:round;stroke:rgb(100%,49.803922%,5.490196%);stroke-opacity:1;stroke-miterlimit:4;" d="M 0.000057 3.001471 C 0.796932 3.001471 1.559432 2.682721 2.121932 2.120221 C 2.684432 1.557721 3.000057 0.795221 3.000057 0.001471 C 3.000057 -0.795404 2.684432 -1.557904 2.121932 -2.120404 C 1.559432 -2.682904 0.796932 -2.998529 0.000057 -2.998529 C -0.796818 -2.998529 -1.559318 -2.682904 -2.121818 -2.120404 C -2.684318 -1.557904 -2.999943 -0.795404 -2.999943 0.001471 C -2.999943 0.795221 -2.684318 1.557721 -2.121818 2.120221 C -1.559318 2.682721 -0.796818 3.001471 0.000057 3.001471 Z M 0.000057 3.001471 " transform="matrix(1.25,0,0,1.25,259.566335,43.486443)"/>
<path style="fill-rule:nonzero;fill:rgb(100%,49.803922%,5.490196%);fill-opacity:1;stroke-width:1;stroke-linecap:butt;stroke-linejoin:round;stroke:rgb(100%,49.803922%,5.490196%);stroke-opacity:1;stroke-miterlimit:4;" d="M -0.000293 2.999401 C 0.796582 2.999401 1.559082 2.683776 2.121582 2.121276 C 2.684082 1.558776 2.999707 0.796276 2.999707 -0.000599 C 2.999707 -0.794349 2.684082 -1.559974 2.121582 -2.122474 C 1.559082 -2.684974 0.796582 -3.000599 -0.000293 -3.000599 C -0.797168 -3.000599 -1.559668 -2.684974 -2.122168 -2.122474 C -2.684668 -1.559974 -3.000293 -0.794349 -3.000293 -0.000599 C -3.000293 0.796276 -2.684668 1.558776 -2.122168 2.121276 C -1.559668 2.683776 -0.797168 2.999401 -0.000293 2.999401 Z M -0.000293 2.999401 " transform="matrix(1.25,0,0,1.25,262.844116,50.160905)"/>
<path style="fill-rule:nonzero;fill:rgb(100%,49.803922%,5.490196%);fill-opacity:1;stroke-width:1;stroke-linecap:butt;stroke-linejoin:round;stroke:rgb(100%,49.803922%,5.490196%);stroke-opacity:1;stroke-miterlimit:4;" d="M -0.000843 3.000774 C 0.796032 3.000774 1.558532 2.685149 2.121032 2.122649 C 2.683532 1.560149 2.999157 0.794524 2.999157 0.000774 C 2.999157 -0.796101 2.683532 -1.558601 2.121032 -2.121101 C 1.558532 -2.683601 0.796032 -2.999226 -0.000843 -2.999226 C -0.794593 -2.999226 -1.560218 -2.683601 -2.122718 -2.121101 C -2.685218 -1.558601 -3.000843 -0.796101 -3.000843 0.000774 C -3.000843 0.794524 -2.685218 1.560149 -2.122718 2.122649 C -1.560218 2.685149 -0.794593 3.000774 -0.000843 3.000774 Z M -0.000843 3.000774 " transform="matrix(1.25,0,0,1.25,264.239335,56.940439)"/>
<path style="fill-rule:nonzero;fill:rgb(100%,49.803922%,5.490196%);fill-opacity:1;stroke-width:1;stroke-linecap:butt;stroke-linejoin:round;stroke:rgb(100%,49.803922%,5.490196%);stroke-opacity:1;stroke-miterlimit:4;" d="M -0.000391 2.998885 C 0.796484 2.998885 1.558984 2.68326 2.121484 2.12076 C 2.683984 1.55826 2.999609 0.79576 2.999609 -0.001115 C 2.999609 -0.794865 2.683984 -1.557365 2.121484 -2.119865 C 1.558984 -2.682365 0.796484 -3.001115 -0.000391 -3.001115 C -0.794141 -3.001115 -1.559766 -2.682365 -2.122266 -2.119865 C -2.684766 -1.557365 -3.000391 -0.794865 -3.000391 -0.001115 C -3.000391 0.79576 -2.684766 1.55826 -2.122266 2.12076 C -1.559766 2.68326 -0.794141 2.998885 -0.000391 2.998885 Z M -0.000391 2.998885 " transform="matrix(1.25,0,0,1.25,265.277832,46.03655)"/>
<path style="fill-rule:nonzero;fill:rgb(100%,49.803922%,5.490196%);fill-opacity:1;stroke-width:1;stroke-linecap:butt;stroke-linejoin:round;stroke:rgb(100%,49.803922%,5.490196%);stroke-opacity:1;stroke-miterlimit:4;" d="M 0.001423 2.998689 C 0.795173 2.998689 1.557673 2.683064 2.120173 2.120564 C 2.682673 1.558064 3.001423 0.795564 3.001423 -0.001311 C 3.001423 -0.795061 2.682673 -1.557561 2.120173 -2.120061 C 1.557673 -2.682561 0.795173 -3.001311 0.001423 -3.001311 C -0.795452 -3.001311 -1.557952 -2.682561 -2.120452 -2.120061 C -2.682952 -1.557561 -2.998577 -0.795061 -2.998577 -0.001311 C -2.998577 0.795564 -2.682952 1.558064 -2.120452 2.120564 C -1.557952 2.683064 -0.795452 2.998689 0.001423 2.998689 Z M 0.001423 2.998689 " transform="matrix(1.25,0,0,1.25,261.88494,51.173514)"/>
<path style="fill-rule:nonzero;fill:rgb(100%,49.803922%,5.490196%);fill-opacity:1;stroke-width:1;stroke-linecap:butt;stroke-linejoin:round;stroke:rgb(100%,49.803922%,5.490196%);stroke-opacity:1;stroke-miterlimit:4;" d="M -0.000337 3.000285 C 0.796538 3.000285 1.559038 2.68466 2.121538 2.12216 C 2.684038 1.55966 2.999663 0.79716 2.999663 0.000285 C 2.999663 -0.79659 2.684038 -1.55909 2.121538 -2.12159 C 1.559038 -2.68409 0.796538 -2.999715 -0.000337 -2.999715 C -0.794087 -2.999715 -1.559712 -2.68409 -2.122212 -2.12159 C -2.684712 -1.55909 -3.000337 -0.79659 -3.000337 0.000285 C -3.000337 0.79716 -2.684712 1.55966 -2.122212 2.12216 C -1.559712 2.68466 -0.794087 3.000285 -0.000337 3.000285 Z M -0.000337 3.000285 " transform="matrix(1.25,0,0,1.25,249.570734,44.976206)"/>
<path style="fill-rule:nonzero;fill:rgb(100%,49.803922%,5.490196%);fill-opacity:1;stroke-width:1;stroke-linecap:butt;stroke-linejoin:round;stroke:rgb(100%,49.803922%,5.490196%);stroke-opacity:1;stroke-miterlimit:4;" d="M 0.000296 2.999221 C 0.797171 2.999221 1.559671 2.683596 2.122171 2.121096 C 2.684671 1.558596 3.000296 0.796096 3.000296 -0.000779 C 3.000296 -0.794529 2.684671 -1.560154 2.122171 -2.122654 C 1.559671 -2.685154 0.797171 -3.000779 0.000296 -3.000779 C -0.796579 -3.000779 -1.559079 -2.685154 -2.121579 -2.122654 C -2.684079 -1.560154 -2.999704 -0.794529 -2.999704 -0.000779 C -2.999704 0.796096 -2.684079 1.558596 -2.121579 2.121096 C -1.559079 2.683596 -0.796579 2.999221 0.000296 2.999221 Z M 0.000296 2.999221 " transform="matrix(1.25,0,0,1.25,245.046505,44.059567)"/>
<g clip-path="url(#clip1)" clip-rule="nonzero">
<path style="fill:none;stroke-width:1.5;stroke-linecap:butt;stroke-linejoin:round;stroke:rgb(12.156863%,46.666667%,70.588235%);stroke-opacity:1;stroke-miterlimit:4;" d="M 237.91875 106.5625 L 237.38125 106.70625 L 234.86875 107.346875 L 231.81875 108.028125 L 228.765625 108.621875 L 225.7125 109.121875 L 222.6625 109.53125 L 219.6125 109.85 L 216.559375 110.078125 L 213.50625 110.215625 L 210.45625 110.2625 L 207.40625 110.215625 L 204.353125 110.078125 L 201.303125 109.85 L 198.25 109.53125 L 195.196875 109.121875 L 192.146875 108.621875 L 189.096875 108.028125 L 186.04375 107.346875 L 183.53125 106.70625 L 182.990625 106.5625 L 179.940625 105.65 L 176.890625 104.64375 L 173.8375 103.5375 L 172.8625 103.153125 L 170.7875 102.290625 L 167.734375 100.91875 L 165 99.6 L 164.68125 99.4375 L 161.63125 97.76875 L 158.671875 96.046875 L 158.578125 95.9875 L 155.528125 93.98125 L 153.384375 92.49375 L 152.478125 91.81875 L 149.425 89.428125 L 148.828125 88.9375 L 146.375 86.765625 L 144.884375 85.384375 L 143.321875 83.821875 L 141.421875 81.83125 L 140.26875 80.51875 L 138.3875 78.278125 L 137.21875 76.753125 L 135.725 74.721875 L 134.165625 72.384375 L 133.390625 71.16875 L 131.35625 67.615625 L 131.115625 67.140625 L 129.61875 64.0625 L 128.121875 60.50625 L 128.0625 60.346875 L 126.9 56.953125 L 125.9 53.4 L 125.125 49.846875 L 125.0125 49.134375 L 124.584375 46.29375 L 124.2625 42.7375 L 124.15625 39.184375 L 124.2625 35.63125 L 124.584375 32.078125 L 125.0125 29.234375 L 125.125 28.521875 L 125.9 24.96875 L 126.9 21.415625 L 128.0625 18.021875 L 128.121875 17.8625 L 129.61875 14.30625 L 131.115625 11.228125 L 131.35625 10.753125 L 133.390625 7.2 " transform="matrix(1.25,0,0,1.25,0,0.000000000000014211)"/>
</g>
<g clip-path="url(#clip2)" clip-rule="nonzero">
<path style="fill:none;stroke-width:1.5;stroke-linecap:butt;stroke-linejoin:round;stroke:rgb(12.156863%,46.666667%,70.588235%);stroke-opacity:1;stroke-miterlimit:4;" d="M 237.91875 137.109375 L 234.86875 137.659375 L 231.81875 138.14375 L 228.765625 138.5625 L 227.65625 138.69375 L 225.7125 138.909375 L 222.6625 139.190625 L 219.6125 139.409375 L 216.559375 139.565625 L 213.50625 139.659375 L 210.45625 139.690625 L 207.40625 139.659375 L 204.353125 139.565625 L 201.303125 139.409375 L 198.25 139.190625 L 195.196875 138.909375 L 193.25625 138.69375 L 192.146875 138.5625 L 189.096875 138.14375 L 186.04375 137.659375 L 182.990625 137.109375 L 179.940625 136.496875 L 176.890625 135.815625 L 174.103125 135.1375 L 173.8375 135.071875 L 170.7875 134.234375 L 167.734375 133.328125 L 164.68125 132.35625 L 162.41875 131.584375 L 161.63125 131.30625 L 158.578125 130.15625 L 155.528125 128.9375 L 153.384375 128.03125 L 152.478125 127.63125 L 149.425 126.21875 L 146.375 124.73125 L 145.878125 124.478125 L 143.321875 123.115625 L 140.26875 121.415625 L 139.425 120.921875 L 137.21875 119.58125 L 134.165625 117.646875 L 133.746875 117.36875 L 131.115625 115.55 L 128.696875 113.815625 L 128.0625 113.3375 L 125.0125 110.95625 L 124.15625 110.2625 L 121.9625 108.39375 L 120.046875 106.70625 L 118.909375 105.65 L 116.309375 103.153125 L 115.859375 102.696875 L 112.903125 99.6 L 112.80625 99.49375 L 109.803125 96.046875 L 109.75625 95.9875 L 106.975 92.49375 L 106.703125 92.125 L 104.403125 88.9375 L 103.65 87.81875 L 102.0625 85.384375 L 100.6 82.96875 L 99.93125 81.83125 L 98.009375 78.278125 L 97.55 77.346875 L 96.2875 74.721875 L 94.740625 71.16875 L 94.496875 70.540625 L 93.3875 67.615625 L 92.196875 64.0625 L 91.44375 61.465625 L 91.175 60.50625 L 90.325 56.953125 L 89.63125 53.4 L 89.0875 49.846875 L 88.703125 46.29375 L 88.471875 42.7375 L 88.39375 39.184375 L 88.471875 35.63125 L 88.703125 32.078125 L 89.0875 28.521875 L 89.63125 24.96875 L 90.325 21.415625 L 91.175 17.8625 L 91.44375 16.90625 L 92.196875 14.30625 L 93.3875 10.753125 L 94.496875 7.828125 L 94.740625 7.2 " transform="matrix(1.25,0,0,1.25,0,0.000000000000014211)"/>
</g>
<g clip-path="url(#clip3)" clip-rule="nonzero">
<path style="fill:none;stroke-width:1.5;stroke-linecap:butt;stroke-linejoin:round;stroke:rgb(12.156863%,46.666667%,70.588235%);stroke-opacity:1;stroke-miterlimit:4;" d="M 135.725 145.8 L 134.165625 145.046875 L 131.115625 143.5125 L 128.696875 142.246875 L 128.0625 141.903125 L 125.0125 140.1875 L 122.44375 138.69375 L 121.9625 138.4 L 118.909375 136.496875 L 116.809375 135.1375 L 115.859375 134.5 L 112.80625 132.390625 L 111.678125 131.584375 L 109.75625 130.15625 L 106.975 128.03125 L 106.703125 127.8125 L 103.65 125.3125 L 102.6625 124.478125 L 100.6 122.6625 L 98.678125 120.921875 L 97.55 119.85625 L 94.984375 117.36875 L 94.496875 116.871875 L 91.565625 113.815625 L 91.44375 113.684375 L 88.39375 110.2625 L 85.45625 106.70625 L 85.34375 106.5625 L 82.73125 103.153125 L 82.290625 102.54375 L 80.209375 99.6 L 79.2375 98.146875 L 77.871875 96.046875 L 76.1875 93.29375 L 75.70625 92.49375 L 73.71875 88.9375 L 73.134375 87.81875 L 71.89375 85.384375 L 70.21875 81.83125 L 70.084375 81.521875 L 68.70625 78.278125 L 67.328125 74.721875 L 67.034375 73.88125 L 66.1 71.16875 L 65.009375 67.615625 L 64.046875 64.0625 L 63.98125 63.7875 L 63.225 60.50625 L 62.534375 56.953125 L 61.96875 53.4 L 61.528125 49.846875 L 61.2125 46.29375 L 61.025 42.7375 L 60.9625 39.184375 L 61.025 35.63125 L 61.2125 32.078125 L 61.528125 28.521875 L 61.96875 24.96875 L 62.534375 21.415625 L 63.225 17.8625 L 63.98125 14.58125 L 64.046875 14.30625 L 65.009375 10.753125 L 66.1 7.2 " transform="matrix(1.25,0,0,1.25,0,0.000000000000014211)"/>
</g>
<g clip-path="url(#clip4)" clip-rule="nonzero">
<path style="fill:none;stroke-width:1.5;stroke-linecap:butt;stroke-linejoin:round;stroke:rgb(12.156863%,46.666667%,70.588235%);stroke-opacity:1;stroke-miterlimit:4;" d="M 96.2875 145.8 L 94.496875 144.475 L 91.565625 142.246875 L 91.44375 142.153125 L 88.39375 139.690625 L 87.1875 138.69375 L 85.34375 137.109375 L 83.1 135.1375 L 82.290625 134.4 L 79.275 131.584375 L 79.2375 131.55 L 76.1875 128.51875 L 75.70625 128.03125 L 73.134375 125.3125 L 72.365625 124.478125 L 70.084375 121.90625 L 69.23125 120.921875 L 67.034375 118.278125 L 66.29375 117.36875 L 63.98125 114.39375 L 63.540625 113.815625 L 60.9625 110.2625 L 60.928125 110.215625 L 58.55625 106.70625 L 57.878125 105.65 L 56.30625 103.153125 L 54.828125 100.665625 L 54.203125 99.6 L 52.25 96.046875 L 51.775 95.128125 L 50.4375 92.49375 L 48.753125 88.9375 L 48.721875 88.871875 L 47.2125 85.384375 L 45.7875 81.83125 L 45.671875 81.521875 L 44.496875 78.278125 L 43.31875 74.721875 L 42.61875 72.384375 " transform="matrix(1.25,0,0,1.25,0,0.000000000000014211)"/>
</g>
<g clip-path="url(#clip5)" clip-rule="nonzero">
<path style="fill:none;stroke-width:1.5;stroke-linecap:butt;stroke-linejoin:round;stroke:rgb(12.156863%,46.666667%,70.588235%);stroke-opacity:1;stroke-miterlimit:4;" d="M 67.328125 145.8 L 67.034375 145.528125 L 63.98125 142.66875 L 63.540625 142.246875 L 60.928125 139.659375 L 59.975 138.69375 L 57.878125 136.496875 L 56.609375 135.1375 L 54.828125 133.159375 L 53.434375 131.584375 L 51.775 129.634375 L 50.4375 128.03125 L 48.721875 125.890625 L 47.6125 124.478125 L 45.671875 121.90625 L 44.94375 120.921875 L 42.61875 117.646875 " transform="matrix(1.25,0,0,1.25,0,0.000000000000014211)"/>
</g>
<g clip-path="url(#clip6)" clip-rule="nonzero">
<path style="fill:none;stroke-width:1.5;stroke-linecap:butt;stroke-linejoin:round;stroke:rgb(12.156863%,46.666667%,70.588235%);stroke-opacity:1;stroke-miterlimit:4;" d="M 43.31875 145.8 L 42.61875 145.046875 " transform="matrix(1.25,0,0,1.25,0,0.000000000000014211)"/>
</g>
<path style="fill:none;stroke-width:0.8;stroke-linecap:square;stroke-linejoin:miter;stroke:rgb(0%,0%,0%);stroke-opacity:1;stroke-miterlimit:4;" d="M 42.61875 145.8 L 42.61875 7.2 " transform="matrix(1.25,0,0,1.25,0,0.000000000000014211)"/>
<path style="fill:none;stroke-width:0.8;stroke-linecap:square;stroke-linejoin:miter;stroke:rgb(0%,0%,0%);stroke-opacity:1;stroke-miterlimit:4;" d="M 237.921875 145.8 L 237.921875 7.2 " transform="matrix(1.25,0,0,1.25,0,0.000000000000014211)"/>
<path style="fill:none;stroke-width:0.8;stroke-linecap:square;stroke-linejoin:miter;stroke:rgb(0%,0%,0%);stroke-opacity:1;stroke-miterlimit:4;" d="M 42.61875 145.8 L 237.91875 145.8 " transform="matrix(1.25,0,0,1.25,0,0.000000000000014211)"/>
<path style="fill:none;stroke-width:0.8;stroke-linecap:square;stroke-linejoin:miter;stroke:rgb(0%,0%,0%);stroke-opacity:1;stroke-miterlimit:4;" d="M 42.61875 7.2 L 237.91875 7.2 " transform="matrix(1.25,0,0,1.25,0,0.000000000000014211)"/>
</g>
</svg>
