<svg id="Layer_1" data-name="Layer 1" xmlns="http://www.w3.org/2000/svg" xmlns:xlink="http://www.w3.org/1999/xlink" viewBox="0 0 416.73 235.62"><defs><style>.cls-1,.cls-10,.cls-4,.cls-5,.cls-7,.cls-8{fill:none;}.cls-2{clip-path:url(#clip-path);}.cls-3{fill:#fff;}.cls-4{stroke:#000;stroke-width:2px;}.cls-4,.cls-7{stroke-linejoin:round;}.cls-5,.cls-7{stroke:#0365c0;stroke-width:3px;}.cls-6{fill:#0365c0;}.cls-8{stroke:#0b5d18;}.cls-10,.cls-8{stroke-width:3px;}.cls-9{fill:#0b5d18;}.cls-10{stroke:#c82506;}.cls-11{fill:#c82506;}.cls-12{font-size:24px;font-family:Palatino-Roman, Palatino;}</style><clipPath id="clip-path"><rect class="cls-1" x="-159.5" y="-89" width="1024" height="768"/></clipPath></defs><g class="cls-2"><rect class="cls-3" x="-159.5" y="-89" width="1024" height="768"/><polyline class="cls-4" points="109.41 184.7 109.41 11.23 109.41 10.23"/><polygon points="105.97 9.9 109.41 3.02 112.85 9.9 105.97 9.9"/><polyline class="cls-4" points="25.41 100.59 181.83 100.59 182.83 100.59"/><polygon points="183.16 97.15 190.04 100.59 183.16 104.03 183.16 97.15"/><path class="cls-5" d="M12,27.49l.49,1.41Q107.87,302.6,173.67,15.33l.33-1.47"/><polygon class="cls-6" points="180.12 16.77 176.55 2.44 167.23 13.89 180.12 16.77"/><polygon class="cls-6" points="18.77 26.77 8.26 16.41 6.28 31.04 18.77 26.77"/><polyline class="cls-4" points="327.41 185.24 327.41 11.77 327.41 10.77"/><polygon points="323.97 10.44 327.41 3.56 330.85 10.44 323.97 10.44"/><polyline class="cls-4" points="243.41 101.13 399.83 101.13 400.83 101.13"/><polygon points="401.17 97.69 408.05 101.13 401.17 104.57 401.17 97.69"/><path class="cls-7" d="M261.72,35.35l.2,1.48C270,99,278,157.94,283.73,168.42c6.16,11.21,10.08-80.19,13.44-77.39s2.73,96.38,6.72,94.21,12-109.7,17.08-107.45,9.87,132.68,13.16,120.91,1.68-180.56,6.72-191.78,15.68,125.61,23.52,124.49c6.78-1,16.5-82.16,21.54-118.17l.22-1.48"/><polygon class="cls-6" points="392.43 14.23 387.89 0.19 379.38 12.25 392.43 14.23"/><polygon class="cls-6" points="268.46 35.98 260.21 23.74 255.37 37.69 268.46 35.98"/><polyline class="cls-8" points="34.38 76.55 35.74 77.18 133.39 122.54 134.75 123.17"/><path class="cls-9" d="M140.69,119.87a5.5,5.5,0,1,1-7.3,2.67A5.49,5.49,0,0,1,140.69,119.87Z"/><path class="cls-9" d="M28.44,79.85a5.5,5.5,0,1,1,7.31-2.67A5.51,5.51,0,0,1,28.44,79.85Z"/><polyline class="cls-10" points="275.86 103.7 277.35 103.89 364.45 115.03 365.94 115.22"/><path class="cls-11" d="M370.61,110.27a5.5,5.5,0,1,1-6.16,4.76A5.49,5.49,0,0,1,370.61,110.27Z"/><path class="cls-11" d="M271.2,108.64a5.5,5.5,0,1,1,6.15-4.75A5.49,5.49,0,0,1,271.2,108.64Z"/><text class="cls-12" transform="translate(70.15 228.34)">convex</text><text class="cls-12" transform="translate(267.63 228.34)">nonconvex</text></g></svg>