<svg id="Layer_1" data-name="Layer 1" xmlns="http://www.w3.org/2000/svg" xmlns:xlink="http://www.w3.org/1999/xlink" viewBox="0 0 693 301.6"><defs><style>.cls-1,.cls-13,.cls-23,.cls-26,.cls-29,.cls-5,.cls-8{fill:none;}.cls-2{clip-path:url(#clip-path);}.cls-3{fill:#fff;}.cls-4{clip-path:url(#clip-path-2);}.cls-13,.cls-26,.cls-29,.cls-5{stroke:#000;}.cls-23,.cls-5{stroke-linejoin:round;}.cls-13,.cls-26,.cls-5{stroke-width:2px;}.cls-6{clip-path:url(#clip-path-3);}.cls-7{clip-path:url(#clip-path-4);}.cls-23,.cls-8{stroke:#0365c0;stroke-width:3px;}.cls-9{fill:#0365c0;}.cls-10{clip-path:url(#clip-path-5);}.cls-11{font-size:24px;font-family:Palatino-Roman, Palatino;}.cls-12{clip-path:url(#clip-path-6);}.cls-14{clip-path:url(#clip-path-7);}.cls-15{clip-path:url(#clip-path-8);}.cls-16{clip-path:url(#clip-path-9);}.cls-17{clip-path:url(#clip-path-10);}.cls-18{clip-path:url(#clip-path-11);}.cls-19{clip-path:url(#clip-path-13);}.cls-20{clip-path:url(#clip-path-15);}.cls-21{clip-path:url(#clip-path-16);}.cls-22{clip-path:url(#clip-path-17);}.cls-24{clip-path:url(#clip-path-18);}.cls-25{clip-path:url(#clip-path-19);}.cls-26{stroke-dasharray:4 4;}.cls-27{clip-path:url(#clip-path-21);}.cls-28{clip-path:url(#clip-path-22);}.cls-29{stroke-width:2px;stroke-dasharray:4 4;}.cls-30{clip-path:url(#clip-path-24);}.cls-31{clip-path:url(#clip-path-25);}</style><clipPath id="clip-path"><rect class="cls-1" x="-178" y="-408" width="1024" height="768"/></clipPath><clipPath id="clip-path-2"><rect class="cls-1" x="105.68" y="13.02" width="8.88" height="183.68"/></clipPath><clipPath id="clip-path-3"><rect class="cls-1" x="25.13" y="107.15" width="166.63" height="8.88"/></clipPath><clipPath id="clip-path-4"><rect class="cls-1" x="5.99" y="12.13" width="175.84" height="163.81"/></clipPath><clipPath id="clip-path-5"><rect class="cls-1" x="29.89" y="222.4" width="128.04" height="45.2"/></clipPath><clipPath id="clip-path-6"><rect class="cls-1" x="94.2" y="181" width="11.6" height="53"/></clipPath><clipPath id="clip-path-7"><rect class="cls-1" x="332.46" y="12.73" width="8.88" height="183.68"/></clipPath><clipPath id="clip-path-8"><rect class="cls-1" x="251.9" y="106.86" width="166.63" height="8.88"/></clipPath><clipPath id="clip-path-9"><rect class="cls-1" x="246.25" y="25.92" width="172.7" height="144.87"/></clipPath><clipPath id="clip-path-10"><rect class="cls-1" x="246.83" y="224.4" width="183.46" height="77.2"/></clipPath><clipPath id="clip-path-11"><rect class="cls-1" x="319.58" y="200.69" width="64.47" height="11.6" transform="translate(59.52 491.05) rotate(-74.64)"/></clipPath><clipPath id="clip-path-13"><rect class="cls-1" x="312.12" y="173.43" width="11.6" height="66.04" transform="translate(-49.98 115.1) rotate(-19.05)"/></clipPath><clipPath id="clip-path-15"><rect class="cls-1" x="545.68" y="14.31" width="8.88" height="183.68"/></clipPath><clipPath id="clip-path-16"><rect class="cls-1" x="465.13" y="108.44" width="166.63" height="8.88"/></clipPath><clipPath id="clip-path-17"><rect class="cls-1" x="477.08" y="10.68" width="139.06" height="203.02"/></clipPath><clipPath id="clip-path-18"><rect class="cls-1" x="490.58" y="233.4" width="112.06" height="45.2"/></clipPath><clipPath id="clip-path-19"><rect class="cls-1" x="508.83" y="181.05" width="11.6" height="54.64" transform="translate(-36.93 144.77) rotate(-15.47)"/></clipPath><clipPath id="clip-path-21"><rect class="cls-1" x="523.82" y="203" width="11.6" height="31"/></clipPath><clipPath id="clip-path-22"><rect class="cls-1" x="543.81" y="187.5" width="75.08" height="11.6" transform="translate(344.91 758.49) rotate(-85.69)"/></clipPath><clipPath id="clip-path-24"><rect class="cls-1" x="616.34" y="146.74" width="86.57" height="77.2"/></clipPath><clipPath id="clip-path-25"><rect class="cls-1" x="555.42" y="198.53" width="74.62" height="11.6" transform="translate(-33.39 171.85) rotate(-16.05)"/></clipPath></defs><g class="cls-2"><rect class="cls-3" x="-178" y="-408" width="1024" height="768"/></g><g class="cls-4"><polyline class="cls-5" points="110.12 195.7 110.12 22.23 110.12 21.23"/><polygon points="106.68 20.9 110.12 14.02 113.56 20.9 106.68 20.9"/></g><g class="cls-6"><polyline class="cls-5" points="26.13 111.59 182.54 111.59 183.54 111.59"/><polygon points="183.88 108.15 190.76 111.59 183.88 115.03 183.88 108.15"/></g><g class="cls-7"><path class="cls-8" d="M12.75,38.49l.49,1.41Q108.58,313.6,174.39,26.33l.33-1.47"/><polygon class="cls-9" points="180.83 27.77 177.26 13.45 167.95 24.89 180.83 27.77"/><polygon class="cls-9" points="19.48 37.77 8.97 27.41 7 42.04 19.48 37.77"/></g><g class="cls-10"><text class="cls-11" transform="translate(36.99 254.34)">global min</text></g><g class="cls-12"><polyline class="cls-13" points="100 233 100 191.6 100 190.6"/><polygon points="104.8 191.6 100 182 95.2 191.6 104.8 191.6"/></g><g class="cls-14"><polyline class="cls-5" points="336.9 195.41 336.9 21.94 336.9 20.94"/><polygon points="333.46 20.61 336.9 13.73 340.34 20.61 333.46 20.61"/></g><g class="cls-15"><polyline class="cls-5" points="252.9 111.3 409.32 111.3 410.32 111.3"/><polygon points="410.66 107.86 417.54 111.3 410.66 114.74 410.66 107.86"/></g><g class="cls-16"><polyline class="cls-8" points="253.29 43.97 253.66 45.42 284.28 168.29 383.12 167.92 411.51 40.13 411.84 38.67"/><polygon class="cls-9" points="417.96 41.56 414.38 27.25 405.07 38.7 417.96 41.56"/><polygon class="cls-9" points="260.06 43.83 250.46 32.62 247.25 47.02 260.06 43.83"/></g><g class="cls-17"><text class="cls-11" transform="translate(253.93 256.34)">inﬁnitely many</text><text class="cls-11" transform="translate(278.3 288.34)">global min</text></g><g class="cls-18"><g class="cls-2"><polyline class="cls-13" points="343.55 236.6 357.55 185.63 357.81 184.66"/><polygon points="362.18 186.9 360.09 176.37 352.92 184.35 362.18 186.9"/></g></g><g class="cls-19"><g class="cls-2"><polyline class="cls-13" points="328.38 236.71 310.6 185.26 310.28 184.31"/><polygon points="315.14 183.69 307.47 176.19 306.07 186.83 315.14 183.69"/></g></g><g class="cls-20"><polyline class="cls-5" points="550.12 196.99 550.12 23.52 550.12 22.52"/><polygon points="546.68 22.19 550.12 15.31 553.56 22.19 546.68 22.19"/></g><g class="cls-21"><polyline class="cls-5" points="466.13 112.88 622.54 112.88 623.54 112.88"/><polygon points="623.88 109.44 630.76 112.88 623.88 116.32 623.88 109.44"/></g><g class="cls-22"><path class="cls-23" d="M484.43,47.1l.2,1.48c8.1,62.14,16.06,121.1,21.81,131.59,6.16,11.21,10.08-80.19,13.44-77.39s2.73,96.38,6.72,94.21,12-109.7,17.08-107.45,9.87,132.68,13.16,120.91,1.68-180.56,6.72-191.78,15.68,125.61,23.52,124.49c6.78-1,16.51-82.16,21.54-118.17l.22-1.48"/><polygon class="cls-9" points="615.14 25.98 610.6 11.94 602.09 24 615.14 25.98"/><polygon class="cls-9" points="491.17 47.73 482.92 35.49 478.08 49.44 491.17 47.73"/></g><g class="cls-24"><text class="cls-11" transform="translate(497.68 265.34)">local min</text></g><g class="cls-25"><g class="cls-2"><polyline class="cls-26" points="521.65 233.73 510.18 192.25 509.91 191.29"/><polygon points="514.8 190.97 507.62 183 505.55 193.53 514.8 190.97"/></g></g><g class="cls-27"><polyline class="cls-26" points="529.62 233 529.62 213.6 529.62 212.6"/><polygon points="534.41 213.6 529.62 204 524.82 213.6 534.41 213.6"/></g><g class="cls-28"><g class="cls-2"><polyline class="cls-29" points="578.61 229.74 583.38 166.44 583.45 165.44"/><polygon points="588.16 166.8 584.1 156.87 578.59 166.08 588.16 166.8"/></g></g><g class="cls-30"><text class="cls-11" transform="translate(623.44 178.69)">global</text><text class="cls-11" transform="translate(635.22 210.69)">min</text></g><g class="cls-31"><g class="cls-2"><polyline class="cls-13" points="627.63 194.29 567.06 211.71 566.1 211.99"/><polygon points="565.73 207.1 557.83 214.37 568.39 216.33 565.73 207.1"/></g></g></svg>